<svg width="20" height="21" viewBox="0 0 20 21" fill="none" xmlns="http://www.w3.org/2000/svg">
<path d="M3.91797 16.0941L4.57575 13.4629C4.61576 13.3029 4.63576 13.2229 4.66793 13.1483C4.69648 13.0821 4.73212 13.0191 4.77422 12.9606C4.82164 12.8946 4.87996 12.8363 4.9966 12.7196L10.8053 6.91089L11.9698 8.07531C12.3658 8.47133 12.5638 8.66934 12.638 8.89767C12.7032 9.09851 12.7032 9.31486 12.638 9.5157C12.5638 9.74403 12.3658 9.94204 11.9698 10.3381L7.2924 15.0154C7.17576 15.1321 7.11744 15.1904 7.05147 15.2378C6.99291 15.2799 6.92996 15.3155 6.86373 15.3441C6.78913 15.3763 6.70911 15.3963 6.54908 15.4363L3.91797 16.0941Z" fill="white" stroke="#67738C" stroke-width="1.5" stroke-linecap="round" stroke-linejoin="round"/>
<path d="M11.9529 8.05872L13.5 9.60577C13.896 10.0018 14.094 10.1998 14.1682 10.4281C14.2335 10.629 14.2335 10.8453 14.1682 11.0462C14.094 11.2745 13.896 11.4725 13.5 11.8685L11.5703 13.7982" stroke="#67738C" stroke-width="1.5" stroke-linecap="round" stroke-linejoin="round"/>
<path d="M12.5717 5.37932C13.1685 4.78251 14.1362 4.78251 14.733 5.37932C15.3298 5.97612 15.3298 6.94374 14.733 7.54054L14.7207 7.55276L12.5595 5.39153L12.5717 5.37932Z" fill="#67738C" stroke="#67738C" stroke-width="1.5" stroke-linecap="round"/>
</svg>
