<svg width="20" height="21" viewBox="0 0 20 21" fill="none" xmlns="http://www.w3.org/2000/svg">
<path d="M5 7.7C5 6.5799 5 6.01984 5.21799 5.59202C5.40973 5.21569 5.71569 4.90973 6.09202 4.71799C6.51984 4.5 7.07989 4.5 8.2 4.5H9.75319C10.166 4.5 10.3723 4.5 10.5699 4.54023C10.7451 4.57592 10.9148 4.63497 11.0744 4.71578C11.2542 4.80686 11.416 4.93497 11.7396 5.1912L13.7864 6.81184C14.232 7.16462 14.4548 7.34101 14.6152 7.56066C14.7573 7.75524 14.863 7.97389 14.9274 8.20608C15 8.46819 15 8.75234 15 9.32064V13.3C15 14.4201 15 14.9802 14.782 15.408C14.5903 15.7843 14.2843 16.0903 13.908 16.282C13.4802 16.5 12.9201 16.5 11.8 16.5H8.2C7.0799 16.5 6.51984 16.5 6.09202 16.282C5.71569 16.0903 5.40973 15.7843 5.21799 15.408C5 14.9802 5 14.4201 5 13.3V7.7Z" fill="white" stroke="#67738C" stroke-width="1.5"/>
<path d="M10 4.5V7.9C10 8.46005 10 8.74008 10.109 8.95399C10.2049 9.14215 10.3578 9.29513 10.546 9.39101C10.7599 9.5 11.0399 9.5 11.6 9.5H15" stroke="#67738C" stroke-width="1.5"/>
</svg>
