<svg width="20" height="21" viewBox="0 0 20 21" fill="none" xmlns="http://www.w3.org/2000/svg">
<path d="M11.4095 8.06803L3.3466 10.9476C2.63528 11.2017 2.27962 11.3287 2.18939 11.5056C2.11139 11.6585 2.11729 11.8408 2.20502 11.9883C2.3065 12.159 2.66963 12.2628 3.39589 12.4703L3.39589 12.4703L6.57266 13.3779C6.72863 13.4225 6.80662 13.4447 6.87063 13.4869C6.92729 13.5242 6.97575 13.5727 7.01308 13.6294C7.05525 13.6934 7.07753 13.7714 7.1221 13.9273L8.02975 17.1041C8.23725 17.8304 8.341 18.1935 8.51168 18.295C8.65924 18.3827 8.84148 18.3886 8.99441 18.3106C9.17129 18.2204 9.29832 17.8647 9.55236 17.1534L12.432 9.0905C12.6134 8.58235 12.7042 8.32828 12.6465 8.16197C12.5963 8.01736 12.4826 7.90371 12.338 7.85353C12.1717 7.79581 11.9177 7.88655 11.4095 8.06803Z" fill="#EBEEF5" stroke="#67738C" stroke-width="1.5" stroke-linecap="round"/>
<path d="M17.5 11.5C17.4005 11.5 17.3052 11.4605 17.2348 11.3902C17.1645 11.3198 17.125 11.2245 17.125 11.125C17.125 10.9261 17.046 10.7353 16.9053 10.5947C16.7647 10.454 16.5739 10.375 16.375 10.375C16.2755 10.375 16.1802 10.3355 16.1098 10.2652C16.0395 10.1948 16 10.0995 16 10C16 9.90054 16.0395 9.80516 16.1098 9.73484C16.1802 9.66451 16.2755 9.625 16.375 9.625C16.5739 9.625 16.7647 9.54598 16.9053 9.40533C17.046 9.26468 17.125 9.07391 17.125 8.875C17.125 8.77554 17.1645 8.68016 17.2348 8.60984C17.3052 8.53951 17.4005 8.5 17.5 8.5C17.5995 8.5 17.6948 8.53951 17.7652 8.60984C17.8355 8.68016 17.875 8.77554 17.875 8.875C17.875 9.07391 17.954 9.26468 18.0947 9.40533C18.2353 9.54598 18.4261 9.625 18.625 9.625C18.7245 9.625 18.8198 9.66451 18.8902 9.73484C18.9605 9.80516 19 9.90054 19 10C19 10.0995 18.9605 10.1948 18.8902 10.2652C18.8198 10.3355 18.7245 10.375 18.625 10.375C18.4261 10.375 18.2353 10.454 18.0947 10.5947C17.954 10.7353 17.875 10.9261 17.875 11.125C17.875 11.2245 17.8355 11.3198 17.7652 11.3902C17.6948 11.4605 17.5995 11.5 17.5 11.5Z" fill="#67738C"/>
<path d="M10.5 4.5C10.4005 4.5 10.3052 4.46049 10.2348 4.39016C10.1645 4.31984 10.125 4.22446 10.125 4.125C10.125 3.92609 10.046 3.73532 9.90533 3.59467C9.76468 3.45402 9.57391 3.375 9.375 3.375C9.27554 3.375 9.18016 3.33549 9.10983 3.26516C9.03951 3.19484 9 3.09946 9 3C9 2.90054 9.03951 2.80516 9.10983 2.73484C9.18016 2.66451 9.27554 2.625 9.375 2.625C9.57391 2.625 9.76468 2.54598 9.90533 2.40533C10.046 2.26468 10.125 2.07391 10.125 1.875C10.125 1.77554 10.1645 1.68016 10.2348 1.60984C10.3052 1.53951 10.4005 1.5 10.5 1.5C10.5995 1.5 10.6948 1.53951 10.7652 1.60984C10.8355 1.68016 10.875 1.77554 10.875 1.875C10.875 2.07391 10.954 2.26468 11.0947 2.40533C11.2353 2.54598 11.4261 2.625 11.625 2.625C11.7245 2.625 11.8198 2.66451 11.8902 2.73484C11.9605 2.80516 12 2.90054 12 3C12 3.09946 11.9605 3.19484 11.8902 3.26516C11.8198 3.33549 11.7245 3.375 11.625 3.375C11.4261 3.375 11.2353 3.45402 11.0947 3.59467C10.954 3.73532 10.875 3.92609 10.875 4.125C10.875 4.22446 10.8355 4.31984 10.7652 4.39016C10.6948 4.46049 10.5995 4.5 10.5 4.5Z" fill="#67738C"/>
<path d="M16 6.5C15.8674 6.5 15.7402 6.44732 15.6464 6.35355C15.5527 6.25979 15.5 6.13261 15.5 6C15.5 5.73478 15.3946 5.48043 15.2071 5.29289C15.0196 5.10536 14.7652 5 14.5 5C14.3674 5 14.2402 4.94732 14.1464 4.85355C14.0527 4.75979 14 4.63261 14 4.5C14 4.36739 14.0527 4.24021 14.1464 4.14645C14.2402 4.05268 14.3674 4 14.5 4C14.7652 4 15.0196 3.89464 15.2071 3.70711C15.3946 3.51957 15.5 3.26522 15.5 3C15.5 2.86739 15.5527 2.74021 15.6464 2.64645C15.7402 2.55268 15.8674 2.5 16 2.5C16.1326 2.5 16.2598 2.55268 16.3536 2.64645C16.4473 2.74021 16.5 2.86739 16.5 3C16.5 3.26522 16.6054 3.51957 16.7929 3.70711C16.9804 3.89464 17.2348 4 17.5 4C17.6326 4 17.7598 4.05268 17.8536 4.14645C17.9473 4.24021 18 4.36739 18 4.5C18 4.63261 17.9473 4.75979 17.8536 4.85355C17.7598 4.94732 17.6326 5 17.5 5C17.2348 5 16.9804 5.10536 16.7929 5.29289C16.6054 5.48043 16.5 5.73478 16.5 6C16.5 6.13261 16.4473 6.25979 16.3536 6.35355C16.2598 6.44732 16.1326 6.5 16 6.5Z" fill="#67738C"/>
</svg>
