<svg width="13" height="13" viewBox="0 0 13 13" fill="none" xmlns="http://www.w3.org/2000/svg">
<path d="M0.917969 12.0943L1.57575 9.46319C1.61576 9.30316 1.63576 9.22315 1.66793 9.14855C1.69648 9.08232 1.73212 9.01937 1.77422 8.9608C1.82164 8.89484 1.87996 8.83652 1.9966 8.71988L7.80535 2.91113L8.96977 4.07556C9.36579 4.47157 9.5638 4.66958 9.63799 4.89791C9.70325 5.09875 9.70325 5.3151 9.63799 5.51594C9.5638 5.74427 9.36579 5.94228 8.96977 6.3383L4.2924 11.0157C4.17576 11.1323 4.11744 11.1906 4.05147 11.2381C3.99291 11.2802 3.92996 11.3158 3.86373 11.3444C3.78913 11.3765 3.70911 11.3965 3.54908 11.4365L0.917969 12.0943Z" fill="white" stroke="#1D867B" stroke-width="1.5" stroke-linecap="round" stroke-linejoin="round"/>
<path d="M8.95343 4.05908L10.5005 5.60614C10.8965 6.00215 11.0945 6.20016 11.1687 6.42849C11.234 6.62933 11.234 6.84568 11.1687 7.04653C11.0945 7.27485 10.8965 7.47286 10.5005 7.86888L8.5708 9.79857" stroke="#1D867B" stroke-width="1.5" stroke-linecap="round" stroke-linejoin="round"/>
<path d="M9.57368 1.37944C10.1705 0.782635 11.1381 0.782635 11.7349 1.37944C12.3317 1.97625 12.3317 2.94386 11.7349 3.54067L11.7227 3.55288L9.56147 1.39165L9.57368 1.37944Z" fill="#1D867B" stroke="#1D867B" stroke-width="1.5" stroke-linecap="round"/>
</svg>
