<svg width="16" height="17" viewBox="0 0 16 17" fill="none" xmlns="http://www.w3.org/2000/svg">
<path d="M4.18212 9.13574C3.33817 9.13574 2.52878 8.80048 1.93202 8.20371C1.33526 7.60695 1 6.79757 1 5.95362C1 5.10966 1.33526 4.30028 1.93202 3.70352C2.52878 3.10675 3.33817 2.7715 4.18212 2.7715C4.22094 2.7715 4.25722 2.78168 4.2954 2.78295C4.44257 2.35686 4.7361 1.99677 5.12377 1.76672C5.51144 1.53666 5.96815 1.45156 6.41266 1.52654C6.85718 1.60151 7.26069 1.83171 7.55146 2.1762C7.84223 2.52068 8.0014 2.95713 8.00066 3.40792V4.04434C8.00066 4.55071 7.79951 5.03634 7.44145 5.3944C7.08339 5.75246 6.59776 5.95362 6.09139 5.95362H5.45497" fill="white"/>
<path d="M4.18212 9.13574C3.33817 9.13574 2.52878 8.80048 1.93202 8.20371C1.33526 7.60695 1 6.79757 1 5.95362C1 5.10966 1.33526 4.30028 1.93202 3.70352C2.52878 3.10675 3.33817 2.7715 4.18212 2.7715C4.22094 2.7715 4.25722 2.78168 4.2954 2.78295C4.44258 2.35686 4.7361 1.99677 5.12377 1.76672C5.51144 1.53666 5.96815 1.45156 6.41266 1.52654C6.85718 1.60151 7.26069 1.83171 7.55146 2.1762C7.84223 2.52068 8.0014 2.95713 8.00066 3.40792V4.04434C8.00066 4.55071 7.79951 5.03634 7.44145 5.3944C7.08339 5.75246 6.59776 5.95362 6.09139 5.95362H5.45497" stroke="#6059C5" stroke-width="1.5" stroke-linecap="round" stroke-linejoin="round"/>
<path d="M14.2646 11.562C14.3287 11.809 14.3624 12.0629 14.3652 12.3181C14.3652 13.162 14.0299 13.9714 13.4332 14.5682C12.8364 15.1649 12.027 15.5002 11.1831 15.5002C10.3391 15.5002 9.52974 15.1649 8.93298 14.5682C8.33622 13.9714 8.00096 13.162 8.00096 12.3181C8.00096 13.162 7.6657 13.9714 7.06894 14.5682C6.47217 15.1649 5.66279 15.5002 4.81884 15.5002C3.97489 15.5002 3.1655 15.1649 2.56874 14.5682C1.97198 13.9714 1.63672 13.162 1.63672 12.3181C1.63947 12.0629 1.67324 11.809 1.73727 11.562" fill="white"/>
<path d="M14.2646 11.562C14.3287 11.809 14.3624 12.0629 14.3652 12.3181C14.3652 13.162 14.0299 13.9714 13.4332 14.5682C12.8364 15.1649 12.027 15.5002 11.1831 15.5002C10.3391 15.5002 9.52974 15.1649 8.93298 14.5682C8.33622 13.9714 8.00096 13.162 8.00096 12.3181C8.00096 13.162 7.6657 13.9714 7.06894 14.5682C6.47217 15.1649 5.66279 15.5002 4.81884 15.5002C3.97489 15.5002 3.1655 15.1649 2.56874 14.5682C1.97198 13.9714 1.63672 13.162 1.63672 12.3181C1.63947 12.0629 1.67324 11.809 1.73727 11.562" stroke="#6059C5" stroke-width="1.5" stroke-linecap="round" stroke-linejoin="round"/>
<path d="M1.74843 7.98145C1.5113 8.21552 1.32303 8.49437 1.19455 8.80181C1.06607 9.10924 0.999938 9.43914 1 9.77234C1 10.4475 1.26821 11.095 1.74562 11.5724C2.22303 12.0498 2.87054 12.318 3.5457 12.318H4.18212" fill="white"/>
<path d="M1.74843 7.98145C1.5113 8.21552 1.32303 8.49437 1.19455 8.80181C1.06607 9.10924 0.999938 9.43914 1 9.77234C1 10.4475 1.26821 11.095 1.74562 11.5724C2.22303 12.0498 2.87054 12.318 3.5457 12.318H4.18212" stroke="#6059C5" stroke-width="1.5" stroke-linecap="round" stroke-linejoin="round"/>
<path d="M4.81855 6.59023C5.17004 6.59023 5.45498 6.30529 5.45498 5.95381C5.45498 5.60232 5.17004 5.31738 4.81855 5.31738C4.46707 5.31738 4.18213 5.60232 4.18213 5.95381C4.18213 6.30529 4.46707 6.59023 4.81855 6.59023Z" fill="#6059C5" stroke="#6059C5" stroke-width="1.5" stroke-linecap="round" stroke-linejoin="round"/>
<path d="M4.81855 12.9545C5.17004 12.9545 5.45498 12.6696 5.45498 12.3181C5.45498 11.9666 5.17004 11.6816 4.81855 11.6816C4.46707 11.6816 4.18213 11.9666 4.18213 12.3181C4.18213 12.6696 4.46707 12.9545 4.81855 12.9545Z" fill="#6059C5" stroke="#6059C5" stroke-width="1.5" stroke-linecap="round" stroke-linejoin="round"/>
<path d="M14.253 7.98145C14.4902 8.21552 14.6784 8.49437 14.8069 8.80181C14.9354 9.10924 15.0015 9.43914 15.0015 9.77234C15.0015 10.4475 14.7332 11.095 14.2558 11.5724C13.7784 12.0498 13.1309 12.318 12.4558 12.318H11.8193" fill="white"/>
<path d="M14.253 7.98145C14.4902 8.21552 14.6784 8.49437 14.8069 8.80181C14.9354 9.10924 15.0015 9.43914 15.0015 9.77234C15.0015 10.4475 14.7332 11.095 14.2558 11.5724C13.7784 12.0498 13.1309 12.318 12.4558 12.318H11.8193" stroke="#6059C5" stroke-width="1.5" stroke-linecap="round" stroke-linejoin="round"/>
<path d="M8.00098 12.3182V9.77246" stroke="#6059C5" stroke-width="1.5" stroke-linecap="round" stroke-linejoin="round"/>
<path d="M11.1828 12.9545C11.5343 12.9545 11.8192 12.6696 11.8192 12.3181C11.8192 11.9666 11.5343 11.6816 11.1828 11.6816C10.8313 11.6816 10.5464 11.9666 10.5464 12.3181C10.5464 12.6696 10.8313 12.9545 11.1828 12.9545Z" fill="#6059C5" stroke="#6059C5" stroke-width="1.5" stroke-linecap="round" stroke-linejoin="round"/>
<path d="M11.8195 9.13574C12.6635 9.13574 13.4729 8.80048 14.0696 8.20371C14.6664 7.60695 15.0016 6.79757 15.0016 5.95362C15.0016 5.10966 14.6664 4.30028 14.0696 3.70352C13.4729 3.10675 12.6635 2.7715 11.8195 2.7715C11.7807 2.7715 11.7444 2.78168 11.7062 2.78295C11.5591 2.35686 11.2655 1.99677 10.8779 1.76672C10.4902 1.53666 10.0335 1.45156 9.58898 1.52654C9.14447 1.60151 8.74095 1.83171 8.45018 2.1762C8.15941 2.52068 8.00025 2.95713 8.00098 3.40792V4.04434C8.00098 4.55071 8.20213 5.03634 8.56019 5.3944C8.91825 5.75246 9.40388 5.95362 9.91025 5.95362H10.5467" fill="white"/>
<path d="M11.8195 9.13574C12.6635 9.13574 13.4729 8.80048 14.0696 8.20371C14.6664 7.60695 15.0016 6.79757 15.0016 5.95362C15.0016 5.10966 14.6664 4.30028 14.0696 3.70352C13.4729 3.10675 12.6635 2.7715 11.8195 2.7715C11.7807 2.7715 11.7444 2.78168 11.7062 2.78295C11.5591 2.35686 11.2655 1.99677 10.8779 1.76672C10.4902 1.53666 10.0335 1.45156 9.58898 1.52654C9.14447 1.60151 8.74095 1.83171 8.45018 2.1762C8.15941 2.52068 8.00025 2.95713 8.00098 3.40792V4.04434C8.00098 4.55071 8.20213 5.03634 8.56019 5.3944C8.91825 5.75246 9.40388 5.95362 9.91025 5.95362H10.5467" stroke="#6059C5" stroke-width="1.5" stroke-linecap="round" stroke-linejoin="round"/>
<path d="M11.1828 6.59023C11.5343 6.59023 11.8192 6.30529 11.8192 5.95381C11.8192 5.60232 11.5343 5.31738 11.1828 5.31738C10.8313 5.31738 10.5464 5.60232 10.5464 5.95381C10.5464 6.30529 10.8313 6.59023 11.1828 6.59023Z" fill="#6059C5" stroke="#6059C5" stroke-width="1.5" stroke-linecap="round" stroke-linejoin="round"/>
<path d="M8.00068 9.77236C8.35217 9.77236 8.63711 9.48742 8.63711 9.13594C8.63711 8.78445 8.35217 8.49951 8.00068 8.49951C7.64919 8.49951 7.36426 8.78445 7.36426 9.13594C7.36426 9.48742 7.64919 9.77236 8.00068 9.77236Z" fill="#6059C5" stroke="#6059C5" stroke-width="1.5" stroke-linecap="round" stroke-linejoin="round"/>
</svg>
