<svg width="24" height="24" viewBox="0 0 24 24" fill="none" xmlns="http://www.w3.org/2000/svg">
<path d="M4.75 6.75C4.75 5.64543 5.64543 4.75 6.75 4.75H17.25C18.3546 4.75 19.25 5.64543 19.25 6.75V17.25C19.25 18.3546 18.3546 19.25 17.25 19.25H6.75C5.64543 19.25 4.75 18.3546 4.75 17.25V6.75Z" fill="#EEF1F6"/>
<path d="M6.75 5.5H17.25V4H6.75V5.5ZM18.5 6.75V17.25H20V6.75H18.5ZM17.25 18.5H6.75V20H17.25V18.5ZM5.5 17.25V6.75H4V17.25H5.5ZM6.75 18.5C6.05964 18.5 5.5 17.9404 5.5 17.25H4C4 18.7688 5.23122 20 6.75 20V18.5ZM18.5 17.25C18.5 17.9404 17.9404 18.5 17.25 18.5V20C18.7688 20 20 18.7688 20 17.25H18.5ZM17.25 5.5C17.9404 5.5 18.5 6.05964 18.5 6.75H20C20 5.23122 18.7688 4 17.25 4V5.5ZM6.75 4C5.23122 4 4 5.23122 4 6.75H5.5C5.5 6.05964 6.05964 5.5 6.75 5.5V4Z" fill="#67738C"/>
<path d="M10.5 8.75C10.5 8.33579 10.1642 8 9.75 8C9.33579 8 9 8.33579 9 8.75H10.5ZM9 19C9 19.4142 9.33579 19.75 9.75 19.75C10.1642 19.75 10.5 19.4142 10.5 19H9ZM9 8.75V19H10.5V8.75H9Z" fill="#67738C"/>
<path d="M5 7.5C4.58579 7.5 4.25 7.83579 4.25 8.25C4.25 8.66421 4.58579 9 5 9V7.5ZM19 9C19.4142 9 19.75 8.66421 19.75 8.25C19.75 7.83579 19.4142 7.5 19 7.5V9ZM5 9H19V7.5H5V9Z" fill="#67738C"/>
</svg>
