<svg width="24" height="24" viewBox="0 0 24 24" fill="none" xmlns="http://www.w3.org/2000/svg">
<path d="M19.25 12C19.25 16.0041 16.0041 19.25 12 19.25C7.99594 19.25 4.75 16.0041 4.75 12C4.75 7.99594 7.99594 4.75 12 4.75C16.0041 4.75 19.25 7.99594 19.25 12Z" fill="#EEF1F6"/>
<path d="M18.5 12C18.5 15.5899 15.5899 18.5 12 18.5V20C16.4183 20 20 16.4183 20 12H18.5ZM12 18.5C8.41015 18.5 5.5 15.5899 5.5 12H4C4 16.4183 7.58172 20 12 20V18.5ZM5.5 12C5.5 8.41015 8.41015 5.5 12 5.5V4C7.58172 4 4 7.58172 4 12H5.5ZM12 5.5C15.5899 5.5 18.5 8.41015 18.5 12H20C20 7.58172 16.4183 4 12 4V5.5Z" fill="#67738C"/>
<path d="M14.25 9.5C14.6642 9.5 15 9.16421 15 8.75C15 8.33579 14.6642 8 14.25 8V9.5ZM9.75 14.5C9.33579 14.5 9 14.8358 9 15.25C9 15.6642 9.33579 16 9.75 16V14.5ZM14.25 8H11.375V9.5H14.25V8ZM11.375 12.75H12.625V11.25H11.375V12.75ZM12.625 14.5H9.75V16H12.625V14.5ZM13.5 13.625C13.5 14.1082 13.1082 14.5 12.625 14.5V16C13.9367 16 15 14.9367 15 13.625H13.5ZM12.625 12.75C13.1082 12.75 13.5 13.1418 13.5 13.625H15C15 12.3133 13.9367 11.25 12.625 11.25V12.75ZM9 10.375C9 11.6867 10.0633 12.75 11.375 12.75V11.25C10.8918 11.25 10.5 10.8582 10.5 10.375H9ZM11.375 8C10.0633 8 9 9.06332 9 10.375H10.5C10.5 9.89175 10.8918 9.5 11.375 9.5V8Z" fill="#67738C"/>
<path d="M12.75 7.75C12.75 7.33579 12.4142 7 12 7C11.5858 7 11.25 7.33579 11.25 7.75H12.75ZM11.25 8.25C11.25 8.66421 11.5858 9 12 9C12.4142 9 12.75 8.66421 12.75 8.25H11.25ZM11.25 7.75V8.25H12.75V7.75H11.25Z" fill="#67738C"/>
<path d="M12.75 15.75C12.75 15.3358 12.4142 15 12 15C11.5858 15 11.25 15.3358 11.25 15.75H12.75ZM11.25 16.25C11.25 16.6642 11.5858 17 12 17C12.4142 17 12.75 16.6642 12.75 16.25H11.25ZM11.25 15.75V16.25H12.75V15.75H11.25Z" fill="#67738C"/>
</svg>
