<svg width="24" height="24" viewBox="0 0 24 24" fill="none" xmlns="http://www.w3.org/2000/svg">
<path d="M10.75 13.25H6.75L13.25 4.75V10.75H17.25L10.75 19.25V13.25Z" fill="#EEF1F6"/>
<path d="M6.75 13.25L6.15423 12.7944C5.9809 13.0211 5.9512 13.3265 6.07762 13.5823C6.20403 13.8381 6.46466 14 6.75 14V13.25ZM10.75 13.25H11.5C11.5 12.8358 11.1642 12.5 10.75 12.5V13.25ZM13.25 4.75H14C14 4.42847 13.795 4.14271 13.4905 4.0396C13.1859 3.9365 12.8495 4.039 12.6542 4.29441L13.25 4.75ZM13.25 10.75H12.5C12.5 11.1642 12.8358 11.5 13.25 11.5V10.75ZM17.25 10.75L17.8458 11.2056C18.0191 10.9789 18.0488 10.6735 17.9224 10.4177C17.796 10.1619 17.5353 10 17.25 10V10.75ZM10.75 19.25H10C10 19.5715 10.205 19.8573 10.5095 19.9604C10.8141 20.0635 11.1505 19.961 11.3458 19.7056L10.75 19.25ZM6.75 14H10.75V12.5H6.75V14ZM12.6542 4.29441L6.15423 12.7944L7.34577 13.7056L13.8458 5.20559L12.6542 4.29441ZM14 10.75V4.75H12.5V10.75H14ZM17.25 10H13.25V11.5H17.25V10ZM11.3458 19.7056L17.8458 11.2056L16.6542 10.2944L10.1542 18.7944L11.3458 19.7056ZM10 13.25V19.25H11.5V13.25H10Z" fill="#67738C"/>
</svg>
