<svg width="24" height="24" viewBox="0 0 24 24" fill="none" xmlns="http://www.w3.org/2000/svg">
<path d="M11.3028 4.85242L4.58118 16.7986C4.46365 17.0075 4.40488 17.1119 4.39614 17.2215C4.38866 17.3153 4.41027 17.4172 4.45519 17.4999C4.50767 17.5965 4.60003 17.6653 4.78475 17.803C10.8945 22.355 16.6872 19.9346 19.2846 17.7984C19.4411 17.6697 19.5193 17.6053 19.5668 17.5104C19.6065 17.4311 19.6258 17.3279 19.6175 17.2396C19.6075 17.1339 19.5533 17.0377 19.445 16.8451L12.6972 4.85242C12.4692 4.44718 12.3552 4.24455 12.2054 4.17706C12.0748 4.11822 11.9252 4.11822 11.7946 4.17706C11.6448 4.24455 11.5308 4.44718 11.3028 4.85242Z" fill="#EEF1F6" stroke="#67738C" stroke-width="1.5" stroke-linecap="round"/>
<path d="M5.34375 15.1133C7.70535 17.0592 13.6737 19.7836 18.6546 15.1133" stroke="#67738C" stroke-width="1.5"/>
<path d="M11.4492 11.4131C11.4492 11.6892 11.2254 11.9131 10.9492 11.9131C10.6731 11.9131 10.4492 11.6892 10.4492 11.4131C10.4492 11.1369 10.6731 10.9131 10.9492 10.9131C11.2254 10.9131 11.4492 11.1369 11.4492 11.4131Z" fill="#67738C"/>
<path d="M10.8492 11.4131C10.8492 11.3579 10.894 11.3131 10.9492 11.3131V12.5131C11.5567 12.5131 12.0492 12.0206 12.0492 11.4131H10.8492ZM10.9492 11.3131C11.0044 11.3131 11.0492 11.3579 11.0492 11.4131H9.84922C9.84922 12.0206 10.3417 12.5131 10.9492 12.5131V11.3131ZM11.0492 11.4131C11.0492 11.4683 11.0044 11.5131 10.9492 11.5131V10.3131C10.3417 10.3131 9.84922 10.8056 9.84922 11.4131H11.0492ZM10.9492 11.5131C10.894 11.5131 10.8492 11.4683 10.8492 11.4131H12.0492C12.0492 10.8056 11.5567 10.3131 10.9492 10.3131V11.5131Z" fill="#67738C"/>
<path d="M14.5508 14.1133C14.5508 14.3894 14.3269 14.6133 14.0508 14.6133C13.7746 14.6133 13.5508 14.3894 13.5508 14.1133C13.5508 13.8371 13.7746 13.6133 14.0508 13.6133C14.3269 13.6133 14.5508 13.8371 14.5508 14.1133Z" fill="#67738C"/>
<path d="M13.9508 14.1133C13.9508 14.0581 13.9956 14.0133 14.0508 14.0133V15.2133C14.6583 15.2133 15.1508 14.7208 15.1508 14.1133H13.9508ZM14.0508 14.0133C14.106 14.0133 14.1508 14.0581 14.1508 14.1133H12.9508C12.9508 14.7208 13.4433 15.2133 14.0508 15.2133V14.0133ZM14.1508 14.1133C14.1508 14.1685 14.106 14.2133 14.0508 14.2133V13.0133C13.4433 13.0133 12.9508 13.5058 12.9508 14.1133H14.1508ZM14.0508 14.2133C13.9956 14.2133 13.9508 14.1685 13.9508 14.1133H15.1508C15.1508 13.5058 14.6583 13.0133 14.0508 13.0133V14.2133Z" fill="#67738C"/>
</svg>
