<svg width="24" height="24" viewBox="0 0 24 24" fill="none" xmlns="http://www.w3.org/2000/svg">
<path d="M4.75 7.75C4.75 6.09315 6.09315 4.75 7.75 4.75H16.25C17.9069 4.75 19.25 6.09315 19.25 7.75V16.25C19.25 17.9069 17.9069 19.25 16.25 19.25H7.75C6.09315 19.25 4.75 17.9069 4.75 16.25V7.75Z" fill="#EEF1F6"/>
<path d="M7.75 5.5H16.25V4H7.75V5.5ZM18.5 7.75V16.25H20V7.75H18.5ZM16.25 18.5H7.75V20H16.25V18.5ZM5.5 16.25V7.75H4V16.25H5.5ZM7.75 18.5C6.50736 18.5 5.5 17.4926 5.5 16.25H4C4 18.3211 5.67893 20 7.75 20V18.5ZM18.5 16.25C18.5 17.4926 17.4926 18.5 16.25 18.5V20C18.3211 20 20 18.3211 20 16.25H18.5ZM16.25 5.5C17.4926 5.5 18.5 6.50736 18.5 7.75H20C20 5.67893 18.3211 4 16.25 4V5.5ZM7.75 4C5.67893 4 4 5.67893 4 7.75H5.5C5.5 6.50736 6.50736 5.5 7.75 5.5V4Z" fill="#67738C"/>
<path d="M13.25 7.75H10.75V10.75H7.75V13.25H10.75V16.25H13.25V13.25H16.25V10.75H13.25V7.75Z" fill="#EEF1F6"/>
<path d="M10.75 7.75V7C10.3358 7 10 7.33579 10 7.75H10.75ZM13.25 7.75H14C14 7.33579 13.6642 7 13.25 7V7.75ZM10.75 10.75V11.5C11.1642 11.5 11.5 11.1642 11.5 10.75H10.75ZM7.75 10.75V10C7.33579 10 7 10.3358 7 10.75H7.75ZM7.75 13.25H7C7 13.6642 7.33579 14 7.75 14V13.25ZM10.75 13.25H11.5C11.5 12.8358 11.1642 12.5 10.75 12.5V13.25ZM10.75 16.25H10C10 16.6642 10.3358 17 10.75 17V16.25ZM13.25 16.25V17C13.6642 17 14 16.6642 14 16.25H13.25ZM13.25 13.25V12.5C12.8358 12.5 12.5 12.8358 12.5 13.25H13.25ZM16.25 13.25V14C16.6642 14 17 13.6642 17 13.25H16.25ZM16.25 10.75H17C17 10.3358 16.6642 10 16.25 10V10.75ZM13.25 10.75H12.5C12.5 11.1642 12.8358 11.5 13.25 11.5V10.75ZM10.75 8.5H13.25V7H10.75V8.5ZM11.5 10.75V7.75H10V10.75H11.5ZM7.75 11.5H10.75V10H7.75V11.5ZM8.5 13.25V10.75H7V13.25H8.5ZM10.75 12.5H7.75V14H10.75V12.5ZM11.5 16.25V13.25H10V16.25H11.5ZM13.25 15.5H10.75V17H13.25V15.5ZM12.5 13.25V16.25H14V13.25H12.5ZM16.25 12.5H13.25V14H16.25V12.5ZM15.5 10.75V13.25H17V10.75H15.5ZM13.25 11.5H16.25V10H13.25V11.5ZM12.5 7.75V10.75H14V7.75H12.5Z" fill="#67738C"/>
</svg>
