<svg width="24" height="24" viewBox="0 0 24 24" fill="none" xmlns="http://www.w3.org/2000/svg">
<g clip-path="url(#clip0_2728_365486)">
<path d="M13.868 6H5.46797C5.18794 6 5.04793 6 4.94097 6.0545C4.84689 6.10243 4.7704 6.17892 4.72247 6.273C4.66797 6.37996 4.66797 6.51997 4.66797 6.8V13.8667C4.66797 14.1467 4.66797 14.2867 4.72247 14.3937C4.7704 14.4877 4.84689 14.5642 4.94097 14.6122C5.04793 14.6667 5.18794 14.6667 5.46797 14.6667H13.868C14.148 14.6667 14.288 14.6667 14.395 14.6122C14.489 14.5642 14.5655 14.4877 14.6135 14.3937C14.668 14.2867 14.668 14.1467 14.668 13.8667V6.8C14.668 6.51997 14.668 6.37996 14.6135 6.273C14.5655 6.17892 14.489 6.10243 14.395 6.0545C14.288 6 14.148 6 13.868 6Z" fill="#EEF1F6" stroke="#67738C" stroke-width="1.5" stroke-linecap="round"/>
<path d="M14.668 10.1335C14.668 9.85347 14.668 9.71346 14.7225 9.6065C14.7704 9.51242 14.8469 9.43593 14.941 9.38799C15.0479 9.3335 15.1879 9.3335 15.468 9.3335H17.0033C17.1256 9.3335 17.1867 9.3335 17.2443 9.34731C17.2953 9.35956 17.344 9.37976 17.3888 9.40718C17.4392 9.4381 17.4825 9.48133 17.5689 9.56781L19.1003 11.0992C19.1868 11.1857 19.23 11.2289 19.261 11.2794C19.2884 11.3241 19.3086 11.3729 19.3208 11.4239C19.3346 11.4814 19.3346 11.5426 19.3346 11.6649V13.8668C19.3346 14.1469 19.3346 14.2869 19.2801 14.3938C19.2322 14.4879 19.1557 14.5644 19.0616 14.6123C18.9547 14.6668 18.8147 14.6668 18.5346 14.6668H15.468C15.1879 14.6668 15.0479 14.6668 14.941 14.6123C14.8469 14.5644 14.7704 14.4879 14.7225 14.3938C14.668 14.2869 14.668 14.1469 14.668 13.8668V10.1335Z" fill="#EEF1F6" stroke="#67738C" stroke-width="1.5" stroke-linecap="round"/>
<path d="M7.66667 17.9998C8.58714 17.9998 9.33333 17.2536 9.33333 16.3332C9.33333 15.4127 8.58714 14.6665 7.66667 14.6665C6.74619 14.6665 6 15.4127 6 16.3332C6 17.2536 6.74619 17.9998 7.66667 17.9998Z" fill="#EEF1F6" stroke="#67738C" stroke-width="1.5" stroke-linecap="round"/>
<path d="M16.3346 17.9998C17.2551 17.9998 18.0013 17.2536 18.0013 16.3332C18.0013 15.4127 17.2551 14.6665 16.3346 14.6665C15.4142 14.6665 14.668 15.4127 14.668 16.3332C14.668 17.2536 15.4142 17.9998 16.3346 17.9998Z" fill="#EEF1F6" stroke="#67738C" stroke-width="1.5" stroke-linecap="round"/>
</g>
<defs>
<clipPath id="clip0_2728_365486">
<rect width="16" height="16" fill="white" transform="translate(4 4)"/>
</clipPath>
</defs>
</svg>
