<svg width="24" height="24" viewBox="0 0 24 24" fill="none" xmlns="http://www.w3.org/2000/svg">
<path d="M8.4 5.3335C8.25333 5.3335 8.18 5.3335 8.11269 5.35272C8.05308 5.36974 7.99715 5.39771 7.94776 5.43518C7.892 5.4775 7.848 5.53616 7.76 5.6535L6.16 7.78683C6.10063 7.86598 6.07095 7.90556 6.04987 7.94914C6.03117 7.98782 6.01753 8.02874 6.00929 8.0709C6 8.11842 6 8.16789 6 8.26683V17.3335C6 17.6871 6.14048 18.0263 6.39052 18.2763C6.64057 18.5264 6.97971 18.6668 7.33333 18.6668H16.6667C17.0203 18.6668 17.3594 18.5264 17.6095 18.2763C17.8595 18.0263 18 17.6871 18 17.3335V8.26683C18 8.16789 18 8.11842 17.9907 8.0709C17.9825 8.02874 17.9688 7.98782 17.9501 7.94914C17.929 7.90556 17.8994 7.86598 17.84 7.78683L16.24 5.6535C16.152 5.53616 16.108 5.4775 16.0522 5.43518C16.0028 5.39771 15.9469 5.36974 15.8873 5.35272C15.82 5.3335 15.7467 5.3335 15.6 5.3335H8.4Z" fill="#EEF1F6" stroke="#67738C" stroke-width="1.5" stroke-linecap="round"/>
<path d="M6 8H18" stroke="#67738C" stroke-width="1.5" stroke-linecap="round"/>
<path d="M14.6654 10.6665C14.6654 11.3737 14.3844 12.052 13.8843 12.5521C13.3842 13.0522 12.7059 13.3332 11.9987 13.3332C11.2915 13.3332 10.6132 13.0522 10.1131 12.5521C9.61298 12.052 9.33203 11.3737 9.33203 10.6665" fill="#EEF1F6"/>
<path d="M14.6654 10.6665C14.6654 11.3737 14.3844 12.052 13.8843 12.5521C13.3842 13.0522 12.7059 13.3332 11.9987 13.3332C11.2915 13.3332 10.6132 13.0522 10.1131 12.5521C9.61298 12.052 9.33203 11.3737 9.33203 10.6665" stroke="#67738C" stroke-width="1.5" stroke-linecap="round"/>
</svg>
