<svg width="24" height="24" viewBox="0 0 24 24" fill="none" xmlns="http://www.w3.org/2000/svg">
<path d="M17.7306 14.4503C17.7306 14.4504 17.7307 14.4504 17.7307 14.4504L18.6883 15.408C19.7303 16.45 18.9918 18.2313 17.5182 18.2313H5.65715C4.18352 18.2313 3.44587 16.45 4.48784 15.408L8.62261 11.2733C8.9328 10.9632 9.10711 10.5426 9.1072 10.104V5.82695L8.28025 5H14.8959L14.0689 5.82695V10.104C14.069 10.5426 14.2433 10.9632 14.5535 11.2733L17.7306 14.4503Z" fill="#EEF1F6"/>
<path d="M17.7307 14.4504C17.4998 14.2195 17.2057 14.0621 16.8855 13.9981L15.8986 13.8009L14.9116 13.6036C13.8296 13.3873 12.7064 13.5377 11.7196 14.0312L11.4566 14.1618C11.0141 14.3831 10.5442 14.5354 10.0629 14.6166C9.58948 14.6964 9.10508 14.7075 8.62488 14.6477C8.50442 14.6327 8.38423 14.6133 8.26454 14.5894L6.66769 14.2702C6.40075 14.2168 6.12477 14.2302 5.86425 14.3091C5.60372 14.388 5.3667 14.53 5.17421 14.7225M17.7307 14.4504L14.5535 11.2733M17.7307 14.4504L18.6883 15.408M14.5535 11.2733C14.2433 10.9632 14.069 10.5426 14.0689 10.104V5.82695L14.8959 5H8.28025L9.1072 5.82695V10.104C9.10711 10.5426 8.9328 10.9632 8.62261 11.2733L4.48784 15.408C3.44587 16.45 4.18352 18.2313 5.65715 18.2313H17.5182C18.9918 18.2313 19.7303 16.45 18.6883 15.408M14.5535 11.2733L18.6883 15.408" stroke="#67738C" stroke-width="1.5" stroke-linecap="round" stroke-linejoin="round"/>
</svg>
