<svg width="24" height="24" viewBox="0 0 24 24" fill="none" xmlns="http://www.w3.org/2000/svg">
<path d="M4.75 6.75V17.25C4.75 18.3546 5.64543 19.25 6.75 19.25H17.25C18.3546 19.25 19.25 18.3546 19.25 17.25V6.75C19.25 5.64543 18.3546 4.75 17.25 4.75H6.75C5.64543 4.75 4.75 5.64543 4.75 6.75Z" fill="#EEF1F6"/>
<path d="M5.5 17.25V6.75H4V17.25H5.5ZM17.25 18.5H6.75V20H17.25V18.5ZM6.75 5.5H17.25V4H6.75V5.5ZM18.5 6.75V17.25H20V6.75H18.5ZM17.25 5.5C17.9404 5.5 18.5 6.05964 18.5 6.75H20C20 5.23122 18.7688 4 17.25 4V5.5ZM17.25 20C18.7688 20 20 18.7688 20 17.25H18.5C18.5 17.9404 17.9404 18.5 17.25 18.5V20ZM4 17.25C4 18.7688 5.23122 20 6.75 20V18.5C6.05964 18.5 5.5 17.9404 5.5 17.25H4ZM5.5 6.75C5.5 6.05964 6.05964 5.5 6.75 5.5V4C5.23122 4 4 5.23122 4 6.75H5.5Z" fill="#67738C"/>
<path d="M8.5 8C8.5 8.27614 8.27614 8.5 8 8.5C7.72386 8.5 7.5 8.27614 7.5 8C7.5 7.72386 7.72386 7.5 8 7.5C8.27614 7.5 8.5 7.72386 8.5 8Z" fill="#EEF1F6" stroke="#67738C" stroke-linecap="round" stroke-linejoin="round"/>
<path d="M8.5 12C8.5 12.2761 8.27614 12.5 8 12.5C7.72386 12.5 7.5 12.2761 7.5 12C7.5 11.7239 7.72386 11.5 8 11.5C8.27614 11.5 8.5 11.7239 8.5 12Z" fill="#EEF1F6" stroke="#67738C" stroke-linecap="round" stroke-linejoin="round"/>
<path d="M12.5 8C12.5 8.27614 12.2761 8.5 12 8.5C11.7239 8.5 11.5 8.27614 11.5 8C11.5 7.72386 11.7239 7.5 12 7.5C12.2761 7.5 12.5 7.72386 12.5 8Z" fill="#EEF1F6" stroke="#67738C" stroke-linecap="round" stroke-linejoin="round"/>
<path d="M12.5 12C12.5 12.2761 12.2761 12.5 12 12.5C11.7239 12.5 11.5 12.2761 11.5 12C11.5 11.7239 11.7239 11.5 12 11.5C12.2761 11.5 12.5 11.7239 12.5 12Z" fill="#EEF1F6" stroke="#67738C" stroke-linecap="round" stroke-linejoin="round"/>
<path d="M16.5 8C16.5 8.27614 16.2761 8.5 16 8.5C15.7239 8.5 15.5 8.27614 15.5 8C15.5 7.72386 15.7239 7.5 16 7.5C16.2761 7.5 16.5 7.72386 16.5 8Z" fill="#EEF1F6" stroke="#67738C" stroke-linecap="round" stroke-linejoin="round"/>
<path d="M16.5 12C16.5 12.2761 16.2761 12.5 16 12.5C15.7239 12.5 15.5 12.2761 15.5 12C15.5 11.7239 15.7239 11.5 16 11.5C16.2761 11.5 16.5 11.7239 16.5 12Z" fill="#EEF1F6" stroke="#67738C" stroke-linecap="round" stroke-linejoin="round"/>
<path d="M7.75 16.25H16.25" stroke="#67738C" stroke-width="1.5" stroke-linecap="round" stroke-linejoin="round"/>
</svg>
