<svg width="24" height="24" viewBox="0 0 24 24" fill="none" xmlns="http://www.w3.org/2000/svg">
<path d="M5.75 6.75C5.75 5.64543 6.64543 4.75 7.75 4.75H16.25C17.3546 4.75 18.25 5.64543 18.25 6.75V19.25H5.75V6.75Z" fill="#EEF1F6" stroke="#67738C" stroke-width="1.5" stroke-linecap="round" stroke-linejoin="round"/>
<path d="M4.75 19.25H19.25" stroke="#67738C" stroke-width="1.5" stroke-linecap="round" stroke-linejoin="round"/>
<path d="M9.75 15.75C9.75 14.6454 10.6454 13.75 11.75 13.75H12.25C13.3546 13.75 14.25 14.6454 14.25 15.75V19.25H9.75V15.75Z" fill="#EEF1F6" stroke="#67738C" stroke-width="1.5" stroke-linecap="round" stroke-linejoin="round"/>
<path d="M10.5 10C10.5 10.2761 10.2761 10.5 10 10.5C9.72386 10.5 9.5 10.2761 9.5 10C9.5 9.72386 9.72386 9.5 10 9.5C10.2761 9.5 10.5 9.72386 10.5 10Z" fill="#EEF1F6"/>
<path d="M10 10V11C10.5523 11 11 10.5523 11 10H10ZM10 10H9C9 10.5523 9.44772 11 10 11V10ZM10 10V9C9.44772 9 9 9.44772 9 10H10ZM10 10H11C11 9.44772 10.5523 9 10 9V10Z" fill="#67738C"/>
<path d="M14.5 10C14.5 10.2761 14.2761 10.5 14 10.5C13.7239 10.5 13.5 10.2761 13.5 10C13.5 9.72386 13.7239 9.5 14 9.5C14.2761 9.5 14.5 9.72386 14.5 10Z" fill="#EEF1F6"/>
<path d="M14 10V11C14.5523 11 15 10.5523 15 10H14ZM14 10H13C13 10.5523 13.4477 11 14 11V10ZM14 10V9C13.4477 9 13 9.44772 13 10H14ZM14 10H15C15 9.44772 14.5523 9 14 9V10Z" fill="#67738C"/>
</svg>
