<svg width="24" height="24" viewBox="0 0 24 24" fill="none" xmlns="http://www.w3.org/2000/svg">
<path d="M14.4646 8.94978C14.0741 8.55926 14.0741 7.92609 14.4646 7.53557L16.8348 5.16532C16.2794 4.8991 15.6572 4.75 15.0002 4.75C12.6529 4.75 10.7502 6.65279 10.7502 9C10.7502 9.65705 10.8993 10.2793 11.1655 10.8347L5.16421 16.8359C4.61193 17.3882 4.61193 18.2837 5.16421 18.8359C5.7165 19.3882 6.61193 19.3882 7.16421 18.8359L13.1655 12.8347C13.7209 13.1009 14.3431 13.25 15.0002 13.25C17.3474 13.25 19.2502 11.3472 19.2502 9C19.2502 8.35127 19.1048 7.73649 18.8449 7.18645L16.4802 9.55116C16.0897 9.94169 15.4565 9.94169 15.066 9.55117L14.4646 8.94978Z" fill="#EEF1F6" stroke="#67738C" stroke-width="1.5" stroke-linecap="round" stroke-linejoin="round"/>
</svg>
