<svg width="24" height="24" viewBox="0 0 24 24" fill="none" xmlns="http://www.w3.org/2000/svg">
<circle cx="12.25" cy="12.25" r="9" fill="#EEF1F6" stroke="#67738C" stroke-width="1.5"/>
<path fill-rule="evenodd" clip-rule="evenodd" d="M6.1001 8.92374C6.1001 9.0001 9.13789 15.2928 9.21507 15.3762C9.52059 15.7067 10.0042 15.727 10.326 15.4228C10.466 15.2905 10.5987 15.0313 11.5721 12.9891C12.1713 11.732 12.6848 10.6672 12.7134 10.6227L12.7652 10.542L14.2809 10.5513C15.6502 10.5598 15.7957 10.5662 15.7874 10.618C15.7824 10.6496 15.2498 11.7808 14.6039 13.132C13.9579 14.4831 13.4295 15.6026 13.4295 15.6198C13.4295 15.637 13.825 15.6467 14.3122 15.6414L15.1949 15.6319L16.5472 12.8106L17.8994 9.98924L17.9001 9.69768C17.9006 9.43051 17.8919 9.3933 17.7949 9.25284C17.7289 9.15713 17.6186 9.06202 17.5016 8.99974L17.3141 8.89999L14.7142 8.90021C13.0701 8.90032 12.0675 8.91367 11.9867 8.93649C11.6869 9.02131 11.6357 9.10552 10.7284 11.0071C10.2645 11.9793 9.86304 12.7972 9.83617 12.8246C9.79444 12.8671 9.77807 12.8587 9.72346 12.7672C9.68832 12.7083 9.25715 11.8148 8.76532 10.7816L7.87107 8.9031L6.98558 8.90153C6.49855 8.90071 6.1001 8.91067 6.1001 8.92374Z" fill="#67738C"/>
</svg>
