<svg width="24" height="24" viewBox="0 0 24 24" fill="none" xmlns="http://www.w3.org/2000/svg">
<path d="M4.75 9.75C4.75 8.64543 5.64543 7.75 6.75 7.75H17.25C18.3546 7.75 19.25 8.64543 19.25 9.75V17.25C19.25 18.3546 18.3546 19.25 17.25 19.25H6.75C5.64543 19.25 4.75 18.3546 4.75 17.25V9.75Z" fill="#EEF1F6"/>
<path d="M6.75 8.5H17.25V7H6.75V8.5ZM18.5 9.75V17.25H20V9.75H18.5ZM17.25 18.5H6.75V20H17.25V18.5ZM5.5 17.25V9.75H4V17.25H5.5ZM6.75 18.5C6.05964 18.5 5.5 17.9404 5.5 17.25H4C4 18.7688 5.23122 20 6.75 20V18.5ZM18.5 17.25C18.5 17.9404 17.9404 18.5 17.25 18.5V20C18.7688 20 20 18.7688 20 17.25H18.5ZM17.25 8.5C17.9404 8.5 18.5 9.05964 18.5 9.75H20C20 8.23122 18.7688 7 17.25 7V8.5ZM6.75 7C5.23122 7 4 8.23122 4 9.75H5.5C5.5 9.05964 6.05964 8.5 6.75 8.5V7Z" fill="#67738C"/>
<path d="M8 7.5C8 7.91421 8.33579 8.25 8.75 8.25C9.16421 8.25 9.5 7.91421 9.5 7.5H8ZM14.5 7.5C14.5 7.91421 14.8358 8.25 15.25 8.25C15.6642 8.25 16 7.91421 16 7.5H14.5ZM9.5 7.5V6.75H8V7.5H9.5ZM10.75 5.5H13.25V4H10.75V5.5ZM14.5 6.75V7.5H16V6.75H14.5ZM13.25 5.5C13.9404 5.5 14.5 6.05964 14.5 6.75H16C16 5.23122 14.7688 4 13.25 4V5.5ZM9.5 6.75C9.5 6.05964 10.0596 5.5 10.75 5.5V4C9.23122 4 8 5.23122 8 6.75H9.5Z" fill="#67738C"/>
<path d="M5 12.5C4.58579 12.5 4.25 12.8358 4.25 13.25C4.25 13.6642 4.58579 14 5 14V12.5ZM19 14C19.4142 14 19.75 13.6642 19.75 13.25C19.75 12.8358 19.4142 12.5 19 12.5V14ZM5 14H19V12.5H5V14Z" fill="#67738C"/>
<path d="M9.5 11.75C9.5 11.3358 9.16421 11 8.75 11C8.33579 11 8 11.3358 8 11.75H9.5ZM8 14.25C8 14.6642 8.33579 15 8.75 15C9.16421 15 9.5 14.6642 9.5 14.25H8ZM8 11.75V14.25H9.5V11.75H8Z" fill="#67738C"/>
<path d="M16 11.75C16 11.3358 15.6642 11 15.25 11C14.8358 11 14.5 11.3358 14.5 11.75H16ZM14.5 14.25C14.5 14.6642 14.8358 15 15.25 15C15.6642 15 16 14.6642 16 14.25H14.5ZM14.5 11.75V14.25H16V11.75H14.5Z" fill="#67738C"/>
</svg>
