<svg width="573" height="397" viewBox="0 0 573 397" fill="none" xmlns="http://www.w3.org/2000/svg">
<circle cx="32.8924" cy="199" r="2.11113" fill="#D0DFFB"/>
<circle cx="32.8924" cy="106.111" r="2.11113" fill="#D0DFFB"/>
<circle cx="32.8924" cy="2.11113" r="2.11113" fill="#D0DFFB"/>
<circle cx="32.8924" cy="303.111" r="2.11113" fill="#D0DFFB"/>
<circle cx="32.8924" cy="394.111" r="2.11113" fill="#D0DFFB"/>
<circle cx="25.1769" cy="199" r="1.78626" fill="#D0DFFB"/>
<circle cx="25.1769" cy="106.11" r="1.78626" fill="#D0DFFB"/>
<circle cx="25.1769" cy="2.11048" r="1.78626" fill="#D0DFFB"/>
<circle cx="25.1769" cy="303.11" r="1.78626" fill="#D0DFFB"/>
<circle cx="25.1769" cy="394.11" r="1.78626" fill="#D0DFFB"/>
<circle cx="17.4616" cy="199.001" r="1.46155" fill="#D0DFFB"/>
<circle cx="17.4616" cy="106.111" r="1.46155" fill="#D0DFFB"/>
<circle cx="17.4616" cy="2.11097" r="1.46155" fill="#D0DFFB"/>
<circle cx="17.4616" cy="303.111" r="1.46155" fill="#D0DFFB"/>
<circle cx="17.4616" cy="394.111" r="1.46155" fill="#D0DFFB"/>
<g filter="url(#filter0_f_2_91)">
<circle cx="286.5" cy="191.5" r="112.5" stroke="#0A5CFF" stroke-width="2" stroke-linecap="round" stroke-linejoin="round"/>
</g>
<circle cx="286.5" cy="191.5" r="112.5" fill="#F5F7FA" stroke="#0A5CFF" stroke-width="2" stroke-linecap="round" stroke-linejoin="round"/>
<rect x="238" y="143" width="97" height="97" rx="48.5" fill="#131416"/>
<path fill-rule="evenodd" clip-rule="evenodd" d="M259.219 176.451C259.219 176.794 273.265 205.083 273.622 205.458C275.035 206.943 277.271 207.034 278.759 205.667C279.406 205.072 280.02 203.907 284.521 194.726C287.292 189.075 289.666 184.288 289.798 184.088V184.088C289.948 183.862 290.202 183.727 290.473 183.728L297.046 183.767C303.378 183.805 304.051 183.834 304.012 184.067C303.989 184.209 301.526 189.295 298.54 195.369C295.553 201.443 293.109 206.475 293.109 206.552C293.109 206.63 294.938 206.674 297.191 206.65L301.273 206.607L307.525 193.924L313.47 181.864C313.673 181.454 313.779 181.003 313.78 180.545L313.781 179.93C313.784 178.729 313.743 178.561 313.295 177.93C312.99 177.5 312.48 177.072 311.939 176.792L311.72 176.679C311.294 176.459 310.821 176.344 310.342 176.344L299.05 176.345C291.448 176.345 286.811 176.405 286.438 176.508C285.052 176.889 284.815 177.268 280.62 185.816C278.475 190.187 276.618 193.864 276.494 193.987C276.301 194.178 276.225 194.14 275.973 193.729C275.81 193.464 273.817 189.447 271.543 184.803L267.408 176.358L263.313 176.351C261.061 176.347 259.219 176.392 259.219 176.451Z" fill="#FAFAFA"/>
<circle cx="286.5" cy="191.5" r="103.5" stroke="#D0DFFB" stroke-width="2" stroke-linecap="round" stroke-linejoin="round" stroke-dasharray="1 10"/>
<circle cx="286.5" cy="191.5" r="87.5" stroke="#D0DFFB" stroke-width="2" stroke-linecap="round" stroke-linejoin="round"/>
<path d="M101.5 303H6.5" stroke="url(#paint0_linear_2_91)" stroke-width="2" stroke-linecap="round" stroke-linejoin="round"/>
<path d="M100.5 106H5.5" stroke="url(#paint1_linear_2_91)" stroke-width="2" stroke-linecap="round" stroke-linejoin="round"/>
<path d="M173 199L39 199" stroke="url(#paint2_linear_2_91)" stroke-width="2" stroke-linecap="round" stroke-linejoin="round"/>
<path d="M175 174.5H113C106.373 174.5 101 169.127 101 162.5V14C101 7.37259 95.6274 2 89 2H1" stroke="url(#paint3_linear_2_91)" stroke-width="2" stroke-linecap="round" stroke-linejoin="round"/>
<path d="M178 222H113C106.373 222 101 227.373 101 234V382.5C101 389.127 95.6274 394.5 89 394.5H1" stroke="url(#paint4_linear_2_91)" stroke-width="2" stroke-linecap="round" stroke-linejoin="round"/>
<path d="M471.5 303H566.5" stroke="url(#paint5_linear_2_91)" stroke-width="2" stroke-linecap="round" stroke-linejoin="round"/>
<path d="M472.5 106H567.5" stroke="url(#paint6_linear_2_91)" stroke-width="2" stroke-linecap="round" stroke-linejoin="round"/>
<path d="M400 199L534 199" stroke="url(#paint7_linear_2_91)" stroke-width="2" stroke-linecap="round" stroke-linejoin="round"/>
<path d="M399 174.5H460C466.627 174.5 472 169.127 472 162.5V14C472 7.37259 477.373 2 484 2H572" stroke="url(#paint8_linear_2_91)" stroke-width="2" stroke-linecap="round" stroke-linejoin="round"/>
<path d="M395 222H460C466.627 222 472 227.373 472 234V382.5C472 389.127 477.373 394.5 484 394.5H572" stroke="url(#paint9_linear_2_91)" stroke-width="2" stroke-linecap="round" stroke-linejoin="round"/>
<circle r="2.11113" transform="matrix(-1 0 0 1 540.108 199)" fill="#D0DFFB"/>
<circle r="2.11113" transform="matrix(-1 0 0 1 540.108 106.111)" fill="#D0DFFB"/>
<circle r="2.11113" transform="matrix(-1 0 0 1 540.108 2.11113)" fill="#D0DFFB"/>
<circle r="2.11113" transform="matrix(-1 0 0 1 540.108 303.111)" fill="#D0DFFB"/>
<circle r="2.11113" transform="matrix(-1 0 0 1 540.108 394.111)" fill="#D0DFFB"/>
<circle r="1.78626" transform="matrix(-1 0 0 1 547.823 199)" fill="#D0DFFB"/>
<circle r="1.78626" transform="matrix(-1 0 0 1 547.823 106.11)" fill="#D0DFFB"/>
<circle r="1.78626" transform="matrix(-1 0 0 1 547.823 2.11048)" fill="#D0DFFB"/>
<circle r="1.78626" transform="matrix(-1 0 0 1 547.823 303.11)" fill="#D0DFFB"/>
<circle r="1.78626" transform="matrix(-1 0 0 1 547.823 394.11)" fill="#D0DFFB"/>
<circle r="1.46155" transform="matrix(-1 0 0 1 555.538 199.001)" fill="#D0DFFB"/>
<circle r="1.46155" transform="matrix(-1 0 0 1 555.538 106.111)" fill="#D0DFFB"/>
<circle r="1.46155" transform="matrix(-1 0 0 1 555.538 2.11097)" fill="#D0DFFB"/>
<circle r="1.46155" transform="matrix(-1 0 0 1 555.538 303.111)" fill="#D0DFFB"/>
<circle r="1.46155" transform="matrix(-1 0 0 1 555.538 394.111)" fill="#D0DFFB"/>
<defs>
<filter id="filter0_f_2_91" x="167" y="72" width="239" height="239" filterUnits="userSpaceOnUse" color-interpolation-filters="sRGB">
<feFlood flood-opacity="0" result="BackgroundImageFix"/>
<feBlend mode="normal" in="SourceGraphic" in2="BackgroundImageFix" result="shape"/>
<feGaussianBlur stdDeviation="3" result="effect1_foregroundBlur_2_91"/>
</filter>
<linearGradient id="paint0_linear_2_91" x1="102" y1="304" x2="38" y2="304" gradientUnits="userSpaceOnUse">
<stop stop-color="#1F69FF"/>
<stop offset="1" stop-color="#1F69FF" stop-opacity="0"/>
</linearGradient>
<linearGradient id="paint1_linear_2_91" x1="101" y1="107" x2="44.5" y2="107" gradientUnits="userSpaceOnUse">
<stop stop-color="#1F69FF"/>
<stop offset="1" stop-color="#1F69FF" stop-opacity="0"/>
</linearGradient>
<linearGradient id="paint2_linear_2_91" x1="173.394" y1="199" x2="39.3941" y2="199" gradientUnits="userSpaceOnUse">
<stop offset="0.454283" stop-color="#1F69FF"/>
<stop offset="1" stop-color="#1F69FF" stop-opacity="0"/>
</linearGradient>
<linearGradient id="paint3_linear_2_91" x1="106.5" y1="2" x2="38.5" y2="2" gradientUnits="userSpaceOnUse">
<stop stop-color="#1F69FF"/>
<stop offset="1" stop-color="#1F69FF" stop-opacity="0"/>
</linearGradient>
<linearGradient id="paint4_linear_2_91" x1="83.5" y1="394.5" x2="1" y2="394.5" gradientUnits="userSpaceOnUse">
<stop stop-color="#1F69FF"/>
<stop offset="0.510708" stop-color="#1F69FF" stop-opacity="0"/>
</linearGradient>
<linearGradient id="paint5_linear_2_91" x1="471" y1="304" x2="535" y2="304" gradientUnits="userSpaceOnUse">
<stop stop-color="#1F69FF"/>
<stop offset="1" stop-color="#1F69FF" stop-opacity="0"/>
</linearGradient>
<linearGradient id="paint6_linear_2_91" x1="472" y1="107" x2="528.5" y2="107" gradientUnits="userSpaceOnUse">
<stop stop-color="#1F69FF"/>
<stop offset="1" stop-color="#1F69FF" stop-opacity="0"/>
</linearGradient>
<linearGradient id="paint7_linear_2_91" x1="399.606" y1="199" x2="533.606" y2="199" gradientUnits="userSpaceOnUse">
<stop offset="0.454283" stop-color="#1F69FF"/>
<stop offset="1" stop-color="#1F69FF" stop-opacity="0"/>
</linearGradient>
<linearGradient id="paint8_linear_2_91" x1="466.5" y1="2" x2="534.5" y2="2" gradientUnits="userSpaceOnUse">
<stop stop-color="#1F69FF"/>
<stop offset="1" stop-color="#1F69FF" stop-opacity="0"/>
</linearGradient>
<linearGradient id="paint9_linear_2_91" x1="489.5" y1="394.5" x2="572" y2="394.5" gradientUnits="userSpaceOnUse">
<stop stop-color="#1F69FF"/>
<stop offset="0.510708" stop-color="#1F69FF" stop-opacity="0"/>
</linearGradient>
</defs>
</svg>
