<svg width="20" height="21" viewBox="0 0 20 21" fill="none" xmlns="http://www.w3.org/2000/svg">
<path d="M10.9882 4.25H13.8C14.3724 4.25 14.7566 4.25058 15.0525 4.27476C15.3396 4.29822 15.4769 4.3401 15.5675 4.38624C15.8027 4.50608 15.9939 4.69731 16.1138 4.93251C16.1599 5.02307 16.2018 5.16035 16.2252 5.44748C16.2494 5.74336 16.25 6.12757 16.25 6.7V9.51178C16.25 10.2812 16.2452 10.5437 16.1878 10.7826C16.1327 11.0122 16.0418 11.2317 15.9184 11.433C15.7901 11.6424 15.6079 11.8315 15.0638 12.3756L11.8638 15.5756C11.261 16.1783 10.8404 16.5981 10.4865 16.8985C10.1394 17.1932 9.90612 17.3287 9.69529 17.3972C9.24339 17.5441 8.75661 17.5441 8.30471 17.3972C8.09388 17.3287 7.86061 17.1932 7.51345 16.8985C7.15959 16.5981 6.73899 16.1783 6.13622 15.5756L4.92444 14.3638C4.32167 13.761 3.90189 13.3404 3.60149 12.9865C3.30677 12.6394 3.17127 12.4061 3.10276 12.1953C2.95593 11.7434 2.95593 11.2566 3.10276 10.8047C3.17127 10.5939 3.30677 10.3606 3.60149 10.0135C3.90189 9.65959 4.32167 9.23899 4.92444 8.63622L8.12444 5.43622C8.66854 4.89212 8.85756 4.70992 9.06702 4.58156C9.26833 4.4582 9.48781 4.36729 9.71739 4.31217C9.95626 4.25482 10.2188 4.25 10.9882 4.25Z" fill="#EEF1F6" stroke="#67738C" stroke-width="1.5"/>
<circle cx="12.5" cy="8" r="1.5" fill="#67738C"/>
</svg>
