<svg width="24" height="24" viewBox="0 0 24 24" fill="none" xmlns="http://www.w3.org/2000/svg">
<circle cx="12" cy="6" r="2" fill="#EEF1F6"/>
<circle cx="6" cy="12" r="2" fill="#EEF1F6"/>
<circle cx="12" cy="18" r="2" fill="#EEF1F6"/>
<circle cx="18" cy="12" r="2" fill="#EEF1F6"/>
<path d="M12.1609 4C10.8421 4 9.75249 5.03995 9.67374 6.34C8.17401 6.98032 6.98018 8.17737 6.34 9.67751C5.03889 9.75465 4 10.8403 4 12.16C4 13.4788 5.03742 14.5675 6.33719 14.6463C6.97737 16.1467 8.1735 17.3433 9.67374 17.9838C9.75249 19.2835 10.8421 20.32 12.1609 20.32C13.4804 20.32 14.5659 19.2826 14.6434 17.9819C16.1437 17.3417 17.3406 16.1462 17.9809 14.6463C19.281 14.5675 20.3209 13.4788 20.3209 12.16C20.3209 10.8408 19.2804 9.75561 17.98 9.67754C17.34 8.17727 16.1437 6.98114 14.6436 6.34099C14.5655 5.04054 13.48 4 12.1609 4ZM12.1609 4.96C13.0116 4.96 13.6881 5.64023 13.6881 6.49093C13.6881 7.34162 13.0117 8.02185 12.1609 8.02185C11.3102 8.02185 10.63 7.34162 10.63 6.49093C10.63 5.64023 11.3102 4.96 12.1609 4.96ZM14.5019 7.32811C15.5876 7.85447 16.4644 8.73314 16.9909 9.81904C16.0307 10.1646 15.339 11.0845 15.339 12.16C15.339 13.2348 16.0297 14.1567 16.989 14.5037C16.463 15.5892 15.5863 16.4664 14.5009 16.9928C14.155 16.0332 13.236 15.3419 12.1609 15.3419C11.0861 15.3419 10.1642 16.0326 9.81719 16.9919C8.7317 16.4658 7.85526 15.5892 7.32907 14.5037C8.28829 14.1567 8.97907 13.2348 8.97907 12.16C8.97907 11.085 8.28787 10.165 7.32815 9.81908C7.85461 8.7341 8.73184 7.85783 9.81722 7.33189C10.1642 8.2911 11.0862 8.98189 12.161 8.98189C13.2371 8.98189 14.1567 8.28918 14.5019 7.32811ZM6.48825 10.6328C7.33895 10.6328 8.01825 11.3093 8.01825 12.16C8.01825 13.0107 7.33898 13.6909 6.48825 13.6909C5.63752 13.6909 4.96106 13.0107 4.96106 12.16C4.96106 11.3093 5.63752 10.6328 6.48825 10.6328ZM17.83 10.6328C18.6807 10.6328 19.3609 11.3093 19.3609 12.16C19.3609 13.0107 18.6807 13.6909 17.83 13.6909C16.9793 13.6909 16.299 13.0107 16.299 12.16C16.299 11.3093 16.9793 10.6328 17.83 10.6328ZM12.1612 16.302C13.0119 16.302 13.6884 16.9822 13.6884 17.8329C13.6884 18.6836 13.0119 19.3601 12.1612 19.3601C11.3104 19.3601 10.6302 18.6836 10.6302 17.8329C10.6302 16.9822 11.3105 16.302 12.1612 16.302Z" fill="#67738C"/>
<path fill-rule="evenodd" clip-rule="evenodd" d="M12.2003 3.80016C13.5667 3.81991 14.691 4.87136 14.833 6.20538C16.2918 6.86013 17.4608 8.02902 18.1155 9.48797C19.4622 9.63132 20.521 10.7757 20.521 12.1598C20.521 13.5432 19.463 14.6912 18.1164 14.8354C17.4614 16.294 16.2918 17.4624 14.8329 18.1171C14.69 19.4643 13.545 20.5198 12.161 20.5198C10.778 20.5198 9.62879 19.4656 9.48449 18.119C8.0255 17.4639 6.85656 16.2945 6.20178 14.8354C4.85531 14.6911 3.80005 13.5429 3.80005 12.1598C3.80005 10.7754 4.85713 9.63034 6.20467 9.48785C6.8593 8.02918 8.026 6.85939 9.48449 6.20438C9.62874 4.85767 10.7777 3.7998 12.161 3.7998H12.1994L12.2003 3.80016ZM9.67379 6.3398C8.17406 6.98012 6.98023 8.17718 6.34005 9.67731C5.03894 9.75446 4.00005 10.8401 4.00005 12.1598C4.00005 13.4786 5.03747 14.5673 6.33724 14.6461C6.97742 16.1465 8.17355 17.3431 9.67379 17.9836C9.75254 19.2833 10.8422 20.3198 12.161 20.3198C13.4804 20.3198 14.5659 19.2824 14.6435 17.9817C16.1437 17.3415 17.3407 16.146 17.981 14.6461C19.281 14.5674 20.321 13.4786 20.321 12.1598C20.321 10.8406 19.2805 9.75542 17.98 9.67735C17.34 8.17707 16.1437 6.98095 14.6436 6.3408C14.5656 5.04034 13.4802 3.99987 12.1611 3.99987L12.161 3.9998C10.8422 3.9998 9.75254 5.03976 9.67379 6.3398ZM14.4266 7.51371C14.0353 8.37701 13.1665 8.98169 12.161 8.98169C11.1569 8.98169 10.2861 8.37873 9.89303 7.51724C9.86537 7.45663 9.84008 7.39474 9.81727 7.33169C9.75676 7.36101 9.6969 7.39142 9.6377 7.4229C8.69438 7.9245 7.92164 8.69642 7.41953 9.63933C7.38801 9.69851 7.35756 9.75837 7.3282 9.81888C7.39129 9.84162 7.45322 9.86684 7.51386 9.89442C8.37581 10.2864 8.97912 11.1554 8.97912 12.1598C8.97912 13.1639 8.37616 14.0347 7.51467 14.4278C7.45406 14.4554 7.39217 14.4807 7.32912 14.5035C7.35845 14.5641 7.38888 14.6239 7.42036 14.6831C7.92219 15.6265 8.69431 16.3987 9.63768 16.9004C9.69686 16.9319 9.75673 16.9623 9.81724 16.9917C9.84005 16.9286 9.86534 16.8667 9.893 16.8061C10.2861 15.9446 11.1568 15.3417 12.161 15.3417C13.1653 15.3417 14.0335 15.9451 14.4254 16.8069C14.453 16.8676 14.4782 16.9295 14.501 16.9926C14.5615 16.9632 14.6214 16.9328 14.6805 16.9013C15.6238 16.3993 16.3961 15.6265 16.8979 14.6831C16.9293 14.6239 16.9598 14.564 16.9891 14.5035C16.926 14.4807 16.8641 14.4554 16.8035 14.4278C15.942 14.0346 15.3391 13.1639 15.3391 12.1598C15.3391 11.155 15.9428 10.286 16.8053 9.89429C16.8659 9.86674 16.9279 9.84155 16.991 9.81884C16.9616 9.75833 16.9312 9.69846 16.8997 9.63926C16.3976 8.69534 15.6252 7.9214 14.6815 7.41922C14.6224 7.38774 14.5626 7.35732 14.5021 7.328C14.502 7.32798 14.502 7.32796 14.5019 7.32794C14.5019 7.32793 14.5019 7.32793 14.5019 7.32792L14.5019 7.32795C14.4793 7.39107 14.4541 7.45303 14.4266 7.51371ZM14.6048 7.60499C14.1806 8.53205 13.2451 9.18169 12.161 9.18169C11.0785 9.18169 10.141 8.5339 9.71483 7.60844C8.81992 8.08853 8.08579 8.82186 7.60519 9.71627C8.53095 10.1413 9.17912 11.0769 9.17912 12.1598C9.17912 13.2423 8.53135 14.1798 7.6059 14.606C8.08624 15.501 8.81983 16.2346 9.71481 16.7149C10.1409 15.7894 11.0784 15.1417 12.161 15.1417C13.2439 15.1417 14.1787 15.79 14.6036 16.7156C15.4984 16.2351 16.2321 15.501 16.7123 14.6059C15.7868 14.1798 15.1391 13.2423 15.1391 12.1598C15.1391 11.0765 15.7877 10.1407 16.714 9.7161C16.2334 8.82071 15.4997 8.08558 14.6048 7.60499ZM13.4882 6.49073C13.4882 5.74985 12.9006 5.1598 12.161 5.1598C11.4207 5.1598 10.83 5.75049 10.83 6.49073C10.83 7.23097 11.4207 7.82166 12.161 7.82166C12.9006 7.82166 13.4882 7.23161 13.4882 6.49073ZM7.8183 12.1598C7.8183 11.42 7.22902 10.8326 6.4883 10.8326C5.74803 10.8326 5.16111 11.4196 5.16111 12.1598C5.16111 12.9007 5.74867 13.4907 6.4883 13.4907C7.22842 13.4907 7.8183 12.9002 7.8183 12.1598ZM19.1609 12.1598C19.1609 11.4202 18.5709 10.8326 17.83 10.8326C17.0891 10.8326 16.4991 11.4202 16.4991 12.1598C16.4991 12.9 17.0898 13.4907 17.83 13.4907C18.5703 13.4907 19.1609 12.9001 19.1609 12.1598ZM13.4884 17.8327C13.4884 17.0918 12.9008 16.5018 12.1612 16.5018C11.421 16.5018 10.8303 17.0924 10.8303 17.8327C10.8303 18.5723 11.4203 19.1599 12.1612 19.1599C12.9015 19.1599 13.4884 18.5729 13.4884 17.8327ZM13.6882 6.49073C13.6882 5.64003 13.0117 4.9598 12.161 4.9598C11.3103 4.9598 10.63 5.64003 10.63 6.49073C10.63 7.34143 11.3102 8.02166 12.161 8.02166C13.0117 8.02166 13.6882 7.34143 13.6882 6.49073ZM8.0183 12.1598C8.0183 11.3091 7.339 10.6326 6.4883 10.6326C5.63757 10.6326 4.96111 11.3091 4.96111 12.1598C4.96111 13.0105 5.63757 13.6907 6.4883 13.6907C7.33903 13.6907 8.0183 13.0105 8.0183 12.1598ZM19.3609 12.1598C19.3609 11.3091 18.6807 10.6326 17.83 10.6326C16.9793 10.6326 16.2991 11.3091 16.2991 12.1598C16.2991 13.0105 16.9793 13.6907 17.83 13.6907C18.6807 13.6907 19.3609 13.0105 19.3609 12.1598ZM13.6884 17.8327C13.6884 16.982 13.0119 16.3018 12.1612 16.3018C11.3105 16.3018 10.6303 16.982 10.6303 17.8327C10.6303 18.6834 11.3105 19.3599 12.1612 19.3599C13.0119 19.3599 13.6884 18.6834 13.6884 17.8327Z" fill="#67738C"/>
</svg>
