<svg width="24" height="24" viewBox="0 0 24 24" fill="none" xmlns="http://www.w3.org/2000/svg">
<path d="M19.1429 6.05078V11.5115C19.1429 12.5674 19.1429 13.0953 18.9591 13.4939C18.7822 13.8775 18.5669 14.1229 18.2096 14.3482C17.8383 14.5823 17.2079 14.665 15.9472 14.8303C14.8218 14.9779 13.8432 15.3089 12.6429 16.0508C11.4427 15.3089 10.464 14.9779 9.33871 14.8303C8.07798 14.665 7.44761 14.5823 7.07629 14.3482C6.71901 14.1229 6.50366 13.8775 6.32678 13.4939C6.14294 13.0953 6.14294 12.5674 6.14294 11.5115V6.05078C9.03183 6.05078 10.4763 6.05078 12.6429 7.39007C14.8096 6.05078 16.2541 6.05078 19.1429 6.05078Z" fill="#EEF1F6"/>
<path fill-rule="evenodd" clip-rule="evenodd" d="M9.58817 5.19466C10.613 5.37433 11.55 5.71558 12.5968 6.33564C13.6435 5.71558 14.5805 5.37433 15.6053 5.19466C16.7159 4.99995 17.9135 4.99997 19.3915 5H19.3915H19.4435C19.8577 5 20.1935 5.33579 20.1935 5.75V12.0376V12.0655C20.1935 12.5732 20.1935 12.9951 20.1681 13.3388C20.1418 13.6951 20.085 14.0311 19.9367 14.3497C19.6967 14.8652 19.3745 15.2282 18.891 15.5275C18.5814 15.7192 18.2192 15.816 17.8349 15.887C17.452 15.9578 16.964 16.016 16.3617 16.0878L16.3357 16.0909C15.1946 16.227 14.2342 16.5437 13.0023 17.3357C12.7553 17.4945 12.4382 17.4945 12.1912 17.3357C10.9593 16.5437 9.99893 16.227 8.85783 16.0909L8.83181 16.0878L8.83176 16.0878C8.2295 16.016 7.74152 15.9578 7.35859 15.887C6.97425 15.816 6.6121 15.7192 6.30247 15.5275C5.81902 15.2282 5.49677 14.8652 5.25684 14.3497C5.10854 14.0311 5.05173 13.6951 5.02539 13.3388C4.99999 12.9951 4.99999 12.5732 5 12.0655V12.0655V12.0376V5.75C5 5.55109 5.07902 5.36032 5.21967 5.21967C5.36032 5.07902 5.55109 5 5.75 5H5.80202H5.80204C7.27999 4.99998 8.4776 4.99995 9.58817 5.19466ZM9.32914 6.67213C10.1631 6.81833 10.9346 7.09247 11.8468 7.63478V15.4173C10.9039 14.9567 10.0207 14.7189 9.03546 14.6014C8.40104 14.5258 7.96106 14.4729 7.63107 14.412C7.29697 14.3503 7.15877 14.2934 7.09203 14.2521C6.85726 14.1068 6.73326 13.9671 6.61674 13.7168C6.57825 13.6341 6.54167 13.5037 6.52131 13.2282C6.50048 12.9464 6.5 12.5803 6.5 12.0376V6.50103C7.65338 6.50568 8.52602 6.53132 9.32914 6.67213ZM16.158 14.6014C15.1728 14.7189 14.2896 14.9567 13.3468 15.4173V7.63478C14.2589 7.09247 15.0304 6.81833 15.8644 6.67213C16.6675 6.53132 17.5401 6.50568 18.6935 6.50103V12.0376C18.6935 12.5803 18.693 12.9464 18.6722 13.2282C18.6518 13.5037 18.6152 13.6341 18.5768 13.7168C18.4602 13.9671 18.3362 14.1068 18.1015 14.2521C18.0347 14.2934 17.8965 14.3503 17.5624 14.412C17.2324 14.4729 16.7925 14.5258 16.158 14.6014ZM6.43459 16.9818C6.02037 16.9818 5.68459 17.3176 5.68459 17.7318C5.68459 18.146 6.02037 18.4818 6.43459 18.4818C7.7777 18.4818 8.72782 18.5667 9.57504 18.7977C10.4144 19.0266 11.1959 19.411 12.1806 20.0675C12.4326 20.2355 12.7608 20.2355 13.0127 20.0675C13.9974 19.411 14.779 19.0266 15.6183 18.7977C16.4655 18.5667 17.4156 18.4818 18.7587 18.4818C19.1729 18.4818 19.5087 18.146 19.5087 17.7318C19.5087 17.3176 19.1729 16.9818 18.7587 16.9818C17.3632 16.9818 16.2592 17.0681 15.2236 17.3506C14.3176 17.5977 13.497 17.9856 12.5967 18.5501C11.6963 17.9856 10.8757 17.5977 9.96971 17.3506C8.93408 17.0681 7.83017 16.9818 6.43459 16.9818Z" fill="#67738C"/>
</svg>
