<svg width="24" height="24" viewBox="0 0 24 24" fill="none" xmlns="http://www.w3.org/2000/svg">
<path fill-rule="evenodd" clip-rule="evenodd" d="M14.8418 3.71271L10.0411 7.07321L10.0411 14.9419L14.8418 18.3024C16.4713 19.443 17.2861 20.0134 17.9643 19.9837C18.5549 19.9578 19.1038 19.6721 19.4636 19.2031C19.8769 18.6645 19.8769 17.6699 19.8769 15.6808L19.8769 6.33425C19.8769 4.34515 19.8769 3.3506 19.4636 2.81201C19.1038 2.343 18.5549 2.05722 17.9643 2.03138C17.2861 2.0017 16.4713 2.57204 14.8418 3.71271ZM9.05747 14.9422L6.10673 14.9422L6.10673 19.3683C6.10673 20.1831 6.76728 20.8437 7.5821 20.8437C8.39693 20.8437 9.05747 20.1831 9.05747 19.3683L9.05747 14.9422Z" fill="#EEF1F6"/>
<path d="M2.50003 10.9998C2.90005 6.59984 7.33337 6.83318 9.50003 7.49985L10 7.99985V14.4998C7.33335 15.1665 2.10001 15.3998 2.50003 10.9998Z" fill="#EEF1F6"/>
<path fill-rule="evenodd" clip-rule="evenodd" d="M14.7775 5.07615C15.6045 4.49726 16.1825 4.09359 16.6378 3.83324C17.1009 3.56836 17.3187 3.5245 17.4371 3.52968C17.8063 3.54583 18.1493 3.72445 18.3742 4.01757C18.4464 4.11165 18.5354 4.31522 18.584 4.84654C18.6317 5.36881 18.6325 6.0738 18.6325 7.08327L18.6325 14.9873C18.6325 15.9967 18.6317 16.7017 18.584 17.224C18.5354 17.7553 18.4464 17.9589 18.3742 18.053C18.1493 18.3461 17.8063 18.5247 17.4371 18.5408C17.3187 18.546 17.1009 18.5022 16.6378 18.2373C16.1825 17.9769 15.6045 17.5733 14.7775 16.9944L10.9542 14.3181L10.9542 7.75247L14.7775 5.07615ZM9.96567 6.61346L13.9173 3.84731L13.9491 3.82505C14.7369 3.27359 15.371 2.82968 15.8931 2.53113C16.4143 2.23308 16.943 2.00662 17.5027 2.03111C18.3148 2.06665 19.0695 2.4596 19.5643 3.10448C19.9054 3.549 20.023 4.11201 20.0777 4.70988C20.1325 5.30877 20.1325 6.08284 20.1325 7.04445L20.1325 7.08327L20.1325 7.61126C21.7086 7.9537 22.8891 9.35669 22.8891 11.0354C22.8891 12.7141 21.7086 14.1171 20.1325 14.4595L20.1325 14.9873L20.1325 15.0261C20.1325 15.9877 20.1325 16.7618 20.0777 17.3606C20.023 17.9585 19.9054 18.5215 19.5643 18.966C19.0695 19.6109 18.3148 20.0039 17.5027 20.0394C16.943 20.0639 16.4143 19.8374 15.8931 19.5394C15.3711 19.2409 14.737 18.797 13.9494 18.2457L13.9493 18.2456L13.9492 18.2455L13.9491 18.2455L13.9173 18.2232L10.0372 15.5072L10.0372 18.8387C10.0372 20.0134 9.08493 20.9657 7.91022 20.9657C6.7355 20.9657 5.78321 20.0134 5.78321 18.8387L5.78321 15.3944C3.69769 15.0386 2.11015 13.2224 2.11015 11.0355C2.11015 8.59327 4.08996 6.61346 6.53218 6.61346L9.96567 6.61346ZM9.45242 8.11346L6.53218 8.11346C4.91839 8.11346 3.61015 9.4217 3.61015 11.0355C3.61015 12.6493 4.91839 13.9575 6.53218 13.9575L9.45242 13.9575L9.45242 8.11346ZM7.28321 15.4577L7.28321 18.8387C7.28321 19.185 7.56393 19.4657 7.91022 19.4657C8.25651 19.4657 8.53723 19.185 8.53723 18.8387L8.53723 15.4577L7.28321 15.4577ZM21.3891 11.0354C21.3891 11.877 20.8703 12.5974 20.1351 12.8944L20.1351 9.17643C20.8703 9.47334 21.3891 10.1938 21.3891 11.0354Z" fill="#67738C"/>
</svg>
