<svg width="20" height="21" viewBox="0 0 20 21" fill="none" xmlns="http://www.w3.org/2000/svg">
<path d="M8 3.5L6 5L4.5 5.5L3 7L3.5 9.5L3 11.5L3.5 14L4.5 17L7 17.5L10 16L13.5 17.5L16 16.5V14L17 13L16.5 10L17 7L16 5.5L13.5 5L13 4L11.5 3.5L10 4.5L8 3.5Z" fill="#EEF1F6"/>
<path d="M6.18212 11.1357C5.33817 11.1357 4.52878 10.8005 3.93202 10.2037C3.33526 9.60695 3 8.79757 3 7.95362C3 7.10966 3.33526 6.30028 3.93202 5.70352C4.52878 5.10675 5.33817 4.7715 6.18212 4.7715C6.22094 4.7715 6.25722 4.78168 6.2954 4.78295C6.44258 4.35686 6.7361 3.99677 7.12377 3.76672C7.51144 3.53666 7.96815 3.45156 8.41266 3.52654C8.85718 3.60151 9.26069 3.83171 9.55146 4.1762C9.84223 4.52068 10.0014 4.95713 10.0007 5.40792V6.04434C10.0007 6.55071 9.79951 7.03634 9.44145 7.3944C9.08339 7.75246 8.59776 7.95362 8.09139 7.95362H7.45497" stroke="#67738C" stroke-width="1.5" stroke-linecap="round" stroke-linejoin="round"/>
<path d="M16.2644 13.562C16.3284 13.809 16.3622 14.0629 16.365 14.3181C16.365 15.162 16.0297 15.9714 15.4329 16.5682C14.8362 17.1649 14.0268 17.5002 13.1828 17.5002C12.3389 17.5002 11.5295 17.1649 10.9327 16.5682C10.336 15.9714 10.0007 15.162 10.0007 14.3181C10.0007 15.162 9.66546 15.9714 9.06869 16.5682C8.47193 17.1649 7.66254 17.5002 6.81859 17.5002C5.97464 17.5002 5.16526 17.1649 4.5685 16.5682C3.97173 15.9714 3.63647 15.162 3.63647 14.3181C3.63923 14.0629 3.67299 13.809 3.73703 13.562" stroke="#67738C" stroke-width="1.5" stroke-linecap="round" stroke-linejoin="round"/>
<path d="M3.74843 9.98145C3.5113 10.2155 3.32303 10.4944 3.19455 10.8018C3.06607 11.1092 2.99994 11.4391 3 11.7723C3 12.4475 3.26821 13.095 3.74562 13.5724C4.22303 14.0498 4.87054 14.318 5.5457 14.318H6.18212" stroke="#67738C" stroke-width="1.5" stroke-linecap="round" stroke-linejoin="round"/>
<path d="M6.81855 8.59023C7.17004 8.59023 7.45498 8.30529 7.45498 7.95381C7.45498 7.60232 7.17004 7.31738 6.81855 7.31738C6.46707 7.31738 6.18213 7.60232 6.18213 7.95381C6.18213 8.30529 6.46707 8.59023 6.81855 8.59023Z" fill="#5E656E" stroke="#67738C" stroke-width="1.5" stroke-linecap="round" stroke-linejoin="round"/>
<path d="M6.81855 14.9545C7.17004 14.9545 7.45498 14.6696 7.45498 14.3181C7.45498 13.9666 7.17004 13.6816 6.81855 13.6816C6.46707 13.6816 6.18213 13.9666 6.18213 14.3181C6.18213 14.6696 6.46707 14.9545 6.81855 14.9545Z" fill="#5E656E" stroke="#67738C" stroke-width="1.5" stroke-linecap="round" stroke-linejoin="round"/>
<path d="M16.253 9.98145C16.4902 10.2155 16.6784 10.4944 16.8069 10.8018C16.9354 11.1092 17.0015 11.4391 17.0015 11.7723C17.0015 12.4475 16.7332 13.095 16.2558 13.5724C15.7784 14.0498 15.1309 14.318 14.4558 14.318H13.8193" stroke="#67738C" stroke-width="1.5" stroke-linecap="round" stroke-linejoin="round"/>
<path d="M10.0007 14.3182V11.7725" stroke="#67738C" stroke-width="1.5" stroke-linecap="round" stroke-linejoin="round"/>
<path d="M13.1828 14.9545C13.5343 14.9545 13.8192 14.6696 13.8192 14.3181C13.8192 13.9666 13.5343 13.6816 13.1828 13.6816C12.8313 13.6816 12.5464 13.9666 12.5464 14.3181C12.5464 14.6696 12.8313 14.9545 13.1828 14.9545Z" fill="#67738C" stroke="#67738C" stroke-width="1.5" stroke-linecap="round" stroke-linejoin="round"/>
<path d="M13.8193 11.1357C14.6632 11.1357 15.4726 10.8005 16.0694 10.2037C16.6661 9.60695 17.0014 8.79757 17.0014 7.95362C17.0014 7.10966 16.6661 6.30028 16.0694 5.70352C15.4726 5.10675 14.6632 4.7715 13.8193 4.7715C13.7805 4.7715 13.7442 4.78168 13.706 4.78295C13.5588 4.35686 13.2653 3.99677 12.8776 3.76672C12.49 3.53666 12.0333 3.45156 11.5887 3.52654C11.1442 3.60151 10.7407 3.83171 10.4499 4.1762C10.1592 4.52068 10 4.95713 10.0007 5.40792V6.04434C10.0007 6.55071 10.2019 7.03634 10.5599 7.3944C10.918 7.75246 11.4036 7.95362 11.91 7.95362H12.5464" stroke="#67738C" stroke-width="1.5" stroke-linecap="round" stroke-linejoin="round"/>
<path d="M13.1828 8.59023C13.5343 8.59023 13.8192 8.30529 13.8192 7.95381C13.8192 7.60232 13.5343 7.31738 13.1828 7.31738C12.8313 7.31738 12.5464 7.60232 12.5464 7.95381C12.5464 8.30529 12.8313 8.59023 13.1828 8.59023Z" fill="#67738C" stroke="#67738C" stroke-width="1.5" stroke-linecap="round" stroke-linejoin="round"/>
<path d="M10.0007 11.7724C10.3522 11.7724 10.6371 11.4874 10.6371 11.1359C10.6371 10.7844 10.3522 10.4995 10.0007 10.4995C9.64919 10.4995 9.36426 10.7844 9.36426 11.1359C9.36426 11.4874 9.64919 11.7724 10.0007 11.7724Z" fill="#67738C" stroke="#67738C" stroke-width="1.5" stroke-linecap="round" stroke-linejoin="round"/>
</svg>
