<svg width="24" height="24" viewBox="0 0 24 24" fill="none" xmlns="http://www.w3.org/2000/svg">
<path d="M4 7.31034C4 5.48209 5.48209 4 7.31034 4H16.6897C18.5179 4 20 5.48209 20 7.31034V16.6897C20 18.5179 18.5179 20 16.6897 20H7.31034C5.48209 20 4 18.5179 4 16.6897V7.31034Z" fill="#EEF1F6"/>
<path d="M7.31034 4.75H16.6897V3.25H7.31034V4.75ZM19.25 7.31034V16.6897H20.75V7.31034H19.25ZM16.6897 19.25H7.31034V20.75H16.6897V19.25ZM4.75 16.6897V7.31034H3.25V16.6897H4.75ZM7.31034 19.25C5.89631 19.25 4.75 18.1037 4.75 16.6897H3.25C3.25 18.9321 5.06788 20.75 7.31034 20.75V19.25ZM19.25 16.6897C19.25 18.1037 18.1037 19.25 16.6897 19.25V20.75C18.9321 20.75 20.75 18.9321 20.75 16.6897H19.25ZM16.6897 4.75C18.1037 4.75 19.25 5.89631 19.25 7.31034H20.75C20.75 5.06788 18.9321 3.25 16.6897 3.25V4.75ZM7.31034 3.25C5.06788 3.25 3.25 5.06788 3.25 7.31034H4.75C4.75 5.89631 5.89631 4.75 7.31034 4.75V3.25Z" fill="#67738C"/>
<path d="M13.25 7.75H10.75V10.75H7.75V13.25H10.75V16.25H13.25V13.25H16.25V10.75H13.25V7.75Z" fill="#EEF1F6"/>
<path d="M10.75 7.75V7C10.3358 7 10 7.33579 10 7.75H10.75ZM13.25 7.75H14C14 7.33579 13.6642 7 13.25 7V7.75ZM10.75 10.75V11.5C11.1642 11.5 11.5 11.1642 11.5 10.75H10.75ZM7.75 10.75V10C7.33579 10 7 10.3358 7 10.75H7.75ZM7.75 13.25H7C7 13.6642 7.33579 14 7.75 14V13.25ZM10.75 13.25H11.5C11.5 12.8358 11.1642 12.5 10.75 12.5V13.25ZM10.75 16.25H10C10 16.6642 10.3358 17 10.75 17V16.25ZM13.25 16.25V17C13.6642 17 14 16.6642 14 16.25H13.25ZM13.25 13.25V12.5C12.8358 12.5 12.5 12.8358 12.5 13.25H13.25ZM16.25 13.25V14C16.6642 14 17 13.6642 17 13.25H16.25ZM16.25 10.75H17C17 10.3358 16.6642 10 16.25 10V10.75ZM13.25 10.75H12.5C12.5 11.1642 12.8358 11.5 13.25 11.5V10.75ZM10.75 8.5H13.25V7H10.75V8.5ZM11.5 10.75V7.75H10V10.75H11.5ZM7.75 11.5H10.75V10H7.75V11.5ZM8.5 13.25V10.75H7V13.25H8.5ZM10.75 12.5H7.75V14H10.75V12.5ZM11.5 16.25V13.25H10V16.25H11.5ZM13.25 15.5H10.75V17H13.25V15.5ZM12.5 13.25V16.25H14V13.25H12.5ZM16.25 12.5H13.25V14H16.25V12.5ZM15.5 10.75V13.25H17V10.75H15.5ZM13.25 11.5H16.25V10H13.25V11.5ZM12.5 7.75V10.75H14V7.75H12.5Z" fill="#67738C"/>
</svg>
