<svg width="24" height="24" viewBox="0 0 24 24" fill="none" xmlns="http://www.w3.org/2000/svg">
<g clip-path="url(#clip0_228_78259)">
<path d="M8.4 5.33331C8.25333 5.33331 8.18 5.33331 8.11269 5.35254C8.05308 5.36956 7.99715 5.39752 7.94776 5.435C7.892 5.47731 7.848 5.53598 7.76 5.65331L6.16 7.78665C6.10063 7.8658 6.07095 7.90538 6.04987 7.94896C6.03117 7.98763 6.01753 8.02856 6.00929 8.07072C6 8.11823 6 8.1677 6 8.26665V17.3333C6 17.6869 6.14048 18.0261 6.39052 18.2761C6.64057 18.5262 6.97971 18.6666 7.33333 18.6666H16.6667C17.0203 18.6666 17.3594 18.5262 17.6095 18.2761C17.8595 18.0261 18 17.6869 18 17.3333V8.26665C18 8.1677 18 8.11823 17.9907 8.07072C17.9825 8.02856 17.9688 7.98763 17.9501 7.94896C17.929 7.90538 17.8994 7.8658 17.84 7.78665L16.24 5.65331C16.152 5.53598 16.108 5.47731 16.0522 5.435C16.0028 5.39752 15.9469 5.36956 15.8873 5.35254C15.82 5.33331 15.7467 5.33331 15.6 5.33331H8.4Z" fill="#E0EBFF" stroke="#0A5CFF" stroke-width="1.5" stroke-linecap="round"/>
<path d="M6 8H18" stroke="#0A5CFF" stroke-width="1.5" stroke-linecap="round"/>
<path d="M14.6668 10.6667C14.6668 11.3739 14.3859 12.0522 13.8858 12.5523C13.3857 13.0524 12.7074 13.3334 12.0002 13.3334C11.2929 13.3334 10.6146 13.0524 10.1145 12.5523C9.61445 12.0522 9.3335 11.3739 9.3335 10.6667" fill="#E0EBFF"/>
<path d="M14.6668 10.6667C14.6668 11.3739 14.3859 12.0522 13.8858 12.5523C13.3857 13.0524 12.7074 13.3334 12.0002 13.3334C11.2929 13.3334 10.6146 13.0524 10.1145 12.5523C9.61445 12.0522 9.3335 11.3739 9.3335 10.6667" stroke="#0A5CFF" stroke-width="1.5" stroke-linecap="round"/>
</g>
<defs>
<clipPath id="clip0_228_78259">
<rect width="24" height="24" fill="white"/>
</clipPath>
</defs>
</svg>
