<svg width="24" height="24" viewBox="0 0 24 24" fill="none" xmlns="http://www.w3.org/2000/svg">
<path d="M18.2502 17.25H5.75C5.19772 17.25 4.75 16.8023 4.75 16.25V12.75C4.75 11.6454 5.64543 10.75 6.75 10.75H17.2502C18.3548 10.75 19.2502 11.6454 19.2502 12.75V16.25C19.2502 16.8023 18.8025 17.25 18.2502 17.25Z" fill="#EEF1F6"/>
<path d="M5.75 18H18.2502V16.5H5.75V18ZM4 12.75V16.25H5.5V12.75H4ZM17.2502 10H6.75V11.5H17.2502V10ZM18.5002 12.75V16.25H20.0002V12.75H18.5002ZM17.2502 11.5C17.9406 11.5 18.5002 12.0596 18.5002 12.75H20.0002C20.0002 11.2312 18.769 10 17.2502 10V11.5ZM5.5 12.75C5.5 12.0596 6.05964 11.5 6.75 11.5V10C5.23122 10 4 11.2312 4 12.75H5.5ZM18.2502 18C19.2167 18 20.0002 17.2165 20.0002 16.25H18.5002C18.5002 16.3881 18.3883 16.5 18.2502 16.5V18ZM5.75 16.5C5.61193 16.5 5.5 16.3881 5.5 16.25H4C4 17.2165 4.7835 18 5.75 18V16.5Z" fill="#67738C"/>
<path d="M8.5 14C8.5 14.2761 8.27614 14.5 8 14.5C7.72386 14.5 7.5 14.2761 7.5 14C7.5 13.7239 7.72386 13.5 8 13.5C8.27614 13.5 8.5 13.7239 8.5 14Z" fill="#67738C"/>
<path d="M8 14V15C8.55228 15 9 14.5523 9 14H8ZM8 14H7C7 14.5523 7.44772 15 8 15V14ZM8 14V13C7.44772 13 7 13.4477 7 14H8ZM8 14H9C9 13.4477 8.55228 13 8 13V14Z" fill="#67738C"/>
<path d="M16.5 14C16.5 14.2761 16.2761 14.5 16 14.5C15.7239 14.5 15.5 14.2761 15.5 14C15.5 13.7239 15.7239 13.5 16 13.5C16.2761 13.5 16.5 13.7239 16.5 14Z" fill="#67738C"/>
<path d="M16 14V15C16.5523 15 17 14.5523 17 14H16ZM16 14H15C15 14.5523 15.4477 15 16 15V14ZM16 14V13C15.4477 13 15 13.4477 15 14H16ZM16 14H17C17 13.4477 16.5523 13 16 13V14Z" fill="#67738C"/>
<path d="M18.095 9.81848C18.1484 10.139 18.1751 10.2992 18.1287 10.4241C18.088 10.5337 18.0102 10.6255 17.9088 10.6837C17.7932 10.75 17.6308 10.75 17.3059 10.75H6.69437C6.36946 10.75 6.20701 10.75 6.09145 10.6837C5.99004 10.6255 5.91222 10.5337 5.87152 10.4241C5.82513 10.2992 5.85184 10.139 5.90525 9.81848L6.47147 6.4212C6.6322 5.45683 7.46657 4.75 8.44425 4.75H15.556C16.5337 4.75 17.368 5.45683 17.5288 6.4212L18.095 9.81848Z" fill="#EEF1F6"/>
<path d="M6.47147 6.4212L5.73167 6.2979H5.73167L6.47147 6.4212ZM17.5288 6.4212L18.2686 6.2979V6.2979L17.5288 6.4212ZM17.9088 10.6837L17.5356 10.0331L17.9088 10.6837ZM18.095 9.81848L18.8348 9.69518L18.095 9.81848ZM18.1287 10.4241L18.8318 10.6852L18.1287 10.4241ZM6.09145 10.6837L6.46462 10.0331L6.09145 10.6837ZM5.87152 10.4241L6.57459 10.163L5.87152 10.4241ZM6.69437 11.5H17.3059V10H6.69437V11.5ZM5.73167 6.2979L5.16546 9.69518L6.64505 9.94178L7.21126 6.5445L5.73167 6.2979ZM15.556 4H8.44425V5.5H15.556V4ZM16.789 6.5445L17.3552 9.94178L18.8348 9.69518L18.2686 6.2979L16.789 6.5445ZM15.556 5.5C16.167 5.5 16.6885 5.94177 16.789 6.5445L18.2686 6.2979C18.0476 4.97189 16.9003 4 15.556 4V5.5ZM7.21126 6.5445C7.31172 5.94177 7.8332 5.5 8.44425 5.5V4C7.09994 4 5.95267 4.97189 5.73167 6.2979L7.21126 6.5445ZM17.3059 11.5C17.455 11.5 17.615 11.5007 17.7505 11.4889C17.8931 11.4766 18.0876 11.4458 18.282 11.3343L17.5356 10.0331C17.6144 9.98793 17.6699 9.99029 17.6211 9.99451C17.5985 9.99647 17.5639 9.99815 17.5085 9.99907C17.4532 9.99998 17.3889 10 17.3059 10V11.5ZM17.3552 9.94178C17.3688 10.0237 17.3794 10.0872 17.3876 10.1418C17.3958 10.1966 17.3998 10.231 17.4016 10.2536C17.4054 10.3024 17.394 10.2481 17.4256 10.163L18.8318 10.6852C18.9098 10.4752 18.9082 10.2783 18.8969 10.1356C18.8862 9.99996 18.8593 9.84226 18.8348 9.69518L17.3552 9.94178ZM18.282 11.3343C18.5355 11.1889 18.73 10.9592 18.8318 10.6852L17.4256 10.163C17.446 10.1082 17.4849 10.0622 17.5356 10.0331L18.282 11.3343ZM6.69437 10C6.61133 10 6.54699 9.99998 6.49173 9.99907C6.43634 9.99815 6.40175 9.99647 6.37912 9.99451C6.33035 9.99029 6.3858 9.98793 6.46462 10.0331L5.71828 11.3343C5.91266 11.4458 6.10711 11.4766 6.24969 11.4889C6.38528 11.5007 6.54527 11.5 6.69437 11.5V10ZM5.16546 9.69518C5.14095 9.84226 5.11399 9.99996 5.10329 10.1356C5.09203 10.2783 5.09042 10.4752 5.16845 10.6852L6.57459 10.163C6.60623 10.2481 6.59478 10.3024 6.59864 10.2536C6.60042 10.231 6.60445 10.1966 6.61266 10.1418C6.62084 10.0872 6.6314 10.0237 6.64505 9.94178L5.16546 9.69518ZM6.46462 10.0331C6.51532 10.0622 6.55423 10.1082 6.57459 10.163L5.16845 10.6852C5.27021 10.9592 5.46476 11.1889 5.71828 11.3343L6.46462 10.0331Z" fill="#67738C"/>
<path d="M7.5 17.75C7.5 17.3358 7.16421 17 6.75 17C6.33579 17 6 17.3358 6 17.75H7.5ZM6 19.25C6 19.6642 6.33579 20 6.75 20C7.16421 20 7.5 19.6642 7.5 19.25H6ZM6 17.75V19.25H7.5V17.75H6Z" fill="#67738C"/>
<path d="M18 17.75C18 17.3358 17.6642 17 17.25 17C16.8358 17 16.5 17.3358 16.5 17.75H18ZM16.5 19.25C16.5 19.6642 16.8358 20 17.25 20C17.6642 20 18 19.6642 18 19.25H16.5ZM16.5 17.75V19.25H18V17.75H16.5Z" fill="#67738C"/>
</svg>
