<svg width="24" height="24" viewBox="0 0 24 24" fill="none" xmlns="http://www.w3.org/2000/svg">
<g clip-path="url(#clip0_228_78350)">
<path d="M11.3028 4.85267L4.58118 16.7988C4.46365 17.0077 4.40488 17.1121 4.39614 17.2217C4.38866 17.3155 4.41027 17.4175 4.45519 17.5002C4.50767 17.5968 4.60003 17.6656 4.78475 17.8032C10.8945 22.3552 16.6872 19.9348 19.2846 17.7986C19.4411 17.6699 19.5193 17.6055 19.5668 17.5106C19.6065 17.4313 19.6258 17.3281 19.6175 17.2399C19.6075 17.1342 19.5533 17.0379 19.445 16.8453L12.6972 4.85267C12.4692 4.44742 12.3552 4.2448 12.2054 4.1773C12.0748 4.11846 11.9252 4.11846 11.7946 4.1773C11.6448 4.2448 11.5308 4.44742 11.3028 4.85267Z" fill="#EEF1F6" stroke="#67738C" stroke-width="1.5" stroke-linecap="round"/>
<path d="M5.34375 15.1135C7.70535 17.0595 13.6737 19.7838 18.6546 15.1135" stroke="#67738C" stroke-width="1.5"/>
<path d="M11.4492 11.4133C11.4492 11.6895 11.2254 11.9133 10.9492 11.9133C10.6731 11.9133 10.4492 11.6895 10.4492 11.4133C10.4492 11.1372 10.6731 10.9133 10.9492 10.9133C11.2254 10.9133 11.4492 11.1372 11.4492 11.4133Z" fill="#67738C"/>
<path d="M10.8492 11.4133C10.8492 11.3581 10.894 11.3133 10.9492 11.3133V12.5133C11.5567 12.5133 12.0492 12.0208 12.0492 11.4133H10.8492ZM10.9492 11.3133C11.0044 11.3133 11.0492 11.3581 11.0492 11.4133H9.84922C9.84922 12.0208 10.3417 12.5133 10.9492 12.5133V11.3133ZM11.0492 11.4133C11.0492 11.4686 11.0044 11.5133 10.9492 11.5133V10.3133C10.3417 10.3133 9.84922 10.8058 9.84922 11.4133H11.0492ZM10.9492 11.5133C10.894 11.5133 10.8492 11.4686 10.8492 11.4133H12.0492C12.0492 10.8058 11.5567 10.3133 10.9492 10.3133V11.5133Z" fill="#67738C"/>
<path d="M14.5508 14.1135C14.5508 14.3897 14.3269 14.6135 14.0508 14.6135C13.7746 14.6135 13.5508 14.3897 13.5508 14.1135C13.5508 13.8374 13.7746 13.6135 14.0508 13.6135C14.3269 13.6135 14.5508 13.8374 14.5508 14.1135Z" fill="#67738C"/>
<path d="M13.9508 14.1135C13.9508 14.0583 13.9956 14.0135 14.0508 14.0135V15.2135C14.6583 15.2135 15.1508 14.721 15.1508 14.1135H13.9508ZM14.0508 14.0135C14.106 14.0135 14.1508 14.0583 14.1508 14.1135H12.9508C12.9508 14.721 13.4433 15.2135 14.0508 15.2135V14.0135ZM14.1508 14.1135C14.1508 14.1688 14.106 14.2135 14.0508 14.2135V13.0135C13.4433 13.0135 12.9508 13.506 12.9508 14.1135H14.1508ZM14.0508 14.2135C13.9956 14.2135 13.9508 14.1688 13.9508 14.1135H15.1508C15.1508 13.506 14.6583 13.0135 14.0508 13.0135V14.2135Z" fill="#67738C"/>
</g>
<defs>
<clipPath id="clip0_228_78350">
<rect width="24" height="24" fill="white"/>
</clipPath>
</defs>
</svg>
