<svg width="24" height="25" viewBox="0 0 24 25" fill="none" xmlns="http://www.w3.org/2000/svg">
<path d="M19.25 12.5C19.25 16.5041 16.0041 19.75 12 19.75C7.99594 19.75 4.75 16.5041 4.75 12.5C4.75 8.49594 7.99594 5.25 12 5.25C16.0041 5.25 19.25 8.49594 19.25 12.5Z" fill="#EEF1F6"/>
<path d="M18.5 12.5C18.5 16.0899 15.5899 19 12 19V20.5C16.4183 20.5 20 16.9183 20 12.5H18.5ZM12 19C8.41015 19 5.5 16.0899 5.5 12.5H4C4 16.9183 7.58172 20.5 12 20.5V19ZM5.5 12.5C5.5 8.91015 8.41015 6 12 6V4.5C7.58172 4.5 4 8.08172 4 12.5H5.5ZM12 6C15.5899 6 18.5 8.91015 18.5 12.5H20C20 8.08172 16.4183 4.5 12 4.5V6Z" fill="#67738C"/>
<path d="M14.25 10C14.6642 10 15 9.66421 15 9.25C15 8.83579 14.6642 8.5 14.25 8.5V10ZM9.75 15C9.33579 15 9 15.3358 9 15.75C9 16.1642 9.33579 16.5 9.75 16.5V15ZM14.25 8.5H11.375V10H14.25V8.5ZM11.375 13.25H12.625V11.75H11.375V13.25ZM12.625 15H9.75V16.5H12.625V15ZM13.5 14.125C13.5 14.6082 13.1082 15 12.625 15V16.5C13.9367 16.5 15 15.4367 15 14.125H13.5ZM12.625 13.25C13.1082 13.25 13.5 13.6418 13.5 14.125H15C15 12.8133 13.9367 11.75 12.625 11.75V13.25ZM9 10.875C9 12.1867 10.0633 13.25 11.375 13.25V11.75C10.8918 11.75 10.5 11.3582 10.5 10.875H9ZM11.375 8.5C10.0633 8.5 9 9.56332 9 10.875H10.5C10.5 10.3918 10.8918 10 11.375 10V8.5Z" fill="#67738C"/>
<path d="M12.75 8.25C12.75 7.83579 12.4142 7.5 12 7.5C11.5858 7.5 11.25 7.83579 11.25 8.25H12.75ZM11.25 8.75C11.25 9.16421 11.5858 9.5 12 9.5C12.4142 9.5 12.75 9.16421 12.75 8.75H11.25ZM11.25 8.25V8.75H12.75V8.25H11.25Z" fill="#67738C"/>
<path d="M12.75 16.25C12.75 15.8358 12.4142 15.5 12 15.5C11.5858 15.5 11.25 15.8358 11.25 16.25H12.75ZM11.25 16.75C11.25 17.1642 11.5858 17.5 12 17.5C12.4142 17.5 12.75 17.1642 12.75 16.75H11.25ZM11.25 16.25V16.75H12.75V16.25H11.25Z" fill="#67738C"/>
</svg>
