<svg width="24" height="25" viewBox="0 0 24 25" fill="none" xmlns="http://www.w3.org/2000/svg">
<path d="M4.75 7.25C4.75 6.14543 5.64543 5.25 6.75 5.25H17.25C18.3546 5.25 19.25 6.14543 19.25 7.25V17.75C19.25 18.8546 18.3546 19.75 17.25 19.75H6.75C5.64543 19.75 4.75 18.8546 4.75 17.75V7.25Z" fill="#EEF1F6"/>
<path d="M6.75 6H17.25V4.5H6.75V6ZM18.5 7.25V17.75H20V7.25H18.5ZM17.25 19H6.75V20.5H17.25V19ZM5.5 17.75V7.25H4V17.75H5.5ZM6.75 19C6.05964 19 5.5 18.4404 5.5 17.75H4C4 19.2688 5.23122 20.5 6.75 20.5V19ZM18.5 17.75C18.5 18.4404 17.9404 19 17.25 19V20.5C18.7688 20.5 20 19.2688 20 17.75H18.5ZM17.25 6C17.9404 6 18.5 6.55964 18.5 7.25H20C20 5.73122 18.7688 4.5 17.25 4.5V6ZM6.75 4.5C5.23122 4.5 4 5.73122 4 7.25H5.5C5.5 6.55964 6.05964 6 6.75 6V4.5Z" fill="#67738C"/>
<path d="M10.5 9.25C10.5 8.83579 10.1642 8.5 9.75 8.5C9.33579 8.5 9 8.83579 9 9.25H10.5ZM9 19.5C9 19.9142 9.33579 20.25 9.75 20.25C10.1642 20.25 10.5 19.9142 10.5 19.5H9ZM9 9.25V19.5H10.5V9.25H9Z" fill="#67738C"/>
<path d="M5 8C4.58579 8 4.25 8.33579 4.25 8.75C4.25 9.16421 4.58579 9.5 5 9.5V8ZM19 9.5C19.4142 9.5 19.75 9.16421 19.75 8.75C19.75 8.33579 19.4142 8 19 8V9.5ZM5 9.5H19V8H5V9.5Z" fill="#67738C"/>
</svg>
