<svg width="27" height="20" viewBox="0 0 27 20" fill="none" xmlns="http://www.w3.org/2000/svg">
<path d="M22.8002 0H3.65718C1.62869 0 0 1.65716 0 3.68565V16.3144C0 18.343 1.65716 20 3.68565 20H22.8001C24.8288 20 26.4858 18.3428 26.4858 16.3144L26.486 3.68565C26.4575 1.65716 24.8288 0 22.8003 0H22.8002ZM16.943 10.6287L11.143 14.4572C10.6573 14.8 9.97148 14.4287 9.97148 13.8287V6.14287C9.97148 5.54276 10.6286 5.2 11.143 5.51429L16.943 9.37158C17.4002 9.65737 17.4002 10.3144 16.943 10.6288V10.6287Z" fill="#67738C"/>
</svg>
