<svg width="566" height="134" viewBox="0 0 566 134" fill="none" xmlns="http://www.w3.org/2000/svg">
<path d="M546.905 77.821C548.735 79.649 551.141 80.7861 553.715 81.0387C556.289 81.2912 558.871 80.6435 561.021 79.2059C563.171 77.7683 564.756 75.6297 565.506 73.1546C566.257 70.6794 566.125 68.0207 565.135 65.6315C564.145 63.2422 562.357 61.2702 560.076 60.0514C557.794 58.8325 555.161 58.4423 552.625 58.9471C550.088 59.4519 547.805 60.8206 546.164 62.82C544.524 64.8193 543.627 67.3256 543.627 69.912C543.625 71.3813 543.914 72.8364 544.476 74.1938C545.039 75.5511 545.864 76.7838 546.905 77.821" fill="black"/>
<path d="M528.143 96.583C529.551 97.9923 531.404 98.8698 533.387 99.0658C535.369 99.2618 537.359 98.7642 539.016 97.6579C540.672 96.5515 541.894 94.9048 542.473 92.9985C543.051 91.0921 542.951 89.0441 542.189 87.2034C541.427 85.3628 540.05 83.8434 538.293 82.9042C536.536 81.9651 534.507 81.6643 532.554 82.0532C530.6 82.442 528.841 83.4964 527.577 85.0367C526.314 86.5769 525.623 88.5077 525.624 90.5C525.622 91.6299 525.844 92.749 526.276 93.793C526.708 94.8369 527.343 95.7851 528.143 96.583" fill="black"/>
<path d="M528.165 55.4299C529.573 56.8391 531.426 57.7163 533.408 57.9122C535.391 58.1081 537.38 57.6106 539.036 56.5043C540.693 55.398 541.914 53.7516 542.493 51.8455C543.071 49.9394 542.971 47.8916 542.209 46.0512C541.447 44.2108 540.07 42.6916 538.313 41.7526C536.557 40.8135 534.529 40.5128 532.575 40.9015C530.621 41.2903 528.863 42.3445 527.599 43.8845C526.336 45.4245 525.646 47.355 525.646 49.3469C525.644 50.4768 525.866 51.5959 526.298 52.6399C526.731 53.6838 527.365 54.632 528.165 55.4299" fill="black"/>
<path d="M508.959 115.767C510.042 116.85 511.467 117.525 512.991 117.675C514.515 117.825 516.044 117.443 517.318 116.592C518.592 115.741 519.531 114.475 519.976 113.009C520.421 111.544 520.343 109.969 519.757 108.554C519.171 107.139 518.113 105.971 516.762 105.249C515.411 104.527 513.852 104.295 512.35 104.594C510.848 104.893 509.495 105.703 508.524 106.887C507.552 108.071 507.021 109.555 507.021 111.087C507.02 111.956 507.191 112.817 507.523 113.62C507.856 114.423 508.344 115.153 508.959 115.767" fill="black"/>
<path d="M508.982 74.614C510.065 75.6962 511.489 76.3696 513.012 76.5194C514.536 76.6692 516.064 76.2861 517.337 75.4355C518.61 74.5848 519.548 73.3192 519.992 71.8542C520.436 70.3893 520.359 68.8156 519.773 67.4014C519.187 65.9872 518.129 64.8198 516.779 64.0983C515.429 63.3767 513.87 63.1456 512.369 63.4443C510.867 63.743 509.516 64.5531 508.545 65.7364C507.574 66.9197 507.043 68.4032 507.043 69.934C507.042 70.8033 507.213 71.6643 507.546 72.4674C507.878 73.2706 508.366 74.0001 508.982 74.614" fill="black"/>
<path d="M509.005 33.462C510.088 34.5452 511.513 35.2195 513.037 35.3699C514.561 35.5203 516.091 35.1375 517.364 34.2868C518.638 33.436 519.577 32.17 520.022 30.7043C520.467 29.2387 520.389 27.6642 519.803 26.2491C519.217 24.834 518.159 23.6659 516.808 22.9438C515.457 22.2217 513.898 21.9903 512.396 22.289C510.894 22.5878 509.542 23.3982 508.57 24.5821C507.598 25.7661 507.067 27.2503 507.067 28.782C507.066 29.6512 507.237 30.5122 507.569 31.3153C507.902 32.1184 508.39 32.848 509.005 33.462" fill="black"/>
<path d="M489.474 94.122C490.307 94.9546 491.402 95.4727 492.574 95.5881C493.746 95.7035 494.922 95.409 495.901 94.7548C496.88 94.1006 497.602 93.1271 497.944 92.0003C498.286 90.8734 498.226 89.6629 497.776 88.575C497.325 87.487 496.511 86.589 495.473 86.0338C494.434 85.4786 493.235 85.3007 492.08 85.5303C490.925 85.76 489.886 86.383 489.139 87.2931C488.392 88.2033 487.983 89.3444 487.983 90.522C487.982 91.1907 488.113 91.8531 488.369 92.4709C488.625 93.0887 489 93.6499 489.474 94.122" fill="black"/>
<path d="M489.5 52.97C490.333 53.8026 491.428 54.3208 492.6 54.4362C493.772 54.5515 494.948 54.257 495.927 53.6028C496.906 52.9486 497.628 51.9751 497.97 50.8483C498.312 49.7214 498.252 48.5109 497.802 47.423C497.351 46.335 496.537 45.437 495.499 44.8818C494.46 44.3267 493.261 44.1487 492.106 44.3784C490.951 44.608 489.912 45.231 489.165 46.1412C488.418 47.0514 488.009 48.1924 488.009 49.37C488.008 50.0387 488.139 50.701 488.395 51.3188C488.651 51.9366 489.027 52.4978 489.5 52.97Z" fill="black"/>
<path d="M469.74 72.727C470.381 73.3671 471.224 73.7653 472.125 73.8537C473.026 73.9421 473.93 73.7152 474.683 73.2118C475.436 72.7084 475.991 71.9596 476.254 71.0928C476.516 70.2261 476.47 69.2951 476.124 68.4585C475.777 67.6218 475.151 66.9312 474.352 66.5044C473.553 66.0776 472.631 65.9409 471.743 66.1176C470.855 66.2944 470.055 66.7736 469.481 67.4737C468.906 68.1737 468.592 69.0513 468.592 69.957C468.591 70.4716 468.692 70.9813 468.889 71.4567C469.086 71.9322 469.375 72.3639 469.74 72.727" fill="black"/>
<path d="M140.576 49.6V39.936C145.284 41.5332 150.206 42.4098 155.176 42.536C161.018 42.536 163.939 40.993 163.939 37.907C163.948 37.3589 163.838 36.8153 163.618 36.3135C163.397 35.8117 163.07 35.3636 162.66 35C161.784 34.168 159.553 33.0163 155.966 31.545C149.532 28.8977 145.336 26.6407 143.377 24.774C142.131 23.5672 141.151 22.1142 140.498 20.5074C139.845 18.9007 139.534 17.1756 139.585 15.442C139.585 10.6113 141.428 6.92833 145.114 4.393C148.757 1.881 153.504 0.625 159.354 0.625C164.062 0.802103 168.745 1.39812 173.348 2.406V11.7C169.343 9.99947 165.05 9.07737 160.7 8.983C155.214 8.983 152.471 10.4923 152.471 13.511C152.479 14.0772 152.637 14.6311 152.928 15.1164C153.22 15.6016 153.635 16.0007 154.132 16.273C155.051 16.8463 157.585 18.067 161.732 19.935C167.7 22.5823 171.673 24.886 173.652 26.846C174.827 28.0276 175.747 29.4384 176.354 30.9906C176.961 32.5429 177.242 34.2035 177.18 35.869C177.258 38.3327 176.653 40.77 175.431 42.911C174.21 45.052 172.419 46.8133 170.259 48C166.529 50.2573 161.691 51.385 155.744 51.383C150.636 51.374 145.547 50.7767 140.576 49.603" fill="black"/>
<path d="M184.889 50.388H198.551V1.47498H184.889V50.388Z" fill="black"/>
<path d="M211.079 1.47699V50.39H246.681V41.044H224.246V29.437H243.284V21.371H224.246V10.327H246.118V1.47699H211.079Z" fill="black"/>
<path d="M298.239 1.47699L285.621 32.728L273.316 1.47699H255.601V50.39H265.226V15.76L279.293 50.885H287.767L302.113 15.76V50.39H315.063V1.47699H298.239Z" fill="black"/>
<path d="M327.591 1.47699V50.39H363.198V41.044H340.758V29.437H359.8V21.371H340.758V10.327H362.63V1.47699H327.591Z" fill="black"/>
<path d="M404.819 1.47699V34.22L388.024 1.47699H372.187V50.39H381.812V17.208L399.059 50.39H414.444V1.47699H404.819Z" fill="black"/>
<path d="M424.143 49.6V39.936C428.849 41.5407 433.772 42.4175 438.743 42.536C444.586 42.536 447.508 40.993 447.507 37.907C447.518 37.3616 447.412 36.8201 447.197 36.3188C446.982 35.8175 446.663 35.3678 446.26 35C445.389 34.168 443.148 33.0163 439.537 31.545C433.122 28.917 428.926 26.66 426.948 24.774C425.695 23.5654 424.709 22.1075 424.055 20.4944C423.4 18.8813 423.091 17.1489 423.148 15.409C423.148 10.5963 424.991 6.92433 428.678 4.393C432.316 1.881 437.064 0.625 442.922 0.625C447.224 0.744071 451.505 1.27144 455.707 2.2L456.915 2.407V11.7C452.897 9.99642 448.592 9.07397 444.229 8.982C438.767 8.982 436.037 10.4913 436.039 13.51C436.046 14.0751 436.202 14.6283 436.492 15.1134C436.781 15.5986 437.194 15.9983 437.689 16.272C438.565 16.8207 441.111 18.0413 445.327 19.934C451.251 22.5813 455.213 24.885 457.213 26.845C458.389 28.026 459.309 29.4368 459.916 30.9892C460.523 32.5415 460.804 34.2024 460.741 35.868C460.821 38.327 460.221 40.7604 459.008 42.9008C457.795 45.0411 456.015 46.8055 453.864 48C450.11 50.2573 445.261 51.385 439.316 51.383C434.207 51.3745 429.115 50.7772 424.143 49.603" fill="black"/>
<path d="M338.319 100.474C338.319 106.288 330.475 107.64 324.999 107.808C325.249 101.99 328.286 96.3399 334.017 96.3399C334.58 96.2882 335.148 96.3583 335.682 96.5454C336.216 96.7326 336.704 97.0324 337.111 97.4245C337.519 97.8166 337.838 98.2919 338.046 98.818C338.254 99.3441 338.346 99.9089 338.317 100.474M348.601 100.388C348.601 92.3799 343.12 88.0779 334.607 88.0779C320.781 88.0779 313.615 99.3779 313.615 111.769C313.615 124.416 319.347 133.352 333.678 133.352C339.186 133.414 344.577 131.765 349.107 128.631L345.733 120.792C342.668 123.035 338.996 124.299 335.199 124.416C328.789 124.416 326.089 120.116 325.499 116.071C335.699 115.648 348.599 113.116 348.599 100.388" fill="black"/>
<path d="M379.207 100.474C379.207 106.288 371.363 107.64 365.887 107.808C366.137 101.99 369.174 96.3399 374.905 96.3399C375.468 96.2882 376.036 96.3583 376.57 96.5454C377.104 96.7326 377.592 97.0324 377.999 97.4245C378.407 97.8166 378.726 98.2919 378.934 98.818C379.142 99.3441 379.234 99.9089 379.205 100.474M389.49 100.388C389.49 92.3799 384.008 88.0779 375.49 88.0779C361.664 88.0779 354.499 99.3779 354.499 111.769C354.499 124.416 360.23 133.352 374.561 133.352C380.072 133.416 385.467 131.766 390 128.631L386.626 120.792C383.561 123.036 379.889 124.299 376.092 124.416C369.682 124.416 366.987 120.116 366.392 116.071C376.592 115.648 389.492 113.116 389.492 100.388" fill="black"/>
<path d="M75.0351 100.474C75.0351 106.288 67.1911 107.64 61.7141 107.808C61.9641 101.99 65.0011 96.3399 70.7331 96.3399C71.2965 96.2882 71.8644 96.3583 72.3983 96.5454C72.9322 96.7326 73.4197 97.0324 73.8275 97.4245C74.2354 97.8166 74.5541 98.2919 74.7621 98.818C74.9701 99.3441 75.0625 99.9089 75.0331 100.474M85.3171 100.388C85.3171 92.3799 79.8361 88.0779 71.3231 88.0779C57.4971 88.0779 50.3311 99.3779 50.3311 111.769C50.3311 124.416 56.0631 133.352 70.3941 133.352C75.9016 133.414 81.2926 131.765 85.8221 128.631L82.4491 120.792C79.3837 123.036 75.711 124.299 71.9141 124.416C65.5041 124.416 62.8051 120.116 62.2141 116.071C72.4141 115.648 85.3141 113.116 85.3141 100.388" fill="black"/>
<path d="M29.254 76.0239V98.3629H12.055V76.0239H0V132.088H12.055V108.902H29.254V132.088H41.314V76.0239H29.254Z" fill="black"/>
<path d="M118.281 118.43C118.281 121.548 115.755 124.753 111.371 124.753C105.129 124.753 103.695 118.766 103.695 111.938C103.695 103.675 106.058 96.7639 112.973 96.7639C114.786 96.7251 116.588 97.0389 118.281 97.6879V118.43ZM130.76 132.087L129.917 123.574V91.1999C124.942 89.3456 119.705 88.2918 114.4 88.0779C99.482 88.0779 92.061 97.7779 92.061 112.611C92.061 123.993 96.19 133.266 108.414 133.266C112.971 133.266 117.182 131.582 119.714 127.703L120.138 127.79L120.725 132.09L130.76 132.087Z" fill="black"/>
<path d="M140.539 76.1069V119.356C140.539 126.44 141.213 133.35 153.354 133.35C157.093 133.361 160.774 132.435 164.062 130.655L161.53 122.811C159.915 123.574 158.173 124.033 156.391 124.164C153.267 124.164 152.257 122.306 152.257 117.672V76.1069H140.539Z" fill="black"/>
<path d="M213.631 132.087V104.517C213.597 103.555 213.757 102.595 214.102 101.696C214.447 100.797 214.97 99.9769 215.639 99.2845C216.308 98.5921 217.11 98.0417 217.997 97.6664C218.884 97.2911 219.837 97.0984 220.8 97.0999C225.27 97.0999 226.194 100.469 226.194 104.853V132.086H237.912V103.086C237.912 93.0519 233.112 88.0759 224.255 88.0759C222.278 88.0364 220.315 88.4054 218.487 89.1598C216.66 89.9141 215.007 91.0376 213.634 92.4599V76.0229H201.913V132.087H213.631Z" fill="black"/>
<path d="M248.277 132.088H260V89.344H248.277V132.088Z" fill="black"/>
<path d="M247.739 75.9869C247.714 76.7907 247.854 77.5911 248.151 78.3386C248.447 79.0861 248.894 79.7648 249.463 80.3329C250.729 81.4791 252.394 82.0833 254.101 82.0159C255.807 82.0697 257.469 81.4673 258.744 80.3329C259.312 79.7704 259.764 79.1007 260.072 78.3627C260.38 77.6246 260.538 76.8327 260.538 76.0329C260.538 75.2332 260.38 74.4413 260.072 73.7032C259.764 72.9651 259.312 72.2955 258.744 71.7329C257.487 70.5581 255.821 69.9211 254.101 69.9579C252.391 69.9166 250.734 70.5549 249.494 71.7329C248.932 72.2886 248.486 72.9516 248.185 73.6825C247.883 74.4134 247.732 75.1973 247.739 75.9879" fill="black"/>
<path d="M282.086 132.087V104.687C282.046 103.701 282.206 102.718 282.557 101.796C282.909 100.874 283.443 100.033 284.129 99.3241C284.814 98.615 285.637 98.0524 286.546 97.6704C287.456 97.2884 288.434 97.095 289.42 97.102C293.891 97.102 294.647 100.557 294.647 105.192V132.092H306.365V102.915C306.365 92.799 301.307 88.078 292.965 88.078C290.485 87.9919 288.022 88.5248 285.8 89.6285C283.577 90.7322 281.664 92.372 280.234 94.4L279.387 89.342H269.608L270.368 97.268V132.085L282.086 132.087Z" fill="black"/>
<path d="M410.315 105.53C410.483 101.064 413.183 98.1959 417.399 98.1959C419.486 98.2067 421.54 98.7271 423.38 99.7119L425.488 89.5999C423.309 88.5424 420.909 88.0228 418.488 88.0849C414.527 88.0849 410.398 90.4429 408.372 95.4189L407.272 89.3449H397.748L398.591 96.7659V132.089H410.309L410.315 105.53Z" fill="black"/>
<path d="M457.8 91.7929L457.833 91.6929C453.679 89.0407 448.793 87.7691 443.873 88.0599C435.21 88.5119 428.401 93.6759 428.873 102.598C429.345 111.52 435.85 113.638 442.256 115.158C445.932 116.063 449.007 116.751 449.181 120.033C449.349 123.233 447.14 124.619 444.027 124.783C440.215 124.983 435.398 123.283 432.289 121.689L428.796 129.725C431.255 131.371 437.596 133.725 445.066 133.33C454.821 132.82 461.207 127.68 460.711 118.161C460.249 109.403 453.242 107.487 447.001 105.87C443.151 104.894 440.316 103.941 440.143 100.659C439.999 97.8769 442.212 96.6589 444.994 96.5149C447.872 96.3659 450.971 97.6269 454.263 99.9319L457.8 91.7929Z" fill="black"/>
<path d="M181.174 98.533H192.218V89.341H181.174V76.021H169.456V89.346H162.956V98.538H169.456V119.356C169.456 126.44 170.13 133.35 182.271 133.35C186.01 133.361 189.691 132.435 192.979 130.655L190.447 122.811C188.83 123.575 187.086 124.034 185.303 124.164C182.185 124.164 181.174 122.306 181.174 117.672V98.533Z" fill="black"/>
</svg>
