<svg width="18" height="17" viewBox="0 0 18 17" fill="none" xmlns="http://www.w3.org/2000/svg">
<path d="M8.5 3C8.5 4.10457 9.39543 5 10.5 5C11.6046 5 12.5 4.10457 12.5 3C12.5 1.89543 11.6046 1 10.5 1C9.39543 1 8.5 1.89543 8.5 3Z" stroke="#67738C" stroke-width="1.5" stroke-linecap="round"/>
<path d="M12.5 8.5C12.5 9.60457 13.3954 10.5 14.5 10.5C15.6046 10.5 16.5 9.60457 16.5 8.5C16.5 7.39543 15.6046 6.5 14.5 6.5C13.3954 6.5 12.5 7.39543 12.5 8.5Z" stroke="#67738C" stroke-width="1.5" stroke-linecap="round"/>
<path d="M8.5 3H5.5L3.5 6" stroke="#67738C" stroke-width="1.5" stroke-linecap="round"/>
<path d="M8.5 14C8.5 15.1046 9.39543 16 10.5 16C11.6046 16 12.5 15.1046 12.5 14C12.5 12.8954 11.6046 12 10.5 12C9.39543 12 8.5 12.8954 8.5 14Z" stroke="#67738C" stroke-width="1.5" stroke-linecap="round"/>
<path d="M8.5 14H5.5L3.5 11" stroke="#67738C" stroke-width="1.5" stroke-linecap="round"/>
<path d="M12.5 8.5H1.5" stroke="#67738C" stroke-width="1.5" stroke-linecap="round"/>
</svg>
