<svg width="150" height="28" viewBox="0 0 150 28" fill="none" xmlns="http://www.w3.org/2000/svg">
<path fill-rule="evenodd" clip-rule="evenodd" d="M23.4154 3.69873H24.0778V23.3819H23.4154V3.69873ZM33.0322 18.2363C32.4644 18.5794 31.7547 18.7568 30.9267 18.7568C30.0632 18.7568 29.3416 18.6149 28.7857 18.3191C28.2179 18.0234 27.8512 17.6212 27.6619 17.1008C27.4845 16.5803 27.3899 15.7996 27.3899 14.7587V11.6477C27.3899 10.8788 27.4135 10.311 27.4727 9.92069C27.5318 9.54216 27.6974 9.16364 27.9813 8.80878C28.2652 8.45391 28.6437 8.17002 29.1406 7.96893C29.6374 7.76784 30.2051 7.66138 30.8439 7.66138C31.7192 7.66138 32.4408 7.81516 33.0086 8.13453C33.5764 8.45391 33.9431 8.84426 34.1323 9.31742C34.3097 9.79057 34.3452 9.64862 34.3452 10.6422V11.4703L31.9321 11.4348V10.7132C31.9321 10.1691 31.873 9.82606 31.7429 9.68411C31.6128 9.55399 31.3407 9.48302 30.9267 9.48302C30.4417 9.48302 30.146 9.56582 30.0159 9.73142C29.8858 9.89703 29.8266 10.2519 29.8266 10.796V15.6577C29.8266 16.1781 29.8858 16.5212 30.0159 16.6868C30.146 16.8524 30.4299 16.9233 30.8912 16.9233C31.3289 16.9233 31.6009 16.8405 31.7429 16.6868C31.873 16.5212 31.944 16.3082 31.944 15.7168L31.9321 14.9479H34.3571V15.1135C34.3571 16.2136 34.3216 16.5685 34.156 17.018C33.9667 17.4793 33.6 17.8933 33.0322 18.2363ZM39.9284 10.4766C39.9284 10.1454 39.7628 9.75508 39.4434 9.64862C39.1241 9.54217 38.7101 9.49485 37.8584 9.49485V12.5112C38.6864 12.5112 39.1004 12.4639 39.4198 12.3811C39.751 12.2983 39.9166 11.5294 39.9166 11.0563V10.4766H39.9284ZM39.9284 15.2437C39.9284 14.6759 39.8101 14.3328 39.5736 14.1909C39.337 14.0608 38.8757 13.9898 37.8702 13.9898V18.5912H35.4926L35.5281 7.89796H37.6691C39.1004 7.89796 40.0704 7.94528 40.579 8.05174C41.0877 8.15819 41.5017 8.4066 41.821 8.82061C42.1404 9.23462 42.306 9.89703 42.306 10.8078C42.306 11.6359 42.1641 12.3811 41.9512 12.665C41.7264 12.9489 41.2887 13.1263 40.6382 13.1854C41.2296 13.3274 41.6318 13.5048 41.8329 13.7296C42.034 13.9543 42.1641 14.1672 42.2114 14.3565C42.2587 14.5458 42.3178 14.8651 42.3178 15.7286V18.5321L39.9521 18.5912V15.2437H39.9284ZM48.3979 10.6422C48.3979 10.1454 48.3151 9.83788 48.1613 9.69594C48.0075 9.55399 47.6763 9.49485 47.1913 9.49485C46.7773 9.49485 46.4579 9.55399 46.2332 9.66045C46.0084 9.76691 45.902 10.0981 45.902 10.6422V15.5867C45.902 16.2018 45.9729 16.5803 46.1149 16.7223C46.2568 16.8642 46.5999 16.9352 47.1203 16.9352C47.6645 16.9352 48.0075 16.8524 48.1613 16.6868C48.3151 16.5212 48.386 16.1308 48.386 15.5039V10.6422H48.3979ZM50.255 17.6094C49.9593 17.9761 49.5453 18.26 49.0366 18.4611C48.528 18.6622 47.9247 18.7568 47.2386 18.7568C46.5881 18.7568 46.0084 18.6622 45.488 18.4729C44.9675 18.2837 44.5535 18.0116 44.2459 17.6331C43.9266 17.2664 43.7491 16.8524 43.69 16.4147C43.6308 15.977 43.5954 15.2082 43.5954 14.1081V12.2864C43.5954 11.2219 43.619 10.4648 43.6782 10.0153C43.7373 9.56582 43.9147 9.16364 44.2223 8.79695C44.5298 8.43026 44.932 8.14636 45.4407 7.94527C45.9493 7.74418 46.5526 7.64955 47.2386 7.64955C47.8892 7.64955 48.4688 7.74419 48.9893 7.93345C49.5098 8.12271 49.9238 8.39477 50.2313 8.77329C50.5389 9.13998 50.7281 9.55399 50.7873 9.99166C50.8464 10.4293 50.8819 11.1982 50.8819 12.2864V14.1199C50.8819 15.1845 50.8583 15.9416 50.7991 16.391C50.74 16.8405 50.5625 17.2427 50.255 17.6094ZM59.0793 18.5321C58.7362 16.8997 57.9319 12.8897 57.6598 10.796C57.5415 11.695 56.5952 15.705 56.1576 18.5321H53.5552L51.5325 7.88613H53.8155L54.466 11.6004L54.9392 16.0125C55.0457 14.1554 55.992 10.8906 56.4415 7.88613H59.0911C59.1266 8.19368 59.5761 9.36473 59.7535 11.3993L60.4159 15.9416C60.5934 13.3629 61.1966 10.3465 61.5988 7.88613H63.7162L61.5397 18.5321H59.0793ZM69.0746 10.9616C69.0746 10.4885 69.0391 10.1809 68.9682 10.039C68.8972 9.90886 68.7198 9.8024 68.4477 9.74325C68.1756 9.68411 67.6788 9.64862 66.9336 9.64862V16.7577C67.9154 16.7577 68.5068 16.6749 68.7434 16.5212C68.9682 16.3674 69.0865 15.9297 69.0865 15.22V10.9616H69.0746ZM71.2393 17.29C71.1447 17.6094 70.9672 17.8696 70.7188 18.0471C70.4704 18.2245 70.1747 18.3546 69.808 18.4256C69.4532 18.4966 69.0746 18.5321 68.3412 18.5321H64.5205V7.88613H66.7917C68.2584 7.88613 69.0865 7.94527 69.5951 8.07539C70.1156 8.19368 70.5059 8.39477 70.778 8.67866C71.05 8.96255 71.2156 9.2701 71.2866 9.61314C71.3576 9.95617 71.3812 10.6304 71.3812 11.6359V15.3619C71.3931 16.3201 71.3458 16.9588 71.2393 17.29Z" fill="#161C29"/>
<path fill-rule="evenodd" clip-rule="evenodd" d="M15.5847 8.14565C15.3836 8.3704 15.147 8.59515 14.8986 8.84355L13.9168 9.77803H16.7676V10.9373H12.178V10.334L13.7749 8.40589C14.0706 8.11017 14.319 7.84994 14.4965 7.62519C14.6739 7.41227 14.8868 7.15204 14.9814 6.98643C15.0997 6.79717 15.703 6.21756 15.6438 5.496C15.3836 4.69164 14.6384 4.62067 14.2007 4.67981C13.7512 4.69164 13.2308 5.29491 13.148 5.81538C13.148 5.81538 12.3318 5.69709 12.1543 5.61429C12.1662 5.38954 12.5565 4.40775 13.3136 3.97008C13.6803 3.80448 13.9168 3.72168 14.3427 3.72168C14.6739 3.72168 14.9696 3.76899 15.2417 3.8518C15.5137 3.9346 15.7385 4.06471 15.9277 4.23032C16.117 4.39592 16.4364 4.59701 16.531 4.84542C16.6848 5.16479 16.8031 5.496 16.8031 5.82721C16.8386 6.56059 16.2116 7.28215 16.0933 7.47141C15.9514 7.70799 15.7858 7.93274 15.5847 8.14565ZM10.2617 23.5468C4.82049 23.5468 0.420166 19.1346 0.420166 13.7052C0.420166 8.26394 4.83231 3.86363 10.2617 3.86363V7.3413C6.74858 7.3413 3.89784 10.192 3.89784 13.7052C3.89784 17.2184 6.74858 20.0809 10.2617 20.0809C13.0533 20.0809 15.4191 18.2829 16.2826 15.7871C14.5793 15.7871 12.1662 15.7752 12.1662 15.7752V12.132C12.1662 12.132 19.6065 12.132 19.985 12.132C20.0678 12.6406 20.1151 13.1729 20.1151 13.7052C20.1033 19.1464 15.703 23.5468 10.2617 23.5468Z" fill="#E44D31"/>
<path d="M86.362 2.4539C86.6023 1.71423 86.7225 1.34439 86.903 1.24516C87.0591 1.15937 87.2482 1.15937 87.4042 1.24516C87.5847 1.34439 87.7049 1.71423 87.9452 2.4539L88.524 4.23525C88.5912 4.44195 88.6248 4.5453 88.688 4.62177C88.7439 4.68928 88.8159 4.7416 88.8974 4.77385C88.9896 4.81038 89.0983 4.81038 89.3156 4.81038H91.1887C91.9664 4.81038 92.3553 4.81038 92.5054 4.95138C92.6352 5.07329 92.6937 5.25314 92.6603 5.42808C92.6217 5.6304 92.3071 5.85897 91.6779 6.31611L90.1626 7.41705C89.9868 7.5448 89.8988 7.60867 89.8457 7.69246C89.7987 7.76645 89.7712 7.85109 89.7657 7.93854C89.7595 8.03758 89.7931 8.14094 89.8602 8.34764L90.439 10.129C90.6794 10.8687 90.7995 11.2385 90.7118 11.4249C90.636 11.586 90.483 11.6972 90.3063 11.7195C90.102 11.7453 89.7874 11.5167 89.1582 11.0596L87.6429 9.95865C87.467 9.8309 87.3791 9.76702 87.283 9.74234C87.1981 9.72055 87.1091 9.72055 87.0243 9.74234C86.9281 9.76702 86.8402 9.8309 86.6644 9.95865L85.1491 11.0596C84.5199 11.5167 84.2053 11.7453 84.0009 11.7195C83.8242 11.6972 83.6712 11.586 83.5954 11.4249C83.5077 11.2385 83.6279 10.8687 83.8682 10.129L84.447 8.34764C84.5142 8.14094 84.5478 8.03758 84.5415 7.93854C84.536 7.85109 84.5085 7.76645 84.4616 7.69246C84.4084 7.60867 84.3205 7.5448 84.1447 7.41705L82.6293 6.31611C82.0001 5.85897 81.6855 5.6304 81.6469 5.42808C81.6136 5.25314 81.672 5.07329 81.8018 4.95138C81.952 4.81038 82.3408 4.81038 83.1186 4.81038H84.9916C85.209 4.81038 85.3176 4.81038 85.4099 4.77385C85.4914 4.7416 85.5634 4.68928 85.6192 4.62177C85.6825 4.5453 85.7161 4.44195 85.7832 4.23525L86.362 2.4539Z" fill="#E44D31"/>
<g clip-path="url(#clip0_55_70941)">
<path d="M100.234 2.4539C100.474 1.71423 100.594 1.34439 100.775 1.24516C100.931 1.15937 101.12 1.15937 101.276 1.24516C101.457 1.34439 101.577 1.71423 101.817 2.4539L102.396 4.23525C102.463 4.44195 102.497 4.5453 102.56 4.62177C102.616 4.68928 102.688 4.7416 102.769 4.77385C102.861 4.81038 102.97 4.81038 103.187 4.81038H105.06C105.838 4.81038 106.227 4.81038 106.377 4.95138C106.507 5.07329 106.565 5.25314 106.532 5.42808C106.494 5.6304 106.179 5.85897 105.55 6.31611L104.034 7.41705C103.859 7.5448 103.771 7.60867 103.717 7.69246C103.671 7.76645 103.643 7.85109 103.638 7.93854C103.631 8.03758 103.665 8.14094 103.732 8.34764L104.311 10.129C104.551 10.8687 104.671 11.2385 104.584 11.4249C104.508 11.586 104.355 11.6972 104.178 11.7195C103.974 11.7453 103.659 11.5167 103.03 11.0596L101.515 9.95865C101.339 9.8309 101.251 9.76702 101.155 9.74234C101.07 9.72055 100.981 9.72055 100.896 9.74234C100.8 9.76702 100.712 9.8309 100.536 9.95865L99.0209 11.0596C98.3917 11.5167 98.0771 11.7453 97.8728 11.7195C97.6961 11.6972 97.5431 11.586 97.4672 11.4249C97.3796 11.2385 97.4997 10.8687 97.7401 10.129L98.3188 8.34764C98.386 8.14094 98.4196 8.03758 98.4134 7.93854C98.4079 7.85109 98.3804 7.76645 98.3334 7.69246C98.2802 7.60867 98.1923 7.5448 98.0165 7.41705L96.5012 6.31611C95.872 5.85897 95.5574 5.6304 95.5188 5.42808C95.4854 5.25314 95.5438 5.07329 95.6737 4.95138C95.8238 4.81038 96.2127 4.81038 96.9904 4.81038H98.8634C99.0808 4.81038 99.1894 4.81038 99.2817 4.77385C99.3632 4.7416 99.4352 4.68928 99.491 4.62177C99.5543 4.5453 99.5879 4.44195 99.655 4.23525L100.234 2.4539Z" fill="#E44D31"/>
</g>
<g clip-path="url(#clip1_55_70941)">
<path d="M114.107 2.4539C114.347 1.71423 114.468 1.34439 114.648 1.24516C114.804 1.15937 114.993 1.15937 115.149 1.24516C115.33 1.34439 115.45 1.71423 115.69 2.4539L116.269 4.23525C116.336 4.44195 116.37 4.5453 116.433 4.62177C116.489 4.68928 116.561 4.7416 116.642 4.77385C116.735 4.81038 116.843 4.81038 117.061 4.81038H118.934C119.712 4.81038 120.1 4.81038 120.251 4.95138C120.38 5.07329 120.439 5.25314 120.405 5.42808C120.367 5.6304 120.052 5.85897 119.423 6.31611L117.908 7.41705C117.732 7.5448 117.644 7.60867 117.591 7.69246C117.544 7.76645 117.516 7.85109 117.511 7.93854C117.505 8.03758 117.538 8.14094 117.605 8.34764L118.184 10.129C118.424 10.8687 118.545 11.2385 118.457 11.4249C118.381 11.586 118.228 11.6972 118.051 11.7195C117.847 11.7453 117.532 11.5167 116.903 11.0596L115.388 9.95865C115.212 9.8309 115.124 9.76702 115.028 9.74234C114.943 9.72055 114.854 9.72055 114.769 9.74234C114.673 9.76702 114.585 9.8309 114.409 9.95865L112.894 11.0596C112.265 11.5167 111.95 11.7453 111.746 11.7195C111.569 11.6972 111.416 11.586 111.341 11.4249C111.253 11.2385 111.373 10.8687 111.613 10.129L112.192 8.34764C112.259 8.14094 112.293 8.03758 112.287 7.93854C112.281 7.85109 112.254 7.76645 112.207 7.69246C112.154 7.60867 112.066 7.5448 111.89 7.41705L110.374 6.31611C109.745 5.85897 109.431 5.6304 109.392 5.42808C109.359 5.25314 109.417 5.07329 109.547 4.95138C109.697 4.81038 110.086 4.81038 110.864 4.81038H112.737C112.954 4.81038 113.063 4.81038 113.155 4.77385C113.236 4.7416 113.308 4.68928 113.364 4.62177C113.428 4.5453 113.461 4.44195 113.528 4.23525L114.107 2.4539Z" fill="#E44D31"/>
</g>
<path d="M127.978 2.4539C128.219 1.71423 128.339 1.34439 128.519 1.24516C128.675 1.15937 128.865 1.15937 129.021 1.24516C129.201 1.34439 129.321 1.71423 129.562 2.4539L130.14 4.23525C130.208 4.44195 130.241 4.5453 130.304 4.62177C130.36 4.68928 130.432 4.7416 130.514 4.77385C130.606 4.81038 130.715 4.81038 130.932 4.81038H132.805C133.583 4.81038 133.972 4.81038 134.122 4.95138C134.252 5.07329 134.31 5.25314 134.277 5.42808C134.238 5.6304 133.923 5.85897 133.294 6.31611L131.779 7.41705C131.603 7.5448 131.515 7.60867 131.462 7.69246C131.415 7.76645 131.388 7.85109 131.382 7.93854C131.376 8.03758 131.409 8.14094 131.477 8.34764L132.055 10.129C132.296 10.8687 132.416 11.2385 132.328 11.4249C132.252 11.586 132.099 11.6972 131.923 11.7195C131.718 11.7453 131.404 11.5167 130.775 11.0596L129.259 9.95865C129.083 9.8309 128.995 9.76702 128.899 9.74234C128.814 9.72055 128.725 9.72055 128.641 9.74234C128.544 9.76702 128.457 9.8309 128.281 9.95865L126.765 11.0596C126.136 11.5167 125.822 11.7453 125.617 11.7195C125.441 11.6972 125.288 11.586 125.212 11.4249C125.124 11.2385 125.244 10.8687 125.485 10.129L126.063 8.34764C126.131 8.14094 126.164 8.03758 126.158 7.93854C126.152 7.85109 126.125 7.76645 126.078 7.69246C126.025 7.60867 125.937 7.5448 125.761 7.41705L124.246 6.31611C123.616 5.85897 123.302 5.6304 123.263 5.42808C123.23 5.25314 123.288 5.07329 123.418 4.95138C123.568 4.81038 123.957 4.81038 124.735 4.81038H126.608C126.825 4.81038 126.934 4.81038 127.026 4.77385C127.108 4.7416 127.18 4.68928 127.236 4.62177C127.299 4.5453 127.332 4.44195 127.4 4.23525L127.978 2.4539Z" fill="#E44D31"/>
<path d="M141.852 2.4539C142.092 1.71423 142.212 1.34439 142.393 1.24516C142.549 1.15937 142.738 1.15937 142.894 1.24516C143.074 1.34439 143.195 1.71423 143.435 2.4539L144.014 4.23525C144.081 4.44195 144.114 4.5453 144.178 4.62177C144.234 4.68928 144.306 4.7416 144.387 4.77385C144.479 4.81038 144.588 4.81038 144.805 4.81038H146.678C147.456 4.81038 147.845 4.81038 147.995 4.95138C148.125 5.07329 148.183 5.25314 148.15 5.42808C148.111 5.6304 147.797 5.85897 147.168 6.31611L145.652 7.41705C145.476 7.5448 145.388 7.60867 145.335 7.69246C145.288 7.76645 145.261 7.85109 145.255 7.93854C145.249 8.03758 145.283 8.14094 145.35 8.34764L145.929 10.129C146.169 10.8687 146.289 11.2385 146.201 11.4249C146.126 11.586 145.973 11.6972 145.796 11.7195C145.592 11.7453 145.277 11.5167 144.648 11.0596L143.132 9.95865C142.957 9.8309 142.869 9.76702 142.773 9.74234C142.688 9.72055 142.599 9.72055 142.514 9.74234C142.418 9.76702 142.33 9.8309 142.154 9.95865L140.639 11.0596C140.009 11.5167 139.695 11.7453 139.491 11.7195C139.314 11.6972 139.161 11.586 139.085 11.4249C138.997 11.2385 139.118 10.8687 139.358 10.129L139.937 8.34764C140.004 8.14094 140.037 8.03758 140.031 7.93854C140.026 7.85109 139.998 7.76645 139.951 7.69246C139.898 7.60867 139.81 7.5448 139.634 7.41705L138.119 6.31611C137.49 5.85897 137.175 5.6304 137.137 5.42808C137.103 5.25314 137.162 5.07329 137.291 4.95138C137.442 4.81038 137.83 4.81038 138.608 4.81038H140.481C140.699 4.81038 140.807 4.81038 140.9 4.77385C140.981 4.7416 141.053 4.68928 141.109 4.62177C141.172 4.5453 141.206 4.44195 141.273 4.23525L141.852 2.4539Z" fill="#C0C8D8"/>
<g clip-path="url(#clip2_55_70941)">
<path d="M141.852 2.4539C142.092 1.71423 142.212 1.34439 142.393 1.24516C142.549 1.15937 142.738 1.15937 142.894 1.24516C143.074 1.34439 143.195 1.71423 143.435 2.4539L144.014 4.23525C144.081 4.44195 144.114 4.5453 144.178 4.62177C144.234 4.68928 144.306 4.7416 144.387 4.77385C144.479 4.81038 144.588 4.81038 144.805 4.81038H146.678C147.456 4.81038 147.845 4.81038 147.995 4.95138C148.125 5.07329 148.183 5.25314 148.15 5.42808C148.111 5.6304 147.797 5.85897 147.168 6.31611L145.652 7.41705C145.476 7.5448 145.388 7.60867 145.335 7.69246C145.288 7.76645 145.261 7.85109 145.255 7.93854C145.249 8.03758 145.283 8.14094 145.35 8.34764L145.929 10.129C146.169 10.8687 146.289 11.2385 146.201 11.4249C146.126 11.586 145.973 11.6972 145.796 11.7195C145.592 11.7453 145.277 11.5167 144.648 11.0596L143.132 9.95865C142.957 9.8309 142.869 9.76702 142.773 9.74234C142.688 9.72055 142.599 9.72055 142.514 9.74234C142.418 9.76702 142.33 9.8309 142.154 9.95865L140.639 11.0596C140.009 11.5167 139.695 11.7453 139.491 11.7195C139.314 11.6972 139.161 11.586 139.085 11.4249C138.997 11.2385 139.118 10.8687 139.358 10.129L139.937 8.34764C140.004 8.14094 140.037 8.03758 140.031 7.93854C140.026 7.85109 139.998 7.76645 139.951 7.69246C139.898 7.60867 139.81 7.5448 139.634 7.41705L138.119 6.31611C137.49 5.85897 137.175 5.6304 137.137 5.42808C137.103 5.25314 137.162 5.07329 137.291 4.95138C137.442 4.81038 137.83 4.81038 138.608 4.81038H140.481C140.699 4.81038 140.807 4.81038 140.9 4.77385C140.981 4.7416 141.053 4.68928 141.109 4.62177C141.172 4.5453 141.206 4.44195 141.273 4.23525L141.852 2.4539Z" fill="#E44D31"/>
</g>
<path d="M94.7652 24.0303V23.3671L97.1128 19.6587H97.6353V20.6349H97.3037L95.6246 23.2928V23.3353H98.8423V24.0303H94.7652ZM97.3409 25.0913V23.8287L97.3462 23.5263V19.6587H98.1234V25.0913H97.3409ZM100.096 25.1417C99.9506 25.1417 99.8259 25.0904 99.7216 24.9879C99.6173 24.8835 99.5651 24.758 99.5651 24.6112C99.5651 24.4662 99.6173 24.3424 99.7216 24.2398C99.8259 24.1355 99.9506 24.0833 100.096 24.0833C100.241 24.0833 100.365 24.1355 100.47 24.2398C100.574 24.3424 100.626 24.4662 100.626 24.6112C100.626 24.7084 100.601 24.7978 100.552 24.8791C100.504 24.9587 100.44 25.0223 100.361 25.0701C100.281 25.1178 100.193 25.1417 100.096 25.1417ZM103.419 19.5845C103.661 19.5862 103.9 19.6305 104.135 19.7171C104.37 19.8038 104.582 19.9452 104.772 20.1415C104.963 20.3378 105.115 20.6031 105.228 20.9373C105.343 21.2698 105.401 21.6836 105.403 22.1787C105.403 22.6544 105.355 23.078 105.26 23.4493C105.164 23.8189 105.027 24.1311 104.848 24.3857C104.672 24.6404 104.457 24.834 104.204 24.9666C103.951 25.0993 103.666 25.1656 103.35 25.1656C103.026 25.1656 102.739 25.1019 102.488 24.9746C102.237 24.8473 102.032 24.6713 101.875 24.4467C101.717 24.2204 101.619 23.9604 101.58 23.6669H102.389C102.443 23.9003 102.55 24.0895 102.713 24.2345C102.878 24.3778 103.09 24.4494 103.35 24.4494C103.748 24.4494 104.058 24.2761 104.281 23.9295C104.504 23.5811 104.616 23.0948 104.618 22.4705H104.575C104.483 22.6226 104.368 22.7535 104.23 22.8631C104.094 22.9728 103.941 23.0576 103.771 23.1178C103.602 23.1779 103.42 23.208 103.228 23.208C102.915 23.208 102.63 23.131 102.374 22.9772C102.117 22.8233 101.913 22.612 101.761 22.3432C101.609 22.0744 101.533 21.7676 101.533 21.4227C101.533 21.0797 101.61 20.7684 101.766 20.489C101.924 20.2096 102.143 19.9886 102.424 19.8259C102.707 19.6614 103.038 19.5809 103.419 19.5845ZM103.421 20.2742C103.214 20.2742 103.028 20.3254 102.862 20.428C102.697 20.5288 102.567 20.6659 102.472 20.8392C102.376 21.0107 102.328 21.2017 102.328 21.4121C102.328 21.6226 102.374 21.8136 102.466 21.9851C102.56 22.1549 102.687 22.2901 102.848 22.3909C103.011 22.49 103.197 22.5395 103.405 22.5395C103.561 22.5395 103.706 22.5094 103.84 22.4493C103.975 22.3892 104.092 22.3061 104.193 22.2C104.294 22.0921 104.373 21.9701 104.429 21.8339C104.486 21.6977 104.514 21.5545 104.514 21.4042C104.514 21.2043 104.466 21.0187 104.371 20.8471C104.277 20.6756 104.148 20.5376 103.984 20.4333C103.819 20.3272 103.632 20.2742 103.421 20.2742ZM110.065 25.1735C109.683 25.1735 109.35 25.086 109.065 24.9109C108.78 24.7359 108.559 24.4909 108.402 24.1762C108.244 23.8614 108.166 23.4935 108.166 23.0727C108.166 22.65 108.244 22.2804 108.402 21.9639C108.559 21.6473 108.78 21.4015 109.065 21.2264C109.35 21.0514 109.683 20.9638 110.065 20.9638C110.447 20.9638 110.78 21.0514 111.065 21.2264C111.35 21.4015 111.571 21.6473 111.728 21.9639C111.885 22.2804 111.964 22.65 111.964 23.0727C111.964 23.4935 111.885 23.8614 111.728 24.1762C111.571 24.4909 111.35 24.7359 111.065 24.9109C110.78 25.086 110.447 25.1735 110.065 25.1735ZM110.067 24.5077C110.315 24.5077 110.52 24.4423 110.683 24.3114C110.846 24.1806 110.966 24.0064 111.044 23.7889C111.123 23.5714 111.163 23.3317 111.163 23.07C111.163 22.8101 111.123 22.5713 111.044 22.3538C110.966 22.1345 110.846 21.9586 110.683 21.8259C110.52 21.6933 110.315 21.627 110.067 21.627C109.818 21.627 109.611 21.6933 109.447 21.8259C109.284 21.9586 109.163 22.1345 109.083 22.3538C109.006 22.5713 108.967 22.8101 108.967 23.07C108.967 23.3317 109.006 23.5714 109.083 23.7889C109.163 24.0064 109.284 24.1806 109.447 24.3114C109.611 24.4423 109.818 24.5077 110.067 24.5077ZM115.43 23.4016V21.0169H116.226V25.0913H115.446V24.3857H115.404C115.31 24.6032 115.16 24.7845 114.953 24.9295C114.748 25.0727 114.492 25.1444 114.186 25.1444C113.925 25.1444 113.693 25.0869 113.491 24.9719C113.292 24.8552 113.134 24.6828 113.019 24.4547C112.906 24.2266 112.849 23.9445 112.849 23.6085V21.0169H113.643V23.513C113.643 23.7906 113.719 24.0117 113.873 24.1762C114.027 24.3406 114.227 24.4228 114.473 24.4228C114.621 24.4228 114.769 24.3857 114.916 24.3114C115.064 24.2372 115.187 24.1249 115.285 23.9746C115.384 23.8242 115.432 23.6333 115.43 23.4016ZM119.194 21.0169V21.6535H116.968V21.0169H119.194ZM117.565 20.0407H118.358V23.895C118.358 24.0488 118.381 24.1647 118.427 24.2425C118.473 24.3185 118.532 24.3707 118.605 24.399C118.679 24.4255 118.76 24.4388 118.846 24.4388C118.91 24.4388 118.966 24.4343 119.013 24.4255C119.061 24.4167 119.098 24.4096 119.125 24.4043L119.268 25.0595C119.222 25.0772 119.157 25.0948 119.072 25.1125C118.987 25.132 118.881 25.1426 118.753 25.1444C118.545 25.1479 118.35 25.1108 118.17 25.033C117.99 24.9551 117.844 24.8349 117.732 24.6722C117.621 24.5095 117.565 24.3052 117.565 24.0594V20.0407ZM123.764 25.1735C123.382 25.1735 123.049 25.086 122.764 24.9109C122.48 24.7359 122.258 24.4909 122.101 24.1762C121.944 23.8614 121.865 23.4935 121.865 23.0727C121.865 22.65 121.944 22.2804 122.101 21.9639C122.258 21.6473 122.48 21.4015 122.764 21.2264C123.049 21.0514 123.382 20.9638 123.764 20.9638C124.146 20.9638 124.48 21.0514 124.764 21.2264C125.049 21.4015 125.27 21.6473 125.427 21.9639C125.585 22.2804 125.664 22.65 125.664 23.0727C125.664 23.4935 125.585 23.8614 125.427 24.1762C125.27 24.4909 125.049 24.7359 124.764 24.9109C124.48 25.086 124.146 25.1735 123.764 25.1735ZM123.767 24.5077C124.014 24.5077 124.22 24.4423 124.382 24.3114C124.545 24.1806 124.665 24.0064 124.743 23.7889C124.823 23.5714 124.862 23.3317 124.862 23.07C124.862 22.8101 124.823 22.5713 124.743 22.3538C124.665 22.1345 124.545 21.9586 124.382 21.8259C124.22 21.6933 124.014 21.627 123.767 21.627C123.518 21.627 123.311 21.6933 123.146 21.8259C122.984 21.9586 122.862 22.1345 122.783 22.3538C122.705 22.5713 122.666 22.8101 122.666 23.07C122.666 23.3317 122.705 23.5714 122.783 23.7889C122.862 24.0064 122.984 24.1806 123.146 24.3114C123.311 24.4423 123.518 24.5077 123.767 24.5077ZM128.488 21.0169V21.6535H126.185V21.0169H128.488ZM126.817 25.0913V20.5447C126.817 20.2901 126.872 20.0787 126.984 19.9107C127.095 19.741 127.243 19.6145 127.427 19.5314C127.611 19.4465 127.811 19.4041 128.026 19.4041C128.186 19.4041 128.322 19.4174 128.435 19.4439C128.548 19.4686 128.632 19.4916 128.687 19.5129L128.501 20.1548C128.464 20.1442 128.416 20.1318 128.358 20.1177C128.3 20.1017 128.229 20.0938 128.146 20.0938C127.953 20.0938 127.815 20.1415 127.732 20.237C127.651 20.3325 127.61 20.4704 127.61 20.6508V25.0913H126.817ZM133.066 25.1656C132.733 25.1656 132.434 25.1019 132.169 24.9746C131.906 24.8455 131.695 24.6687 131.538 24.4441C131.38 24.2195 131.296 23.9631 131.286 23.6748H132.082C132.101 23.9082 132.204 24.1001 132.392 24.2504C132.579 24.4007 132.804 24.4759 133.066 24.4759C133.274 24.4759 133.459 24.4282 133.62 24.3327C133.783 24.2354 133.91 24.1019 134.002 23.9321C134.096 23.7623 134.143 23.5687 134.143 23.3512C134.143 23.1301 134.095 22.933 133.999 22.7597C133.904 22.5864 133.772 22.4502 133.604 22.3512C133.438 22.2521 133.247 22.2017 133.031 22.2C132.867 22.2 132.701 22.2283 132.535 22.2848C132.369 22.3414 132.235 22.4157 132.132 22.5077L131.381 22.3962L131.686 19.6587H134.673V20.3617H132.368L132.196 21.8816H132.227C132.334 21.7791 132.474 21.6933 132.649 21.6243C132.826 21.5554 133.015 21.5209 133.217 21.5209C133.548 21.5209 133.842 21.5996 134.1 21.757C134.36 21.9144 134.564 22.1292 134.713 22.4016C134.863 22.6721 134.938 22.9834 134.936 23.3353C134.938 23.6872 134.858 24.0011 134.697 24.277C134.538 24.5528 134.317 24.7703 134.034 24.9295C133.753 25.0869 133.43 25.1656 133.066 25.1656Z" fill="#67738C"/>
<defs>
<clipPath id="clip0_55_70941">
<rect width="13.8724" height="13.8724" fill="white" transform="translate(94.0892 0.0175781)"/>
</clipPath>
<clipPath id="clip1_55_70941">
<rect width="13.8724" height="13.8724" fill="white" transform="translate(107.962 0.0175781)"/>
</clipPath>
<clipPath id="clip2_55_70941">
<rect width="10.4043" height="13.8724" fill="white" transform="translate(135.707 0.0175781)"/>
</clipPath>
</defs>
</svg>
