<svg width="83" height="17" viewBox="0 0 83 17" fill="none" xmlns="http://www.w3.org/2000/svg">
<g clip-path="url(#clip0_229_148887)">
<mask id="mask0_229_148887" style="mask-type:luminance" maskUnits="userSpaceOnUse" x="0" y="0" width="83" height="17">
<path d="M82.6808 0H0V17H82.6808V0Z" fill="white"/>
</mask>
<g mask="url(#mask0_229_148887)">
<path d="M13.1083 2.84399V11.3252L15.3611 2.84399H21.6824L17.9367 17H10.0451V8.49732L7.78489 17H0V2.84399H6.1196L6.11842 11.3368L8.38796 2.84399H13.1083Z" fill="black"/>
<path d="M41.9858 2.84399C41.9858 2.84399 51.2548 2.84399 52.4134 2.84399C53.76 2.84399 54.4051 3.00695 55.0785 3.30743C55.979 3.70879 56.7355 4.35537 56.9211 5.31458C57.0617 6.03762 56.724 7.08774 56.724 7.08774L54.0896 17H47.7394L50.4359 6.83727C50.6242 6.12337 49.8978 5.67508 49.1231 5.67508L49.0742 5.67331H47.5704L44.5638 17L38.2471 16.9903L41.9858 2.84399Z" fill="black"/>
<path d="M73.6816 2.84399L72.9164 5.67331L64.6265 14.1657H70.6896L69.9301 17H55.979L56.7236 14.1657L65.0058 5.67331H58.9707L59.7302 2.84399H73.6816Z" fill="black"/>
<path d="M78.1641 17H71.8203L76.3307 0H82.6808L78.1641 17Z" fill="black"/>
<path d="M28.7003 14.1657H30.1033L32.0393 6.82305C32.2266 6.10945 31.7166 5.67337 30.7211 5.67337C29.9475 5.67337 29.6505 5.80043 29.3223 6.03884C29.0472 6.2393 28.9134 6.73468 28.9134 6.73468L28.8221 7.08396L22.4639 7.08763C22.4639 7.08763 22.5299 6.91617 22.8113 5.81824C23.167 4.43101 24.3986 3.64768 25.3721 3.26322C26.0588 2.99259 26.7022 2.84375 28.0489 2.84375C28.0489 2.84375 32.8253 2.84375 33.9842 2.84375C35.3308 2.84375 36.0525 2.98244 36.7232 3.2916C37.6544 3.72123 38.2854 4.35937 38.4925 5.31433C38.6282 5.93854 38.3262 7.08087 38.3262 7.08087L35.6921 16.9997C34.6553 16.9997 25.7707 16.9997 25.3257 16.9997C23.979 16.9997 23.1665 16.913 22.5042 16.5856C21.6127 16.1456 20.9193 15.5822 20.7979 14.5522C20.7042 13.7614 20.9693 12.7597 20.9693 12.7597C20.9693 12.7597 21.0213 12.5957 21.1612 12.0583C21.7118 9.94078 22.9304 9.27747 23.8426 8.87903C24.5192 8.5837 25.2098 8.49707 26.5565 8.49707C26.5565 8.49707 28.3682 8.49707 30.031 8.49707L29.2639 11.3365C28.4233 11.3365 28.2145 11.486 27.8575 11.7404C27.4728 12.0138 27.3782 12.4114 27.3782 12.4114L27.2911 12.7445C27.0608 13.8068 27.5261 14.1657 28.7003 14.1657Z" fill="black"/>
</g>
</g>
<defs>
<clipPath id="clip0_229_148887">
<rect width="83" height="17" fill="white"/>
</clipPath>
</defs>
</svg>
