<svg width="152" height="24" viewBox="0 0 152 24" fill="none" xmlns="http://www.w3.org/2000/svg">
<g clip-path="url(#clip0_300_167725)">
<path d="M21.0053 9.8971L11.108 15.4829L0.509735 9.5148L0 9.79091V14.1236L11.108 20.3679L21.0053 14.8033V17.0971L11.108 22.6829L0.509735 16.7148L0 16.9909V17.7343L11.108 23.9785L22.1947 17.7343V13.4015L21.685 13.1254L11.108 19.0723L1.18938 13.5077V11.2139L11.108 16.7785L22.1947 10.5343V6.26525L21.6425 5.94666L11.108 11.8723L1.69911 6.60507L11.108 1.31657L18.8389 5.67056L19.5186 5.28826V4.75728L11.108 0.0209961L0 6.26525V6.94489L11.108 13.1891L21.0053 7.6033V9.8971Z" fill="black"/>
<path d="M42.9449 20.432V1.35938H40.014V8.49566C40.014 8.60186 39.9502 8.68682 39.844 8.72929C39.7379 8.77177 39.6317 8.72929 39.5679 8.66558C38.5697 7.49743 37.0193 6.83903 35.3202 6.83903C31.6883 6.83903 28.8423 9.89742 28.8423 13.8054C28.8423 15.7169 29.5007 17.4797 30.7113 18.7753C31.9219 20.0709 33.5573 20.7718 35.3202 20.7718C36.998 20.7718 38.5485 20.0709 39.5679 18.8603C39.6317 18.7753 39.7591 18.7541 39.844 18.7753C39.9502 18.8178 40.014 18.9028 40.014 19.0089V20.432H42.9449ZM35.9573 18.1169C33.621 18.1169 31.7945 16.2266 31.7945 13.8054C31.7945 11.3842 33.621 9.49389 35.9573 9.49389C38.2936 9.49389 40.1201 11.3842 40.1201 13.8054C40.1201 16.2266 38.2936 18.1169 35.9573 18.1169Z" fill="black"/>
<path d="M58.619 20.432V7.15769H55.7093V8.49574C55.7093 8.60194 55.6456 8.68689 55.5394 8.72937C55.4332 8.77185 55.327 8.72937 55.2633 8.64442C54.2863 7.47627 52.7571 6.81787 51.0155 6.81787C47.3836 6.81787 44.5376 9.87627 44.5376 13.7842C44.5376 17.6922 47.3836 20.7506 51.0155 20.7506C52.6934 20.7506 54.2438 20.0497 55.2633 18.8178C55.327 18.7329 55.4544 18.7116 55.5394 18.7329C55.6456 18.7753 55.7093 18.8603 55.7093 18.9665V20.4107H58.619V20.432ZM51.6739 18.1169C49.3376 18.1169 47.5111 16.2267 47.5111 13.8054C47.5111 11.3842 49.3376 9.49397 51.6739 9.49397C54.0102 9.49397 55.8367 11.3842 55.8367 13.8054C55.8367 16.2267 54.0102 18.1169 51.6739 18.1169Z" fill="black"/>
<path d="M83.5326 20.432V7.15769H80.6229V8.49574C80.6229 8.60194 80.5592 8.68689 80.453 8.72937C80.3468 8.77185 80.2406 8.72937 80.1769 8.64442C79.1999 7.47627 77.6707 6.81787 75.9291 6.81787C72.276 6.81787 69.4512 9.87627 69.4512 13.8054C69.4512 17.7346 72.2972 20.7718 75.9291 20.7718C77.6069 20.7718 79.1574 20.0709 80.1769 18.8391C80.2406 18.7541 80.368 18.7329 80.453 18.7541C80.5592 18.7966 80.6229 18.8815 80.6229 18.9877V20.432H83.5326ZM76.5875 18.1169C74.2512 18.1169 72.4246 16.2267 72.4246 13.8054C72.4246 11.3842 74.2512 9.49397 76.5875 9.49397C78.9238 9.49397 80.7503 11.3842 80.7503 13.8054C80.7503 16.2267 78.9238 18.1169 76.5875 18.1169Z" fill="black"/>
<path d="M88.8636 18.8603C88.8848 18.8603 88.9273 18.839 88.9485 18.839C89.0122 18.839 89.0972 18.8815 89.1397 18.924C90.1379 20.0921 91.6884 20.7505 93.3875 20.7505C97.0193 20.7505 99.8653 17.6921 99.8653 13.7842C99.8653 11.8727 99.2069 10.1098 97.9963 8.81425C96.7857 7.51867 95.1503 6.81778 93.3875 6.81778C91.7096 6.81778 90.1592 7.51867 89.1397 8.72929C89.076 8.81425 88.9698 8.83549 88.8636 8.81425C88.7574 8.77177 88.6937 8.68682 88.6937 8.58062V1.35938H85.7627V20.432H88.6937V19.0939C88.6937 18.9877 88.7574 18.9028 88.8636 18.8603ZM88.5662 13.8054C88.5662 11.3842 90.3928 9.49389 92.7291 9.49389C95.0653 9.49389 96.8919 11.3842 96.8919 13.8054C96.8919 16.2266 95.0653 18.1169 92.7291 18.1169C90.3928 18.1169 88.5662 16.2054 88.5662 13.8054Z" fill="black"/>
<path d="M108.339 9.87604C108.616 9.87604 108.87 9.89728 109.04 9.93975V6.92382C108.934 6.90258 108.743 6.88135 108.552 6.88135C107.023 6.88135 105.621 7.66719 104.877 8.92028C104.814 9.02648 104.708 9.06896 104.601 9.02648C104.495 9.00524 104.41 8.89905 104.41 8.79285V7.15745H101.5V20.4531H104.431V14.5911C104.431 11.6814 105.918 9.87604 108.339 9.87604Z" fill="black"/>
<path d="M113.862 7.15723H110.888V20.4528H113.862V7.15723Z" fill="black"/>
<path d="M112.333 1.38037C111.334 1.38037 110.527 2.18745 110.527 3.18568C110.527 4.18391 111.334 4.99099 112.333 4.99099C113.331 4.99099 114.138 4.18391 114.138 3.18568C114.138 2.18745 113.331 1.38037 112.333 1.38037Z" fill="black"/>
<path d="M122.57 6.81787C118.492 6.81787 115.54 9.74884 115.54 13.8054C115.54 15.7807 116.24 17.5435 117.494 18.8178C118.768 20.0922 120.552 20.793 122.548 20.793C124.205 20.793 125.479 20.4745 127.901 18.6904L126.223 16.9276C125.033 17.7134 123.929 18.0957 122.846 18.0957C120.382 18.0957 118.534 16.2479 118.534 13.8054C118.534 11.363 120.382 9.51521 122.846 9.51521C124.014 9.51521 125.097 9.89751 126.18 10.6833L128.049 8.92052C125.862 7.0515 123.886 6.81787 122.57 6.81787Z" fill="black"/>
<path d="M133.062 14.591C133.104 14.5485 133.168 14.5273 133.232 14.5273H133.253C133.317 14.5273 133.38 14.5698 133.444 14.6122L138.138 20.4317H141.749L135.674 13.083C135.589 12.9768 135.589 12.8282 135.695 12.7432L141.281 7.15736H137.692L132.871 11.9998C132.807 12.0636 132.701 12.0848 132.595 12.0636C132.51 12.0211 132.446 11.9361 132.446 11.8299V1.38037H129.494V20.4529H132.425V15.2706C132.425 15.2069 132.446 15.122 132.51 15.0795L133.062 14.591Z" fill="black"/>
<path d="M146.527 20.7716C148.927 20.7716 151.37 19.3061 151.37 16.5238C151.37 14.6973 150.223 13.4442 147.887 12.6796L146.294 12.1486C145.21 11.7875 144.701 11.2778 144.701 10.5769C144.701 9.76985 145.423 9.21763 146.442 9.21763C147.419 9.21763 148.29 9.8548 148.842 10.9592L151.2 9.68489C150.329 7.90082 148.524 6.79639 146.442 6.79639C143.809 6.79639 141.897 8.49551 141.897 10.8105C141.897 12.6583 143.002 13.8902 145.274 14.6123L146.91 15.1433C148.056 15.5043 148.545 15.9716 148.545 16.7149C148.545 17.8406 147.504 18.2442 146.612 18.2442C145.423 18.2442 144.361 17.4796 143.851 16.2265L141.451 17.5008C142.237 19.5185 144.17 20.7716 146.527 20.7716Z" fill="black"/>
<path d="M66.7752 20.6439C67.7097 20.6439 68.5381 20.559 69.0053 20.4953V17.9466C68.623 17.9891 67.9434 18.0315 67.5398 18.0315C66.3505 18.0315 65.4372 17.8192 65.4372 15.2492V9.79085C65.4372 9.64218 65.5434 9.53599 65.692 9.53599H68.5593V7.13598H65.692C65.5434 7.13598 65.4372 7.02979 65.4372 6.88112V3.05811H62.5062V6.90236C62.5062 7.05103 62.4 7.15722 62.2513 7.15722H60.2124V9.55722H62.2513C62.4 9.55722 62.5062 9.66342 62.5062 9.81209V15.9926C62.5062 20.6439 65.6071 20.6439 66.7752 20.6439Z" fill="black"/>
</g>
<defs>
<clipPath id="clip0_300_167725">
<rect width="152" height="24" fill="white"/>
</clipPath>
</defs>
</svg>
