<svg width="135" height="34" viewBox="0 0 135 34" fill="none" xmlns="http://www.w3.org/2000/svg">
<g clip-path="url(#clip0_299_167528)">
<path d="M12.3594 11.514C12.3594 11.2292 12.1205 10.9902 11.8356 10.9902H11.3302C11.0453 10.9902 10.8064 11.2292 10.8064 11.514V12.0194C10.8064 12.3043 11.0453 12.5432 11.3302 12.5432H11.8356C12.1205 12.5432 12.3594 12.3043 12.3594 12.0194V11.514Z" fill="#909294"/>
<path d="M7.43387 1.44263L6.03711 3.86857L7.43387 6.28533H10.2274L11.6241 3.86857L10.2274 1.44263H7.43387Z" fill="black"/>
<path d="M11.0178 10.9075H6.63452V33.0167H11.0178V10.9075Z" fill="black"/>
<path d="M67.1546 1.44263L65.7578 3.86857L67.1546 6.28533H69.9481L71.354 3.86857L69.9481 1.44263H67.1546Z" fill="black"/>
<path d="M23.175 11.0545C23.2393 11.615 23.2853 12.2399 23.3128 12.9475C23.3404 13.6458 23.3588 14.2339 23.3588 14.6934H23.4966C23.7723 14.1053 24.1582 13.5539 24.6361 13.0393C25.1139 12.5248 25.6653 12.0745 26.2901 11.6885C26.915 11.3026 27.595 10.9994 28.3393 10.7788C29.0836 10.5583 29.8647 10.448 30.6734 10.448C32.1069 10.448 33.3291 10.6869 34.3582 11.1739C35.3874 11.661 36.242 12.3042 36.922 13.1129C37.602 13.9215 38.1074 14.868 38.4382 15.9615C38.7691 17.0458 38.9253 18.2129 38.9253 19.4626V33.1729H34.542V20.8961C34.542 19.9956 34.4685 19.141 34.3307 18.3323C34.1928 17.5237 33.9355 16.8069 33.5588 16.1821C33.182 15.5572 32.6766 15.061 32.0242 14.6934C31.3718 14.3166 30.5355 14.1329 29.5063 14.1329C27.7604 14.1329 26.3453 14.7945 25.2426 16.1177C24.1399 17.441 23.5885 19.2053 23.5885 21.4107V33.1637H19.2053V15.8145C19.2053 15.2264 19.1869 14.4637 19.1593 13.5264C19.1318 12.5983 19.0858 11.7712 19.0215 11.0545H23.175Z" fill="black"/>
<path d="M57.1291 16.6509C56.6329 15.8422 55.9345 15.1806 55.034 14.666C54.1334 14.1514 53.1226 13.8941 52.0015 13.8941C51.5053 13.8941 51.0091 13.9492 50.5129 14.0595C50.0167 14.1698 49.5756 14.3352 49.1805 14.5741C48.7945 14.8038 48.4821 15.1071 48.2432 15.4563C48.0134 15.8146 47.894 16.2557 47.894 16.7887C47.894 17.726 48.3167 18.4152 49.1529 18.8655C49.9891 19.3157 51.248 19.7292 52.9297 20.106C53.9864 20.3541 54.9697 20.6482 55.8702 20.9882C56.7707 21.3282 57.561 21.76 58.2226 22.2746C58.8934 22.7892 59.408 23.4049 59.7848 24.1125C60.1615 24.8292 60.3453 25.6655 60.3453 26.6303C60.3453 27.9352 60.0972 29.0379 59.601 29.9384C59.1048 30.839 58.4432 31.5833 57.6161 32.153C56.7891 32.7319 55.8518 33.1363 54.7951 33.3844C53.7383 33.6325 52.6448 33.7611 51.5329 33.7611C49.8513 33.7611 48.2156 33.4395 46.6075 32.7779C45.0086 32.1255 43.6761 31.133 42.6194 29.7914L45.7437 27.1357C46.3318 28.0087 47.1497 28.7346 48.188 29.3319C49.2264 29.92 50.3751 30.2141 51.6156 30.2141C52.1761 30.2141 52.7091 30.159 53.2237 30.0487C53.7383 29.9384 54.207 29.7638 54.6205 29.5157C55.0432 29.2676 55.374 28.9368 55.6221 28.5325C55.8702 28.1282 55.9988 27.6136 55.9988 26.9979C55.9988 25.9687 55.5118 25.206 54.5286 24.7098C53.5453 24.2136 52.1118 23.7449 50.2097 23.313C49.4653 23.1292 48.7118 22.8995 47.9491 22.633C47.1864 22.3665 46.4972 21.999 45.8724 21.5395C45.2475 21.0709 44.7421 20.4919 44.3561 19.7936C43.9702 19.0952 43.7772 18.2314 43.7772 17.2022C43.7772 16.0168 44.0161 15.006 44.5032 14.1422C44.981 13.2876 45.6151 12.5892 46.3961 12.0471C47.1772 11.5049 48.0594 11.1006 49.0518 10.8341C50.0442 10.5676 51.0734 10.439 52.1302 10.439C53.7199 10.439 55.2453 10.7514 56.7248 11.3763C58.2042 12.0011 59.3437 12.9017 60.1524 14.0779L57.1291 16.6509Z" fill="black"/>
<path d="M70.7475 11.0544H66.3643V33.1636H70.7475V11.0544Z" fill="black"/>
<path d="M90.5868 14.6476H84.7057V26.1341C84.7057 27.4665 84.9539 28.4222 85.4501 28.9919C85.9463 29.5709 86.7366 29.8557 87.8301 29.8557C88.2344 29.8557 88.6663 29.8098 89.1349 29.7271C89.6036 29.6444 90.0171 29.5157 90.3939 29.3411L90.5317 32.9341C89.9987 33.1179 89.4198 33.2649 88.7858 33.3752C88.1517 33.4855 87.4901 33.5406 86.8009 33.5406C84.7149 33.5406 83.1252 32.9617 82.0225 31.813C80.9198 30.6644 80.3685 28.9368 80.3685 26.6395V14.6476H76.123V11.0547H80.3685V4.71411H84.7057V11.0547H90.5868V14.6476Z" fill="black"/>
<path d="M96.4403 13.5265C96.4128 12.5984 96.3668 11.7714 96.3025 11.0546H100.456C100.52 11.6152 100.566 12.2584 100.594 12.9936C100.621 13.7287 100.64 14.326 100.64 14.7855H100.778C101.402 13.4806 102.312 12.433 103.507 11.6336C104.701 10.8433 106.052 10.439 107.541 10.439C108.221 10.439 108.8 10.5033 109.268 10.6227L109.085 14.6844C108.46 14.5282 107.798 14.4546 107.081 14.4546C106.025 14.4546 105.106 14.6476 104.325 15.0336C103.544 15.4195 102.9 15.9433 102.386 16.5957C101.871 17.2482 101.494 18.0017 101.246 18.8563C100.998 19.7109 100.87 20.6022 100.87 21.5395V33.1546H96.4863V15.8146C96.4863 15.2173 96.4679 14.4546 96.4403 13.5265Z" fill="black"/>
<path d="M133.997 22.0632C133.997 23.7724 133.693 25.3438 133.087 26.7773C132.48 28.2108 131.644 29.4421 130.569 30.4805C129.494 31.5189 128.226 32.3275 126.765 32.9065C125.304 33.4854 123.732 33.7702 122.051 33.7702C120.369 33.7702 118.798 33.4854 117.337 32.9065C115.875 32.3275 114.617 31.5189 113.56 30.4805C112.503 29.4421 111.667 28.2016 111.06 26.7773C110.454 25.3438 110.151 23.7724 110.151 22.0632C110.151 20.354 110.454 18.7919 111.06 17.3767C111.667 15.9616 112.494 14.7394 113.56 13.7194C114.617 12.6902 115.875 11.8908 117.337 11.3211C118.798 10.7421 120.369 10.4573 122.051 10.4573C123.732 10.4573 125.304 10.7421 126.765 11.3211C128.226 11.9 129.494 12.6994 130.569 13.7194C131.644 14.7486 132.48 15.9708 133.087 17.3767C133.693 18.7919 133.997 20.354 133.997 22.0632ZM129.42 22.0816C129.42 21.0248 129.255 20.0232 128.933 19.0584C128.603 18.0935 128.134 17.2573 127.509 16.5221C126.884 15.7962 126.112 15.2081 125.193 14.7762C124.274 14.3443 123.218 14.1238 122.032 14.1238C120.847 14.1238 119.79 14.3443 118.871 14.7762C117.952 15.2081 117.18 15.787 116.556 16.5221C115.931 17.2481 115.453 18.0935 115.131 19.0584C114.8 20.0232 114.644 21.0248 114.644 22.0816C114.644 23.1384 114.81 24.1492 115.131 25.1048C115.462 26.0697 115.931 26.9151 116.556 27.6594C117.18 28.4038 117.952 28.9919 118.871 29.4238C119.79 29.8557 120.847 30.0762 122.032 30.0762C123.218 30.0762 124.274 29.8557 125.193 29.4238C126.112 28.9919 126.884 28.4038 127.509 27.6594C128.134 26.9151 128.612 26.0605 128.933 25.1048C129.255 24.1492 129.42 23.1384 129.42 22.0816Z" fill="black"/>
<path d="M12.4788 26.7664C13.031 26.7664 13.4788 26.3186 13.4788 25.7664C13.4788 25.2141 13.031 24.7664 12.4788 24.7664C11.9265 24.7664 11.4788 25.2141 11.4788 25.7664C11.4788 26.3186 11.9265 26.7664 12.4788 26.7664Z" fill="#909294"/>
<path d="M15.8421 33.1638C16.4968 33.1638 17.0275 32.6331 17.0275 31.9784C17.0275 31.3237 16.4968 30.793 15.8421 30.793C15.1875 30.793 14.6567 31.3237 14.6567 31.9784C14.6567 32.6331 15.1875 33.1638 15.8421 33.1638Z" fill="#909294"/>
<path d="M15.0701 29.615C15.6224 29.615 16.0701 29.1673 16.0701 28.615C16.0701 28.0627 15.6224 27.615 15.0701 27.615C14.5178 27.615 14.0701 28.0627 14.0701 28.615C14.0701 29.1673 14.5178 29.615 15.0701 29.615Z" fill="#909294"/>
<path d="M5.62378 22.8701C6.17606 22.8701 6.62378 22.4224 6.62378 21.8701C6.62378 21.3178 6.17606 20.8701 5.62378 20.8701C5.07149 20.8701 4.62378 21.3178 4.62378 21.8701C4.62378 22.4224 5.07149 22.8701 5.62378 22.8701Z" fill="#909294"/>
<path d="M4.32798 18.8654C4.32798 18.3876 3.93284 17.9924 3.455 17.9924H3.12419C2.64636 17.9924 2.25122 18.3876 2.25122 18.8654V19.187C2.25122 19.6649 2.64636 20.06 3.12419 20.06H3.44582C3.92365 20.06 4.31879 19.6649 4.31879 19.187V18.8654H4.32798Z" fill="#909294"/>
<path d="M4.32792 15.0609C4.32792 14.675 4.01549 14.3625 3.62955 14.3625H2.43495C2.049 14.3625 1.73657 14.675 1.73657 15.0609V16.2555C1.73657 16.6415 2.049 16.9539 2.43495 16.9539H3.62955C4.01549 16.9539 4.32792 16.6415 4.32792 16.2555V15.0609Z" fill="#909294"/>
<path d="M13.5081 6.93781C13.5081 6.74484 13.3519 6.58862 13.1589 6.58862H11.2659C11.073 6.58862 10.9167 6.74484 10.9167 6.93781V8.83078C10.9167 9.02376 11.073 9.17997 11.2659 9.17997H13.1589C13.3519 9.17997 13.5081 9.02376 13.5081 8.83078V6.93781Z" fill="#909294"/>
<path d="M16.1085 3.64798C16.1085 3.55609 16.0258 3.47339 15.9339 3.47339H14.2063C14.1144 3.47339 14.0317 3.55609 14.0317 3.64798V5.37555C14.0317 5.46744 14.1144 5.55015 14.2063 5.55015H15.9339C16.0258 5.55015 16.1085 5.46744 16.1085 5.37555V3.64798Z" fill="#909294"/>
<path d="M16.6201 2.43652H15.0671V0.883551L16.6201 0.883551V2.43652Z" fill="#909294"/>
<path d="M1.51611 32.9783C2.0684 32.9783 2.51611 32.5306 2.51611 31.9783C2.51611 31.426 2.0684 30.9783 1.51611 30.9783C0.963829 30.9783 0.516113 31.426 0.516113 31.9783C0.516113 32.5306 0.963829 32.9783 1.51611 32.9783Z" fill="#909294"/>
<path d="M6.7998 7.96687C6.7998 7.77389 6.64358 7.61768 6.45061 7.61768H5.59602C5.40304 7.61768 5.24683 7.77389 5.24683 7.96687V8.82146C5.24683 9.01443 5.40304 9.17065 5.59602 9.17065H6.45061C6.64358 9.17065 6.7998 9.01443 6.7998 8.82146V7.96687Z" fill="#909294"/>
<path d="M2.91289 29.6534C3.48637 29.6534 3.95127 29.1885 3.95127 28.615C3.95127 28.0416 3.48637 27.5767 2.91289 27.5767C2.33941 27.5767 1.87451 28.0416 1.87451 28.615C1.87451 29.1885 2.33941 29.6534 2.91289 29.6534Z" fill="#909294"/>
<path d="M15.4653 14.2799C15.4653 13.894 15.1528 13.5815 14.7669 13.5815H14.0961C13.7101 13.5815 13.3977 13.894 13.3977 14.2799V14.9507C13.3977 15.3367 13.7101 15.6491 14.0961 15.6491H14.7669C15.1528 15.6491 15.4653 15.3367 15.4653 14.9507V14.2799Z" fill="#909294"/>
<path d="M3.95127 4.68656C3.95127 4.59467 3.86857 4.51196 3.77667 4.51196H2.04911C1.95721 4.51196 1.87451 4.59467 1.87451 4.68656V6.41412C1.87451 6.50602 1.95721 6.58872 2.04911 6.58872H3.77667C3.86857 6.58872 3.95127 6.50602 3.95127 6.41412V4.68656Z" fill="#909294"/>
<path d="M16.2465 17.5697C16.2465 17.0919 15.8513 16.6968 15.3735 16.6968H14.5373C14.0594 16.6968 13.6643 17.0919 13.6643 17.5697V18.406C13.6643 18.8838 14.0594 19.2789 14.5373 19.2789H15.3735C15.8513 19.2789 16.2465 18.8838 16.2465 18.406V17.5697Z" fill="#909294"/>
<path d="M3.43042 3.47314L0.839069 3.47314L0.839069 0.881793L3.43042 0.881793L3.43042 3.47314Z" fill="#909294"/>
<path d="M7.31458 25.1692C7.31458 24.4984 6.76323 23.947 6.09242 23.947H5.95458C5.28377 23.947 4.73242 24.4984 4.73242 25.1692V25.307C4.73242 25.9778 5.28377 26.5292 5.95458 26.5292H6.09242C6.76323 26.5292 7.31458 25.9778 7.31458 25.307V25.1692Z" fill="#909294"/>
<path d="M13.655 21.374C13.655 20.7951 13.1864 20.3264 12.6075 20.3264H11.5966C11.0177 20.3264 10.5491 20.7951 10.5491 21.374V22.3848C10.5491 22.9637 11.0177 23.4324 11.5966 23.4324H12.6075C13.1864 23.4324 13.655 22.9637 13.655 22.3848V21.374Z" fill="#909294"/>
<path d="M7.69115 10.733C7.69115 10.4481 7.45223 10.2092 7.16737 10.2092H5.10899C4.82412 10.2092 4.58521 10.4481 4.58521 10.733V12.7914C4.58521 13.0763 4.82412 13.3152 5.10899 13.3152H7.16737C7.45223 13.3152 7.69115 13.0763 7.69115 12.7914V10.733Z" fill="#909294"/>
<path d="M131.653 11.8081C131.653 11.6151 131.69 11.4405 131.764 11.2751C131.837 11.1097 131.929 10.9627 132.058 10.8432C132.177 10.7238 132.324 10.6319 132.49 10.5584C132.655 10.4848 132.83 10.4573 133.013 10.4573C133.197 10.4573 133.372 10.494 133.537 10.5584C133.703 10.6227 133.84 10.7238 133.969 10.8432C134.088 10.9627 134.19 11.1097 134.263 11.2751C134.337 11.4405 134.373 11.6243 134.373 11.8081C134.373 12.0011 134.337 12.1848 134.263 12.3502C134.19 12.5157 134.098 12.6535 133.969 12.773C133.85 12.8924 133.703 12.9843 133.537 13.0578C133.372 13.1221 133.197 13.1589 133.013 13.1589C132.83 13.1589 132.655 13.1221 132.49 13.0578C132.324 12.9843 132.186 12.8924 132.058 12.773C131.938 12.6535 131.837 12.5065 131.764 12.3502C131.69 12.1757 131.653 12.0011 131.653 11.8081ZM131.892 11.8081C131.892 11.9735 131.92 12.1297 131.984 12.2675C132.039 12.4054 132.122 12.534 132.223 12.6351C132.324 12.7362 132.444 12.8189 132.572 12.874C132.71 12.9292 132.857 12.9659 133.004 12.9659C133.16 12.9659 133.307 12.9384 133.436 12.874C133.574 12.8189 133.684 12.7362 133.785 12.6351C133.886 12.534 133.969 12.4146 134.024 12.2675C134.079 12.1297 134.107 11.9735 134.107 11.8081C134.107 11.6427 134.079 11.4957 134.024 11.3486C133.969 11.2108 133.886 11.0821 133.785 10.9811C133.684 10.88 133.565 10.7973 133.436 10.7421C133.298 10.687 133.16 10.6502 133.004 10.6502C132.848 10.6502 132.701 10.6778 132.572 10.7421C132.434 10.7973 132.315 10.88 132.223 10.9811C132.122 11.0821 132.048 11.2108 131.984 11.3486C131.92 11.4865 131.892 11.6427 131.892 11.8081ZM132.49 11.0086H133.087C133.454 11.0086 133.638 11.1557 133.638 11.4589C133.638 11.6059 133.601 11.707 133.519 11.7713C133.436 11.8357 133.335 11.8816 133.225 11.8908L133.675 12.5892H133.418L132.986 11.9092H132.728V12.5892H132.49V11.0086ZM132.728 11.7162H132.977C133.032 11.7162 133.078 11.7162 133.133 11.707C133.188 11.707 133.225 11.6886 133.271 11.6794C133.307 11.6611 133.344 11.6335 133.363 11.5967C133.39 11.56 133.399 11.514 133.399 11.4497C133.399 11.3946 133.39 11.3578 133.363 11.3211C133.344 11.2843 133.317 11.2659 133.28 11.2475C133.243 11.2292 133.206 11.22 133.17 11.2108C133.124 11.2016 133.087 11.2016 133.05 11.2016H132.738V11.7162H132.728Z" fill="black"/>
</g>
<defs>
<clipPath id="clip0_299_167528">
<rect width="135" height="34" fill="white"/>
</clipPath>
</defs>
</svg>
