<svg width="450" height="50" viewBox="0 0 450 50" fill="none" xmlns="http://www.w3.org/2000/svg">
<g clip-path="url(#clip0_297_167432)">
<path d="M191.613 24.6772C191.613 28.5482 193.064 32.2579 195.806 34.9998C198.548 37.7418 202.258 39.1934 206.129 39.1934C214.193 39.1934 220.645 32.7418 220.645 24.6772C220.806 20.8063 219.355 16.9353 216.613 14.1934C213.871 11.4514 210 9.83854 206.129 9.99983C198.064 10.1611 191.613 16.6127 191.613 24.6772ZM197.097 24.6772C197.097 19.516 200.806 14.6772 206.29 14.6772C211.774 14.6772 215.484 18.7095 215.484 24.6772C215.645 27.2579 214.677 29.6772 212.903 31.6127C211.129 33.5482 208.71 34.516 206.29 34.516C200.806 34.6772 197.097 30.4837 197.097 24.6772Z" fill="black"/>
<path d="M159.839 24.6773C159.678 28.5482 161.129 32.4192 163.871 35.1611C166.613 37.9031 170.484 39.3547 174.355 39.1934C178.71 39.3547 182.903 37.2579 185.484 33.7095L185.645 33.5482L181.613 30.1611L181.452 30.4837C180 33.2256 177.258 34.8386 174.194 34.6773C168.71 34.6773 165 30.3224 165 24.6773C164.839 22.0966 165.807 19.6773 167.419 17.7418C169.194 15.8063 171.613 14.6773 174.194 14.6773C177.097 14.6773 179.839 16.2902 181.452 18.7095L181.613 18.8708L185.645 15.645L185.484 15.4837C182.742 12.0966 178.548 10.1611 174.194 10.1611C170.323 10.1611 166.613 11.6127 164.032 14.3547C161.452 17.0966 159.839 20.8063 159.839 24.6773Z" fill="black"/>
<path d="M364.355 26.9357V38.5486H369.516V26.9357L379.677 10.8066H374.032L366.935 21.9357L360.161 10.8066H354.193L364.355 26.9357Z" fill="black"/>
<path d="M270 10.8066V38.5486H275.323V28.226C275.645 28.226 276.129 28.3873 276.613 28.3873C283.387 28.3873 288.065 25.4841 288.065 19.6776C288.065 14.1937 284.032 10.8066 276.452 10.8066H270ZM275.323 15.0002H276.613C280.968 15.0002 282.742 16.6131 282.742 19.5163C282.742 22.4195 280.806 24.0324 276.613 24.0324C276.129 24.0324 275.806 24.0324 275.323 23.8712V15.0002Z" fill="black"/>
<path d="M234.839 23.5486L243.548 39.355L252.097 23.5486L255.484 38.5486H260.968L253.71 10.3228L243.71 29.0324L233.387 10.3228L226.452 38.7098H231.613L234.839 23.5486Z" fill="black"/>
<path d="M92.4193 27.2582L74.0322 10.3228V38.7098H79.0322V22.2582L97.5806 39.355V10.8066H92.4193V27.2582Z" fill="black"/>
<path d="M56.6128 10.8066V38.5486H61.9354V10.8066H56.6128Z" fill="black"/>
<path d="M49.8385 38.5482L36.2901 10.1611L22.7417 38.5482H28.0643L30.8062 32.5805H41.4514L44.032 38.5482H49.8385ZM32.7417 28.2256L36.2901 20.1611L39.5159 28.2256H32.7417Z" fill="black"/>
<path d="M13.3871 23.8712C15.6452 22.9034 17.0968 20.4841 17.0968 18.0647C17.0968 13.226 13.2258 10.8066 6.6129 10.8066H0V38.5486H7.90323C15 38.5486 18.871 35.6453 18.871 30.4841C18.7097 27.2583 16.4516 24.5163 13.3871 23.8712ZM7.58064 26.7744C11.2903 26.7744 13.3871 27.7421 13.3871 30.6453C13.3871 33.226 11.4516 34.355 7.58064 34.355H5.32258V26.7744H7.58064ZM5.32258 22.5808V15.0002H6.29032C10.1613 15.0002 12.0968 15.9679 12.0968 18.8712C12.0968 21.7744 10.1613 22.5808 6.45161 22.5808H5.32258Z" fill="black"/>
<path d="M137.258 38.7095H143.387C143.387 38.7095 138.71 33.3869 137.903 32.4192C138.548 31.6127 142.581 25.4837 142.581 25.4837H137.581L135.161 29.1934L130.806 24.1934C134.516 22.2579 136.774 19.516 136.774 16.6127C136.774 12.7418 133.387 10.1611 129.032 10.1611C124.194 10.1611 120.968 13.0644 120.968 16.9353C121.129 19.516 122.258 21.774 124.032 23.5482C121.129 25.1611 118.548 27.5805 118.548 31.6127C118.548 35.9676 122.097 39.3547 127.258 39.3547C130.161 39.3547 133.064 38.2256 135 35.9676L137.258 38.7095ZM125.806 17.0966C125.806 16.2902 126.129 15.3224 126.774 14.8386C127.419 14.1934 128.226 13.8708 129.032 13.8708C129.839 13.8708 130.645 14.0321 131.29 14.6773C131.935 15.1611 132.258 15.9676 132.097 16.774C132.097 18.7095 130.161 20.1611 128.226 21.1289C126.935 20.1611 125.968 18.7095 125.806 17.0966ZM132.097 32.9031C131.129 34.1934 129.516 34.9998 127.742 34.9998C126.613 35.1611 125.645 34.6773 124.839 34.0321C124.032 33.2256 123.548 32.2579 123.548 31.1289C123.71 29.1934 124.839 27.5805 126.452 26.6127H126.613L132.097 32.9031Z" fill="black"/>
<path d="M342.742 27.2582L324.355 10.3228V38.5486H329.516V22.2582L347.903 39.355V10.8066H342.742V27.2582Z" fill="black"/>
<path d="M317.581 38.5482L304.032 10.1611L290.484 38.5482H295.806L298.548 32.5805H309.194L311.774 38.5482H317.581ZM300.484 28.2256L304.032 20.1611L307.258 28.2256H300.484Z" fill="black"/>
<path d="M434.032 25.9677L429.516 5.96774L417.097 22.0968L434.032 25.9677ZM450 24.6774C450 38.2258 438.871 49.3548 425.322 49.3548C411.774 49.3548 400.645 38.2258 400.645 24.6774C400.645 11.129 411.774 0 425.322 0C426.613 0 427.903 0.16129 429.193 0.322581L427.097 3.06452H425.322C419.839 3.06452 414.677 5.16129 410.645 8.87097C406.774 12.7419 404.516 17.9032 404.516 23.3871C404.516 34.8387 413.871 44.1936 425.322 44.1936C436.774 44.1936 446.129 34.8387 446.129 23.3871C446.129 15 440.806 7.41936 432.903 4.51613L432.097 1.12903C442.742 4.03226 450 13.7097 450 24.6774Z" fill="black"/>
</g>
<defs>
<clipPath id="clip0_297_167432">
<rect width="450" height="50" fill="white"/>
</clipPath>
</defs>
</svg>
