<svg width="1000" height="185" viewBox="0 0 1000 185" fill="none" xmlns="http://www.w3.org/2000/svg">
<g clip-path="url(#clip0_297_167413)">
<path d="M987.1 147.9V145.1H988.8C989.7 145.1 991.1 145.2 991.1 146.3C991.1 147.5 990.4 147.8 989.3 147.8H987.1M987.1 149.8H988.3L991.1 154.6H994.1L991 149.6C992.5 149.5 993.9 148.8 993.9 146.6C993.9 143.9 992.1 143.1 989 143.1H984.6V154.6H987.2L987.1 149.8ZM1000 148.9C1000 142.1 994.8 138.2 988.9 138.2C983.1 138.2 977.8 142.1 977.8 148.9C977.8 155.7 983 159.6 988.9 159.6C994.8 159.6 1000 155.7 1000 148.9ZM996.8 148.9C996.8 153.8 993.2 157.1 988.9 157.1C984.5 157.1 981 153.8 981 148.9C981 144 984.6 140.7 988.9 140.7C993.2 140.8 996.8 144.1 996.8 148.9Z" fill="black"/>
<path d="M593.2 34.9002V156H627.4V34.9002H593.2ZM324.4 34.7002V155.9H358.9V61.8002L385.8 61.9002C394.6 61.9002 400.8 64.1002 405 68.6002C410.4 74.3002 412.6 83.7002 412.6 100.6V155.9H446V89.0002C446 41.2002 415.5 34.7002 385.8 34.7002C385.8 34.7002 324.4 34.7002 324.4 34.7002ZM648.3 34.9002V156H703.7C733.2 156 742.9 151.1 753.3 140.1C760.7 132.4 765.4 115.4 765.4 96.8002C765.4 79.8002 761.4 64.6002 754.3 55.1002C741.8 38.2002 723.5 34.9002 696.2 34.9002H648.3ZM682.2 61.2002H696.9C718.2 61.2002 732 70.7002 732 95.6002C732 120.4 718.3 130 696.9 130H682.2V61.2002ZM544 34.9002L515.5 130.8L488.2 34.9002H451.3L490.3 156H539.5L578.8 34.9002H544ZM781.4 155.9H815.6V34.9002H781.4V155.9ZM877.2 34.9002L829.5 155.9H863.2L870.8 134.6H927.3L934.5 155.9H971.1L922.9 34.9002H877.2ZM899.4 57.0002L920.1 113.6H878L899.4 57.0002Z" fill="black"/>
<path d="M103.9 55V38.4C105.5 38.3 107.2 38.2 108.8 38.2C154.4 36.8 184.2 77.3 184.2 77.3C184.2 77.3 152 122.1 117.4 122.1C112.4 122.1 108 121.3 104 119.9V69.4C121.7 71.6 125.3 79.4 136 97.1L159.7 77.1C159.7 77.1 142.4 54.4 113.2 54.4C110 54.5 106.9 54.7 103.9 55ZM103.9 0V24.8C105.5 24.7 107.2 24.6 108.8 24.5C172.1 22.3 213.4 76.4 213.4 76.4C213.4 76.4 166 134.1 116.7 134.1C112.2 134.1 108 133.7 104 133V148.4C107.4 148.8 111 149.1 114.6 149.1C160.6 149.1 193.8 125.6 226 97.9C231.3 102.2 253.2 112.6 257.7 117.1C227.1 142.7 155.8 163.4 115.4 163.4C111.5 163.4 107.8 163.2 104.1 162.8V184.4H278.8V0H103.9ZM103.9 120V133.1C61.4 125.5 49.6 81.3 49.6 81.3C49.6 81.3 70 58.7 103.9 55V69.4C103.9 69.4 103.9 69.4 103.8 69.4C86.1 67.2 72.1 83.9 72.1 83.9C72.1 83.9 80 111.8 103.9 120ZM28.4 79.4C28.4 79.4 53.6 42.3 103.9 38.4V24.9C48.2 29.4 0 76.6 0 76.6C0 76.6 27.3 155.6 103.9 162.9V148.5C47.7 141.4 28.4 79.4 28.4 79.4Z" fill="black"/>
</g>
<defs>
<clipPath id="clip0_297_167413">
<rect width="1000" height="184.4" fill="white"/>
</clipPath>
</defs>
</svg>
