<svg width="267" height="54" viewBox="0 0 267 54" fill="none" xmlns="http://www.w3.org/2000/svg">
<g clip-path="url(#clip0_296_167411)">
<path d="M257.833 13.9998C257.833 15.1712 258.299 16.2946 259.127 17.1229C259.955 17.9512 261.079 18.4165 262.25 18.4165C263.421 18.4165 264.545 17.9512 265.373 17.1229C266.201 16.2946 266.667 15.1712 266.667 13.9998C266.667 12.8285 266.201 11.7051 265.373 10.8768C264.545 10.0485 263.421 9.58317 262.25 9.58317C261.079 9.58317 259.955 10.0485 259.127 10.8768C258.299 11.7051 257.833 12.8285 257.833 13.9998ZM243.833 9.99984H234.5L247.167 31.9998L234.5 53.9998H243.833L256.5 31.9998L243.833 9.99984ZM225.833 29.9998C225.833 32.6665 223.667 34.3332 220.333 34.3332C217.5 34.3332 215.667 32.9998 215.667 30.9998C215.667 29.1665 217 27.9998 220 27.3332L225.833 26.6665V29.9998ZM233.667 30.1665V20.3332C233.667 15.6665 233 14.1665 230.5 12.3332C227.896 10.4351 224.717 9.49322 221.5 9.6665C217 9.6665 213.167 10.6665 209.333 12.9998L212.667 18.9998C215.833 17.3332 218.833 16.3332 221.333 16.3332C223.333 16.3332 224.667 17.1665 225.333 18.3332C225.667 18.9998 225.667 18.8332 225.667 20.8332C219 21.3332 214.333 22.1665 211.667 23.8332C210.482 24.5745 209.508 25.6074 208.837 26.833C208.166 28.0586 207.82 29.4359 207.833 30.8332C207.833 36.4998 212.833 40.8332 219.5 40.8332C223 40.8332 225.333 39.8332 227 37.4998C228.667 39.6665 230.5 40.8332 232.833 40.8332H233.5L236.833 34.9998C234.167 34.3332 233.667 33.6665 233.667 30.1665ZM103.667 32.3332L100.5 32.8332C97.5 32.8332 96.6667 31.8332 96.6667 27.9998V16.4998H103.667V9.99984H96.6667V0.666504H88.6667V9.99984H84V16.6665H88.6667V31.4998C88.6667 34.8332 88.8333 36.1665 89.8333 37.3332C91.1667 38.9998 93.6667 39.9998 97.3333 39.9998C99.6667 39.9998 101.833 39.8332 103.667 39.1665V32.3332ZM113.667 25.3332C113.667 30.3332 117.167 33.6665 121.833 33.6665C126.333 33.6665 129.833 30.3332 129.833 25.3332C129.833 20.3332 126.333 16.8332 121.667 16.8332C117 16.8332 113.667 20.1665 113.667 25.1665V25.3332ZM137.5 25.3332C137.5 34.1665 130.833 40.8332 121.833 40.8332C112.667 40.8332 106 34.1665 106 25.3332C106 16.3332 112.667 9.6665 121.833 9.6665C130.833 9.6665 137.5 16.3332 137.5 25.3332ZM58.8333 25.3332C58.8333 30.3332 62.1667 33.6665 66.8333 33.6665C71.3333 33.6665 74.8333 30.3332 74.8333 25.3332C74.8333 20.3332 71.5 16.8332 66.8333 16.8332C62.1667 16.8332 58.8333 20.1665 58.8333 25.1665V25.3332ZM82.6667 25.3332C82.6667 34.1665 76 40.8332 66.8333 40.8332C57.6667 40.8332 51 34.1665 51 25.3332C51 16.3332 57.6667 9.6665 66.8333 9.6665C75.8333 9.6665 82.6667 16.3332 82.6667 25.3332ZM198.667 39.9998H189.333L184.5 21.9998L180.167 39.9998H170.5L162.167 9.99984H170.5L175.5 30.3332L180 9.99984H188.667L193.667 30.3332L198.667 9.99984H206.833L198.5 39.9998H198.667ZM141.333 39.9998V9.99984H148.833L149.333 13.3332C151.833 10.8332 153.833 9.6665 156.333 9.6665C157.167 9.6665 158 9.6665 159.333 9.99984V17.4998H158.167C155.333 17.4998 153.5 17.9998 151.833 19.4998C149.833 21.1665 149.333 22.4998 149.333 26.6665V39.9998H141.333ZM38.6667 39.9998V23.8332C38.6667 18.9998 37 16.8332 33.3333 16.8332C31.3333 16.8332 29.5 17.8332 28.3333 19.4998C27.5 20.8332 27.1667 22.3332 27.1667 24.9998V39.9998H19.3333V24.6665C19.3333 21.9998 19 20.3332 18.3333 19.1665C17.8275 18.4544 17.1495 17.8822 16.3625 17.5033C15.5756 17.1244 14.7054 16.9512 13.8333 16.9998C10 16.9998 7.83333 19.4998 7.83333 24.3332V39.9998H0V9.99984H7.33333L7.83333 12.4998C10.8333 10.3332 12.8333 9.6665 15.6667 9.6665C19.5 9.6665 22.3333 10.9998 25.1667 14.1665C28.5 10.8332 31.5 9.6665 35.1667 9.6665C39.1667 9.6665 42.5 11.3332 44.5 14.1665C46.1667 16.3332 46.5 18.1665 46.5 22.4998V39.9998H38.6667Z" fill="black"/>
</g>
<defs>
<clipPath id="clip0_296_167411">
<rect width="267" height="54" fill="white"/>
</clipPath>
</defs>
</svg>
