<svg width="716" height="247" viewBox="0 0 716 247" fill="none" xmlns="http://www.w3.org/2000/svg">
<path d="M497.884 234.857H482.491V239.593H529.46V234.857H516.83V152.365L515.251 153.944L513.278 155.128L509.331 156.312L504.989 157.102H484.859V161.838H497.884V234.857Z" fill="black"/>
<path d="M199.494 234.857H183.706V239.593H230.675V234.857H218.045V152.365L216.466 153.944L214.492 155.128L210.545 156.312L206.204 157.102H185.68V161.838H199.494V234.857Z" fill="black"/>
<path d="M552.747 234.856H537.749V239.593H585.507V234.856H571.693V161.837H605.637V234.856H593.006V239.593H639.581V234.856H624.188V152.365L623.003 153.943L621.03 155.127L616.688 156.312L611.952 157.101H571.693C573.732 140.122 566.463 116.197 581.166 102.633L583.928 100.659L586.297 99.0805L589.059 98.2911L592.217 97.8964L595.375 97.107L599.322 96.7124H602.479L605.242 97.107L607.61 98.2911L609.584 99.0805L611.557 100.265L612.741 101.054L613.531 102.633L613.925 103.817L613.531 105.001L612.741 106.185L610.373 107.369L608.4 108.948C602.729 113.934 605.058 120.631 611.163 123.552C616.688 126.393 622.938 122.144 624.977 116.842C628.838 103.916 616.215 93.8048 604.453 92.3707C563.273 87.2725 549.485 122.302 552.747 157.101H535.775V161.837H552.747V234.856Z" fill="black"/>
<path d="M51.8773 179.599C89.5972 184.21 92.643 232.561 53.4562 237.225C25.913 238.659 11.3683 215.142 9.25008 190.256H4.11915V241.172H9.25008L10.0396 238.409L10.829 236.436L12.4077 235.251L15.1705 234.857C22.3277 235.488 30.6954 239.501 37.6684 241.567C51.9827 244.237 68.5006 243.139 80.2955 233.673C98.7936 219.187 100.241 182.171 81.085 167.758C58.1268 149.385 -0.939609 157.371 19.5123 111.317C43.8519 85.5035 79.0128 109.797 81.085 141.708H86.2159V99.8704H81.4796C78.2562 118.48 41.543 71.643 10.0396 110.922C1.82333 122.677 2.84941 136.183 5.30311 149.602C13.4931 171.258 31.2347 174.29 51.8773 179.599Z" fill="black"/>
<path d="M433.944 223.805L434.338 228.936L435.522 232.883L437.496 236.041L440.259 238.409L443.022 240.383L446.969 241.961L451.705 242.356C462.243 244.672 474.347 240.172 478.544 229.331L474.597 226.963L472.624 230.12L469.466 233.278L468.282 234.067L466.309 235.251L464.335 236.041H459.994L458.415 235.646L456.441 235.251L455.652 234.067L454.073 232.883L453.678 230.91L452.889 228.147L452.494 225.779V161.838H474.597V157.101H452.494V131.841H448.942C446.508 150.017 436.351 157.785 418.156 157.101V161.838H433.944V223.805Z" fill="black"/>
<path d="M374.345 234.857H387.764V170.127L386.975 167.364L385.791 164.601L384.607 163.417L382.633 161.838L380.66 160.654L378.292 159.865C366.056 158.68 356.432 168.212 350.268 177.626V234.857H364.477V239.593H316.324V234.857H330.928V161.838H316.324V157.102H338.033L342.769 156.312L344.742 155.918L346.716 155.523L349.873 152.365V169.337C358.853 157.444 371.312 150.254 386.58 153.155L391.711 154.339L396.842 157.102L400 160.259L403.157 163.812L405.131 168.153L406.315 172.89L407.104 178.021V234.857H421.708V239.593H374.345V234.857Z" fill="black"/>
<path d="M173.049 212.359C168.905 231.613 147.414 244.855 131.211 229.725L129.238 225.778L127.264 221.042L126.475 215.516V183.151L127.264 177.625C129.205 170.014 134.31 160.377 143.052 159.469C148.361 157.496 156.518 158.68 160.814 162.627L161.603 163.811L162.787 165.39V168.153L161.998 169.337L160.024 170.916L158.84 173.678C154.341 183.27 168.201 189.401 174.233 182.362C192.916 151.747 110.957 134.097 105.951 193.413C98.787 248.487 168.398 262.748 177.786 212.359H173.049Z" fill="black"/>
<path d="M706.679 212.359C703.647 232.37 679.656 244.178 665.631 229.331L662.868 225.384L661.684 221.042L660.5 215.122L660.105 208.807V189.861L660.5 183.152L661.684 177.626C662.401 168.949 668.92 161.272 677.077 158.68C686.326 158.055 686.556 158.338 694.838 162.232L696.023 163.811L696.812 165.39V167.758L696.417 169.337L694.444 170.916L692.865 173.679C690.595 176.797 692.694 182.244 696.023 183.941L697.207 184.335L699.18 185.125H701.154L705.101 184.335L706.679 183.152L708.258 182.362C720.507 164.239 691.536 150.365 676.682 153.944C655.717 155.621 641.535 172.705 639.581 193.019C633.121 244.415 698.66 265.34 712.205 212.359H706.679Z" fill="black"/>
<path d="M304.483 211.569C303.332 222.904 292.031 237.231 279.617 236.041C254.765 237.666 257.528 206.504 258.304 190.651H311.193C313.857 173.843 299.536 157.72 283.564 154.338C264.626 149.72 245.798 163.456 240.148 181.178C233.76 200.025 237.609 223.193 253.568 236.041C276.802 251.112 305.641 239.994 309.614 211.569H304.483ZM292.248 184.335V185.125L291.458 185.914H259.093C254.015 149.635 297.076 148.629 292.248 184.335Z" fill="black"/>
<path d="M128.448 8.30078C174.661 3.00527 173.095 63.3281 128.448 57.6379V8.30078ZM108.713 119.211H96.0831V124.342C122.251 123.44 180.917 135.669 187.258 94.3447C188.764 72.5772 174.253 62.611 153.709 60.4007V59.6113C172.74 58.3286 185.16 43.4814 181.338 24.878L180.943 22.5099L179.364 19.3523L177.785 17.3788L176.207 15.0106L174.233 13.0371L169.497 9.09014L166.734 7.90618L163.181 6.72206L159.629 5.14318L151.735 3.95921L143.052 3.56445H95.6885V8.30078H108.713V119.211ZM128.448 61.9796C180.292 54.1449 180.476 128.137 128.448 119.211V61.9796Z" fill="black"/>
<path d="M195.547 88.0296C196.803 139.695 266.612 139.695 268.566 88.0296C266.632 35.3178 196.126 36.4756 195.547 88.0296ZM249.62 92.3713C249.87 108.139 247.89 123.447 228.701 121.579C208.795 118.487 214.749 91.6937 213.703 77.7675C213.775 63.4269 219.439 52.2833 235.017 54.0857L237.385 54.8751L240.147 55.2699L242.121 56.8486L244.094 57.6379L245.279 59.6114L246.463 61.1903C251.725 71.6498 248.857 81.0303 249.62 92.3713Z" fill="black"/>
<path d="M383.028 88.0292C384.245 139.708 454.718 139.715 456.047 88.0292C455.323 35.9951 383.646 35.949 383.028 88.0292ZM437.891 92.371C437.976 107.126 435.351 123.559 416.972 121.578C396.395 119.487 402.769 91.9894 401.579 78.1618C401.144 63.6436 406.611 52.3685 422.497 54.0854L425.26 54.8748L427.628 55.2695L429.602 56.8483L431.575 57.6376L432.76 59.6111L433.944 61.19C439.423 73.3269 437.535 79.5236 437.891 92.371Z" fill="black"/>
<path d="M508.147 119.211H518.804V65.5319L517.619 62.3743L516.83 60.4008C514.14 58.2562 511.041 55.6777 507.357 56.0592L504.594 56.8486L501.437 57.6379L498.674 59.2168L495.911 61.1903L493.543 63.1638L491.175 65.9266L489.201 68.2947L487.623 71.4523V119.211H500.647V124.342H456.441V119.211H470.256V56.0592H456.441V51.7175H475.387L480.518 51.3229L482.491 50.9281L484.465 50.1388L485.649 49.3494L487.228 47.7705V61.9797H487.623L490.385 59.2168L493.148 56.0592L495.911 54.0857C502.976 48.8494 506.246 49.2704 514.067 47.7705L519.988 48.5599L525.119 49.744L529.066 52.1122L531.829 55.2698L534.197 58.822L535.775 61.9797L536.565 65.9266V119.211H546.432V124.342H508.147V119.211Z" fill="black"/>
<path d="M303.299 94.7391C317.442 94.5944 323.738 113.527 310.404 120.394C294.089 126.223 281.913 115.882 280.012 99.0807H276.065L276.854 125.92H280.801L281.591 122.762L282.775 122.368H285.143L286.722 122.762L290.274 124.736L295.405 125.92C303.523 128.69 316.495 126.42 321.85 119.605C334.585 104.929 329.375 81.543 308.43 78.5565C254.587 74.8661 308.897 28.8115 318.692 70.6625H322.639L322.244 49.7436H318.692L318.297 50.9277L317.903 51.7171L317.508 52.9012C313.949 53.1512 306.812 48.9805 303.299 48.9542C293.142 48.9437 287.472 49.566 280.801 58.0323C269.987 76.3923 281.722 93.9366 303.299 94.7391Z" fill="black"/>
<path d="M381.054 112.895C378.351 117.447 372.266 121.828 366.845 119.605L365.266 119.21L364.082 118.421L362.898 116.842L362.503 115.263L361.32 113.29V56.059H381.054V51.7173H361.32V27.2461H358.162C357.261 40.771 345.729 53.0395 331.717 51.7173V56.059H343.953V110.527L344.348 114.869L345.137 118.421L347.11 121.184L352.636 125.131L356.188 125.92L360.135 126.71C369.338 128.052 378.831 125.197 383.817 116.842L381.054 112.895Z" fill="black"/>
</svg>
