<svg width="149" height="24" viewBox="0 0 149 24" fill="none" xmlns="http://www.w3.org/2000/svg">
<path d="M28.7993 0.257561L28.3988 0.155389C27.9982 0.0532151 27.4796 0 26.8451 0C26.0419 0 25.2808 0.161774 24.5599 0.485322C23.8388 0.808869 23.2507 1.29632 22.7995 1.94342C22.3463 2.59051 22.205 3.71654 22.205 3.71654C22.1587 4.0784 22.1228 4.67016 22.1228 5.03415V6.71361H20.0653C19.7048 6.71361 19.4097 7.01162 19.4097 7.37561V8.26111C19.4097 8.6251 19.7048 8.92311 20.0653 8.92311H22.1228V23.0187C22.1228 23.3827 22.418 23.6807 22.7784 23.6807H24.0497C24.4101 23.6807 24.7053 23.3827 24.7053 23.0187V8.92524H27.8127C28.1732 8.92524 28.4683 8.62723 28.4683 8.26324V7.37774C28.4683 7.01375 28.1732 6.71574 27.8127 6.71574H24.7053V5.65357C24.7053 5.28958 24.7433 4.69569 24.7896 4.33597C24.7896 4.33597 24.8929 3.51645 25.2703 3.08222C25.6455 2.64798 26.2611 2.43087 27.1128 2.43087C27.4839 2.43087 27.7854 2.46493 28.0151 2.5309L28.2449 2.59689C28.4156 2.65224 28.6497 2.41384 28.7635 2.069L29.0924 1.07069C29.2062 0.725854 29.0755 0.359734 28.8036 0.259689L28.7993 0.257561ZM81.8024 13.9935C81.8024 13.9935 81.7834 13.9765 81.775 13.9658L88.4156 7.18616C88.6686 6.92647 88.5822 6.71574 88.2217 6.71574H86.3391C85.9786 6.71574 85.4769 6.9286 85.2239 7.18829L78.7919 13.7997C78.539 14.0594 78.2143 14.2723 78.071 14.2723C78.0562 14.2723 78.0415 14.2766 78.0266 14.2829V1.72204C78.0266 1.35805 77.7315 1.06005 77.371 1.06005H76.0999C75.7393 1.06005 75.4442 1.35805 75.4442 1.72204V23.0187C75.4442 23.3827 75.7393 23.6807 76.0999 23.6807H77.371C77.7315 23.6807 78.0266 23.3827 78.0266 23.0187V17.1757C78.1111 17.1928 78.2165 17.1544 78.3324 17.0458L79.8628 15.6154C79.8882 15.6836 79.9198 15.7495 79.9641 15.807L85.7151 23.1614C85.9386 23.4465 86.4171 23.6807 86.7776 23.6807H88.7487C89.1092 23.6807 89.221 23.4465 88.9975 23.1614L81.8045 13.9935H81.8024ZM122.723 20.3176C122.207 20.3176 121.76 20.4963 121.387 20.8518C121.016 21.2094 120.828 21.6436 120.828 22.1439C120.828 22.6441 121.016 23.0783 121.387 23.4338C121.758 23.7892 122.207 23.9681 122.723 23.9681C123.24 23.9681 123.69 23.7892 124.06 23.4338C124.431 23.0783 124.619 22.6441 124.619 22.1439C124.619 21.6436 124.431 21.2094 124.06 20.8518C123.69 20.4963 123.24 20.3176 122.723 20.3176ZM146.278 6.69446H145.044C144.639 6.69446 144.311 7.02652 144.311 7.43521V22.9741C144.311 23.3827 144.639 23.7148 145.044 23.7148H146.278C146.683 23.7148 147.011 23.3827 147.011 22.9741V7.43308C147.011 7.02439 146.683 6.69233 146.278 6.69233V6.69446ZM138.134 7.39689C137.474 6.99885 136.783 6.73064 136.077 6.60293C135.377 6.47521 134.746 6.40922 134.209 6.40922C133.366 6.40922 132.497 6.5263 131.626 6.75832C130.754 6.99033 129.94 7.40115 129.209 7.97801C128.806 8.29729 128.06 8.99761 127.579 10.1236C127.463 10.3961 127.475 10.7217 127.614 10.9325C127.713 11.0858 127.868 11.1667 128.055 11.1667H129.444C129.748 11.1667 130.089 11.1411 130.287 10.8367C130.562 10.4174 130.941 10.0257 131.483 9.60426C132.164 9.07423 133.121 8.8039 134.329 8.8039C135.537 8.8039 136.366 9.10191 136.932 9.68515C137.502 10.2705 137.79 11.1049 137.79 12.1671V17.065C137.79 19.8003 136.213 20.7092 135.695 21.0072C135.008 21.401 134.151 21.6032 133.153 21.6032C132.269 21.6032 131.354 21.5372 130.659 21.0561C129.923 20.5495 129.546 19.5662 129.721 18.6082C129.942 17.4034 131.129 16.8543 131.628 16.6733C132.816 16.2455 134.062 16.0113 135.438 15.956C135.828 15.939 136.131 15.6154 136.131 15.2174V14.3276C136.131 13.9168 135.8 13.5805 135.366 13.5805C133.651 13.6422 131.19 13.9593 129.202 15.1279C128.124 15.7623 127.378 16.7755 127.1 17.9846C126.814 19.2256 127.05 20.5049 127.762 21.5904C128.275 22.3695 128.975 22.9741 129.847 23.3849C130.741 23.8041 131.694 24 132.849 24C136.254 24 137.331 22.2801 137.792 21.5245V22.9719C137.792 23.3806 138.122 23.7126 138.527 23.7126H139.759C140.164 23.7126 140.493 23.3806 140.493 22.9719V12.4544C140.493 11.1475 140.259 10.0555 139.8 9.21047C139.362 8.40798 138.802 7.79708 138.139 7.39477L138.134 7.39689ZM115.725 7.07973C114.869 6.61144 113.857 6.37303 112.721 6.37303C111.375 6.37303 110.157 6.66253 109.375 7.16913C108.567 7.6949 108.041 8.41011 107.774 8.83796V7.40115C107.774 6.99246 107.446 6.6604 107.041 6.6604H105.807C105.403 6.6604 105.074 6.99246 105.074 7.40115V22.9399C105.074 23.3487 105.403 23.6807 105.807 23.6807H107.041C107.446 23.6807 107.774 23.3487 107.774 22.9399V13.4102C107.774 12.4141 107.969 11.503 108.323 10.8452C108.683 10.1705 109.187 9.65109 109.815 9.29986C110.446 8.94865 111.173 8.76985 111.979 8.76985C113.144 8.76985 114.072 9.13809 114.74 9.86395C115.409 10.594 115.746 11.6243 115.746 12.927V22.9399C115.746 23.3487 116.074 23.6807 116.479 23.6807H117.713C118.117 23.6807 118.446 23.3487 118.446 22.9399V12.8163C118.446 11.3774 118.206 10.1662 117.731 9.21898C117.258 8.26963 116.58 7.55016 115.723 7.07973H115.725ZM145.66 4.42963C146.177 4.42963 146.626 4.25082 146.997 3.89535C147.368 3.53986 147.556 3.10563 147.556 2.60328C147.556 2.10093 147.368 1.66882 146.997 1.31335C146.626 0.957871 146.177 0.779069 145.66 0.779069C145.143 0.779069 144.697 0.957871 144.323 1.31335C143.953 1.67095 143.765 2.10519 143.765 2.60328C143.765 3.10137 143.953 3.53986 144.323 3.89535C144.695 4.24869 145.143 4.42963 145.66 4.42963ZM100.044 0.745011C99.5298 0.745011 99.0786 0.923814 98.7076 1.27929C98.3366 1.63477 98.149 2.07113 98.149 2.56922C98.149 3.06731 98.3366 3.50368 98.7076 3.86129C99.0786 4.21463 99.5277 4.39557 100.044 4.39557C100.561 4.39557 101.01 4.21676 101.381 3.86129C101.752 3.50581 101.939 3.07157 101.939 2.56922C101.939 2.06687 101.752 1.63477 101.381 1.27929C101.01 0.923814 100.561 0.745011 100.044 0.745011ZM38.9775 6.37303H38.8067C37.4617 6.37303 36.2432 6.66253 35.4611 7.16913C34.6536 7.6949 34.1266 8.41011 33.861 8.83796V7.40115C33.861 6.99246 33.5321 6.6604 33.1273 6.6604H31.894C31.4893 6.6604 31.1605 6.99246 31.1605 7.40115V22.9399C31.1605 23.3487 31.4893 23.6807 31.894 23.6807H33.1273C33.5321 23.6807 33.861 23.3487 33.861 22.9399V13.4102C33.861 12.4141 34.055 11.503 34.4091 10.8452C34.7718 10.1705 35.2735 9.65109 35.9016 9.29986C36.532 8.94865 37.2614 8.76985 38.0647 8.76985H38.9754C39.3317 8.76985 39.6205 8.47823 39.6205 8.11849V7.02439C39.6205 6.66465 39.3317 6.37303 38.9754 6.37303H38.9775ZM52.1892 7.36071C51.5294 6.96266 50.8379 6.69658 50.1316 6.56674C49.4297 6.43902 48.8014 6.37303 48.2617 6.37303C47.4185 6.37303 46.5499 6.49011 45.6792 6.72213C44.8065 6.95415 43.9928 7.36496 43.2612 7.94182C42.8586 8.26111 42.1102 8.96142 41.6316 10.0875C41.5156 10.3599 41.5305 10.6856 41.6675 10.8963C41.7665 11.0496 41.9204 11.1305 42.108 11.1305H43.4952C43.8009 11.1305 44.1403 11.1049 44.3385 10.8005C44.6104 10.3812 44.9899 9.98953 45.5338 9.5702C46.2147 9.03805 47.1718 8.76985 48.3799 8.76985C49.5878 8.76985 50.4163 9.06572 50.9833 9.65109C51.5526 10.2364 51.8414 11.0709 51.8414 12.1351V17.0331C51.8414 19.7684 50.2645 20.6773 49.7459 20.9753C49.0586 21.3691 48.2027 21.5713 47.2034 21.5713C46.3201 21.5713 45.4052 21.5053 44.7074 21.0242C43.9717 20.5176 43.5943 19.5342 43.7693 18.5763C43.9907 17.3715 45.1775 16.8223 45.6771 16.6414C46.864 16.2136 48.1078 15.9794 49.4781 15.9241C49.8682 15.9071 50.1738 15.5835 50.1738 15.1854V14.2957C50.1738 13.887 49.8428 13.555 49.4086 13.555C47.6925 13.6146 45.2302 13.9339 43.2528 15.0961C42.1755 15.7303 41.4292 16.7435 41.151 17.9526C40.8643 19.1936 41.1003 20.4729 41.8129 21.5585C42.3252 22.3375 43.0251 22.9421 43.8979 23.3529C44.7918 23.7722 45.7447 23.9681 46.8978 23.9681C50.3025 23.9681 51.3796 22.2482 51.8414 21.4925V22.9421C51.8414 23.3507 52.1703 23.6829 52.5751 23.6829H53.8082C54.213 23.6829 54.5419 23.3507 54.5419 22.9421V12.4204C54.5419 11.1113 54.308 10.0215 53.8483 9.17641C53.4119 8.37392 52.8512 7.76302 52.1871 7.36071H52.1892ZM68.9575 7.07761C68.1015 6.60931 67.0896 6.3709 65.9533 6.3709C64.6083 6.3709 63.3898 6.6604 62.6077 7.16701C61.8002 7.69277 61.2733 8.40798 61.0076 8.83583V7.39902C61.0076 6.99033 60.6787 6.65827 60.2739 6.65827H59.0407C58.6359 6.65827 58.3071 6.99033 58.3071 7.39902V22.9399C58.3071 23.3487 58.6359 23.6807 59.0407 23.6807H60.2739C60.6787 23.6807 61.0076 23.3487 61.0076 22.9399V13.4102C61.0076 12.4141 61.2016 11.503 61.5558 10.8452C61.9162 10.1705 62.4201 9.65109 63.0483 9.29986C63.6786 8.94865 64.4059 8.76985 65.2113 8.76985C66.377 8.76985 67.3047 9.13809 67.9729 9.86395C68.6412 10.594 68.9785 11.6243 68.9785 12.927V22.9399C68.9785 23.3487 69.3073 23.6807 69.7121 23.6807H70.9454C71.3502 23.6807 71.6791 23.3487 71.6791 22.9399V12.8163C71.6791 11.3774 71.4387 10.1662 70.9644 9.21898C70.49 8.26963 69.8133 7.55016 68.9554 7.07973L68.9575 7.07761ZM93.9305 1.06005H92.6973C92.2925 1.06005 91.9636 1.3921 91.9636 1.80079V22.9399C91.9636 23.3487 92.2925 23.6807 92.6973 23.6807H93.9305C94.3353 23.6807 94.6642 23.3487 94.6642 22.9399V1.80079C94.6642 1.3921 94.3353 1.06005 93.9305 1.06005ZM100.66 6.65827H99.4265C99.0217 6.65827 98.6928 6.99033 98.6928 7.39902V22.9399C98.6928 23.3487 99.0217 23.6807 99.4265 23.6807H100.66C101.065 23.6807 101.393 23.3487 101.393 22.9399V7.39902C101.393 6.99033 101.065 6.65827 100.66 6.65827Z" fill="black"/>
<path d="M0.874881 16.8481C0.710446 16.8481 0.581849 16.8013 0.510172 16.7672C0.356277 16.6927 0 16.4565 0 15.8455V1.6414C0 0.924058 0.577633 0.34082 1.28808 0.34082H14.6685C15.3895 0.34082 15.9291 0.78357 16.0789 1.49453C16.0958 1.57115 16.4541 3.40388 14.2996 4.60229C13.0136 5.3175 10.7516 5.93266 9.10087 6.38392C8.39675 6.5755 7.78961 6.74153 7.4797 6.85434C7.43755 6.86924 7.39749 6.88627 7.35955 6.90117C8.91324 6.96078 9.74808 7.87607 9.87456 8.02721C10.332 8.55297 10.292 9.33204 9.78181 9.80033L9.75651 9.82162L1.54106 16.5842C1.2923 16.7885 1.0604 16.8481 0.874881 16.8481ZM1.28808 1.61798C1.27754 1.61798 1.26489 1.63075 1.26489 1.6414V15.1623L8.91746 8.86375L8.90271 8.84459C8.88374 8.8233 8.3314 8.17621 7.19932 8.17621H7.18667C6.59428 8.17834 6.12628 8.18047 5.80795 7.84414C5.68778 7.71643 5.54864 7.48867 5.56761 7.1268C5.59081 6.6947 5.86487 6.08805 7.04543 5.65594C7.40803 5.52397 8.00885 5.36007 8.76989 5.15147C10.3594 4.71935 12.5351 4.12548 13.6861 3.48477C14.9699 2.76955 14.854 1.85 14.8371 1.74783C14.8139 1.64352 14.7844 1.61798 14.6664 1.61798H1.28808Z" fill="black"/>
</svg>
