<?xml version="1.0" standalone="no"?>
<!DOCTYPE svg PUBLIC "-//W3C//DTD SVG 20010904//EN"
 "http://www.w3.org/TR/2001/REC-SVG-20010904/DTD/svg10.dtd">
<svg version="1.0" xmlns="http://www.w3.org/2000/svg"
 width="2548.000000pt" height="552.000000pt" viewBox="0 0 2548.000000 552.000000"
 preserveAspectRatio="xMidYMid meet">

<g transform="translate(0.000000,552.000000) scale(0.100000,-0.100000)"
fill="#000000" stroke="none">
<path d="M10640 5368 l0 -143 1171 -660 c645 -363 1191 -670 1215 -683 l44
-22 1210 681 1210 682 0 144 c0 78 -4 143 -9 143 -5 0 -537 -192 -1182 -426
-646 -235 -1188 -431 -1204 -436 -27 -9 -168 40 -1232 426 -660 240 -1206 436
-1212 436 -8 0 -11 -45 -11 -142z"/>
<path d="M10242 4788 l-124 -71 50 -51 c27 -28 441 -454 919 -947 627 -646
873 -905 877 -925 3 -16 134 -645 291 -1398 157 -753 286 -1371 288 -1372 2
-2 58 28 125 67 l122 70 0 45 c0 59 -159 3007 -162 3010 -17 15 -2244 1637
-2252 1640 -6 2 -67 -28 -134 -68z"/>
<path d="M17925 4854 c-161 -13 -366 -38 -476 -60 -651 -126 -1090 -399 -1268
-787 -68 -146 -76 -190 -76 -392 0 -176 1 -182 31 -267 147 -412 610 -675
1433 -813 208 -35 343 -51 706 -85 705 -66 1002 -120 1220 -224 209 -99 305
-257 275 -453 -38 -250 -276 -434 -675 -522 -370 -82 -923 -88 -1349 -15 -480
82 -917 281 -1278 581 -48 40 -89 73 -91 73 -8 0 -427 -479 -427 -487 0 -19
270 -217 419 -308 407 -246 874 -402 1426 -477 152 -20 210 -23 555 -23 315 0
410 3 525 18 329 43 649 130 866 236 502 244 764 640 735 1112 -37 620 -551
948 -1706 1089 -91 11 -302 31 -470 45 -786 66 -1097 125 -1306 251 -145 87
-215 208 -200 347 27 261 317 445 827 526 371 60 823 52 1196 -20 361 -69 713
-225 955 -422 29 -24 58 -46 64 -50 7 -4 80 67 185 181 96 103 194 209 219
235 l44 49 -34 29 c-19 16 -98 72 -175 124 -388 260 -868 425 -1430 490 -133
15 -606 28 -720 19z"/>
<path d="M22870 4850 c-917 -76 -1545 -411 -1722 -920 -69 -199 -65 -467 11
-643 118 -275 421 -491 886 -632 323 -98 662 -153 1285 -210 646 -59 957 -119
1175 -224 213 -104 304 -267 261 -469 -35 -166 -146 -293 -338 -386 -258 -126
-564 -178 -1038 -178 -373 -1 -633 32 -944 117 -360 99 -723 292 -1009 538
l-58 50 -28 -29 c-73 -77 -401 -454 -401 -461 0 -5 44 -42 98 -84 498 -387
1044 -605 1747 -701 153 -20 209 -23 560 -23 348 0 408 3 552 23 445 60 773
171 1044 351 293 195 468 454 515 761 26 176 14 330 -37 485 -78 233 -253 414
-534 551 -356 173 -781 261 -1590 329 -545 45 -798 79 -1012 135 -264 69 -406
159 -472 300 -37 79 -36 191 2 274 51 112 139 192 292 269 260 129 679 197
1140 184 412 -11 743 -76 1049 -206 188 -79 307 -151 518 -311 l26 -20 214
230 c117 127 214 234 216 239 4 11 -157 132 -263 198 -380 236 -841 387 -1370
448 -164 19 -620 28 -775 15z"/>
<path d="M14618 4031 c-615 -449 -1122 -821 -1127 -826 -10 -11 -176 -3027
-168 -3049 6 -15 238 -149 245 -141 3 3 136 633 296 1400 l291 1395 915 941
c503 518 916 945 918 948 2 6 -241 152 -250 150 -2 0 -506 -368 -1120 -818z"/>
<path d="M1100 2734 c-597 -1103 -1087 -2010 -1088 -2015 -2 -5 150 -9 371 -9
l374 0 254 485 254 484 1295 -2 1294 -2 256 -480 255 -480 379 -3 c301 -2 377
0 373 10 -3 7 -491 913 -1085 2013 l-1081 2000 -383 2 -383 2 -1085 -2005z
m1967 442 c261 -494 472 -900 470 -902 -2 -2 -443 -3 -979 -2 l-975 3 414 785
c228 432 448 850 490 929 l76 144 15 -29 c8 -16 228 -433 489 -928z"/>
<path d="M5790 2725 l0 -2015 1553 0 c1664 0 1662 0 1910 51 199 41 409 126
550 221 81 55 191 161 243 234 58 81 117 208 146 314 20 76 23 107 22 285 0
175 -3 210 -22 279 -108 390 -426 624 -937 690 l-100 13 75 12 c311 54 540
214 664 465 75 150 90 220 90 431 1 188 -5 226 -53 356 -123 327 -473 559
-971 643 -195 33 -339 36 -1752 36 l-1418 0 0 -2015z m2892 1424 c384 -41 581
-187 620 -458 22 -155 -14 -308 -96 -412 -100 -128 -276 -200 -555 -228 -65
-7 -486 -11 -1142 -11 l-1039 0 0 560 0 560 1055 0 c703 0 1089 -4 1157 -11z
m218 -1688 c358 -63 528 -182 596 -416 22 -78 23 -237 1 -322 -50 -191 -192
-320 -418 -383 -197 -53 -175 -53 -1436 -57 l-1173 -4 0 601 0 601 1183 -4
c831 -3 1201 -8 1247 -16z"/>
</g>
</svg>
